<ttFont>
    <TTGlyph name=".notdef" xMin="84" yMin="0" xMax="516" yMax="660">
      <contour>
        <pt x="84" y="660" on="1"/>
        <pt x="516" y="660" on="1"/>
        <pt x="516" y="0" on="1"/>
        <pt x="84" y="0" on="1"/>
      </contour>
      <contour>
        <pt x="276" y="340" on="1"/>
        <pt x="122" y="610" on="1"/>
        <pt x="122" y="74" on="1"/>
      </contour>
      <contour>
        <pt x="476" y="74" on="1"/>
        <pt x="476" y="610" on="1"/>
        <pt x="324" y="340" on="1"/>
      </contour>
      <contour>
        <pt x="464" y="32" on="1"/>
        <pt x="364" y="208" on="1"/>
        <pt x="302" y="314" on="1"/>
        <pt x="298" y="314" on="1"/>
        <pt x="234" y="208" on="1"/>
        <pt x="132" y="32" on="1"/>
      </contour>
      <contour>
        <pt x="302" y="366" on="1"/>
        <pt x="356" y="458" on="1"/>
        <pt x="450" y="626" on="1"/>
        <pt x="148" y="626" on="1"/>
        <pt x="242" y="458" on="1"/>
        <pt x="298" y="366" on="1"/>
      </contour>
    </TTGlyph>
    <TTGlyph name="A" xMin="50" yMin="0" xMax="550" yMax="660">
      <contour>
        <pt x="424" y="264" on="1"/>
        <pt x="378" y="396" on="1"/>
        <pt x="357" y="456" on="0"/>
        <pt x="320" y="564" on="0"/>
        <pt x="302" y="626" on="1"/>
        <pt x="298" y="626" on="1"/>
        <pt x="280" y="564" on="0"/>
        <pt x="243" y="456" on="0"/>
        <pt x="222" y="396" on="1"/>
        <pt x="175" y="264" on="1"/>
      </contour>
      <contour>
        <pt x="434" y="236" on="1"/>
        <pt x="165" y="236" on="1"/>
        <pt x="82" y="0" on="1"/>
        <pt x="50" y="0" on="1"/>
        <pt x="286" y="660" on="1"/>
        <pt x="314" y="660" on="1"/>
        <pt x="550" y="0" on="1"/>
        <pt x="516" y="0" on="1"/>
      </contour>
    </TTGlyph>
    <TTGlyph name="AE" xMin="0" yMin="0" xMax="588" yMax="660">
      <contour>
        <pt x="322" y="254" on="1"/>
        <pt x="322" y="630" on="1"/>
        <pt x="318" y="630" on="1"/>
        <pt x="292" y="571" on="0"/>
        <pt x="239" y="456" on="0"/>
        <pt x="212" y="394" on="1"/>
        <pt x="149" y="254" on="1"/>
      </contour>
      <contour>
        <pt x="588" y="28" on="1"/>
        <pt x="588" y="0" on="1"/>
        <pt x="322" y="0" on="1"/>
        <pt x="322" y="226" on="1"/>
        <pt x="137" y="226" on="1"/>
        <pt x="36" y="0" on="1"/>
        <pt x="0" y="0" on="1"/>
        <pt x="302" y="660" on="1"/>
        <pt x="578" y="660" on="1"/>
        <pt x="578" y="632" on="1"/>
        <pt x="354" y="632" on="1"/>
        <pt x="354" y="366" on="1"/>
        <pt x="524" y="366" on="1"/>
        <pt x="524" y="338" on="1"/>
        <pt x="354" y="338" on="1"/>
        <pt x="354" y="28" on="1"/>
      </contour>
    </TTGlyph>
    <TTGlyph name="Aacute" xMin="50" yMin="0" xMax="550" yMax="814">
      <component glyphName="A" x="0" y="0" flags="0x204"/>
      <component glyphName="uni0301.cap" x="0" y="0" flags="0x4"/>
    </TTGlyph>
    <TTGlyph name="Abreve" xMin="50" yMin="0" xMax="550" yMax="814">
      <component glyphName="A" x="0" y="0" flags="0x204"/>
      <component glyphName="uni0306.cap" x="0" y="0" flags="0x4"/>
    </TTGlyph>
    <TTGlyph name="Acircumflex" xMin="50" yMin="0" xMax="550" yMax="814">
      <component glyphName="A" x="0" y="0" flags="0x204"/>
      <component glyphName="uni0302.cap" x="0" y="0" flags="0x4"/>
    </TTGlyph>
    <TTGlyph name="Adieresis" xMin="50" yMin="0" xMax="550" yMax="792">
      <component glyphName="A" x="0" y="0" flags="0x204"/>
      <component glyphName="uni0308.cap" x="0" y="0" flags="0x4"/>
    </TTGlyph>
    <TTGlyph name="Agrave" xMin="50" yMin="0" xMax="550" yMax="814">
      <component glyphName="A" x="0" y="0" flags="0x204"/>
      <component glyphName="uni0300.cap" x="0" y="0" flags="0x4"/>
    </TTGlyph>
    <TTGlyph name="Amacron" xMin="50" yMin="0" xMax="550" yMax="764">
      <component glyphName="A" x="0" y="0" flags="0x204"/>
      <component glyphName="uni0304.cap" x="0" y="0" flags="0x4"/>
    </TTGlyph>
    <TTGlyph name="Aogonek" xMin="50" yMin="-202" xMax="588" yMax="660">
      <contour>
        <pt x="424" y="264" on="1"/>
        <pt x="378" y="396" on="1"/>
        <pt x="357" y="456" on="0"/>
        <pt x="320" y="564" on="0"/>
        <pt x="302" y="626" on="1"/>
        <pt x="298" y="626" on="1"/>
        <pt x="280" y="564" on="0"/>
        <pt x="243" y="456" on="0"/>
        <pt x="222" y="396" on="1"/>
        <pt x="175" y="264" on="1"/>
      </contour>
      <contour>
        <pt x="588" y="-180" on="1"/>
        <pt x="577" y="-189" on="0"/>
        <pt x="543" y="-202" on="0"/>
        <pt x="528" y="-202" on="1"/>
        <pt x="495" y="-202" on="0"/>
        <pt x="448" y="-163" on="0"/>
        <pt x="448" y="-122" on="1"/>
        <pt x="448" y="-86" on="0"/>
        <pt x="491" y="-20" on="0"/>
        <pt x="518" y="0" on="1"/>
        <pt x="516" y="0" on="1"/>
        <pt x="434" y="236" on="1"/>
        <pt x="165" y="236" on="1"/>
        <pt x="82" y="0" on="1"/>
        <pt x="50" y="0" on="1"/>
        <pt x="286" y="660" on="1"/>
        <pt x="314" y="660" on="1"/>
        <pt x="550" y="0" on="1"/>
        <pt x="520" y="-23" on="0"/>
        <pt x="478" y="-88" on="0"/>
        <pt x="478" y="-120" on="1"/>
        <pt x="478" y="-147" on="0"/>
        <pt x="510" y="-174" on="0"/>
        <pt x="530" y="-174" on="1"/>
        <pt x="544" y="-174" on="0"/>
        <pt x="563" y="-168" on="0"/>
        <pt x="574" y="-160" on="1"/>
      </contour>
    </TTGlyph>
    <TTGlyph name="Aring" xMin="50" yMin="0" xMax="550" yMax="860">
      <component glyphName="A" x="0" y="0" flags="0x204"/>
      <component glyphName="uni030A.cap" x="0" y="0" flags="0x4"/>
    </TTGlyph>
    <TTGlyph name="Atilde" xMin="50" yMin="0" xMax="550" yMax="804">
      <component glyphName="A" x="0" y="0" flags="0x204"/>
      <component glyphName="uni0303.cap" x="0" y="0" flags="0x4"/>
    </TTGlyph>
    <TTGlyph name="B" xMin="119" yMin="0" xMax="535" yMax="660">
      <contour>
        <pt x="119" y="660" on="1"/>
        <pt x="279" y="660" on="1"/>
        <pt x="379" y="660" on="0"/>
        <pt x="493" y="581" on="0"/>
        <pt x="493" y="500" on="1"/>
        <pt x="493" y="447" on="0"/>
        <pt x="434" y="371" on="0"/>
        <pt x="375" y="356" on="1"/>
        <pt x="375" y="352" on="1"/>
        <pt x="449" y="341" on="0"/>
        <pt x="535" y="261" on="0"/>
        <pt x="535" y="192" on="1"/>
        <pt x="535" y="97" on="0"/>
        <pt x="404" y="0" on="0"/>
        <pt x="291" y="0" on="1"/>
        <pt x="119" y="0" on="1"/>
      </contour>
      <contour>
        <pt x="259" y="366" on="1"/>
        <pt x="367" y="366" on="0"/>
        <pt x="461" y="435" on="0"/>
        <pt x="461" y="504" on="1"/>
        <pt x="461" y="572" on="0"/>
        <pt x="362" y="632" on="0"/>
        <pt x="265" y="632" on="1"/>
        <pt x="151" y="632" on="1"/>
        <pt x="151" y="366" on="1"/>
      </contour>
      <contour>
        <pt x="279" y="28" on="1"/>
        <pt x="331" y="28" on="0"/>
        <pt x="414" y="47" on="0"/>
        <pt x="472" y="87" on="0"/>
        <pt x="503" y="148" on="0"/>
        <pt x="503" y="190" on="1"/>
        <pt x="503" y="265" on="0"/>
        <pt x="386" y="338" on="0"/>
        <pt x="279" y="338" on="1"/>
        <pt x="151" y="338" on="1"/>
        <pt x="151" y="28" on="1"/>
      </contour>
    </TTGlyph>
    <TTGlyph name="C" xMin="74" yMin="-12" xMax="541" yMax="672">
      <contour>
        <pt x="74" y="332" on="1"/>
        <pt x="74" y="410" on="0"/>
        <pt x="114" y="536" on="0"/>
        <pt x="187" y="624" on="0"/>
        <pt x="290" y="672" on="0"/>
        <pt x="353" y="672" on="1"/>
        <pt x="410" y="672" on="0"/>
        <pt x="495" y="624" on="0"/>
        <pt x="521" y="594" on="1"/>
        <pt x="501" y="572" on="1"/>
        <pt x="474" y="604" on="0"/>
        <pt x="400" y="642" on="0"/>
        <pt x="353" y="642" on="1"/>
        <pt x="296" y="642" on="0"/>
        <pt x="205" y="599" on="0"/>
        <pt x="142" y="518" on="0"/>
        <pt x="108" y="403" on="0"/>
        <pt x="108" y="332" on="1"/>
        <pt x="108" y="261" on="0"/>
        <pt x="142" y="145" on="0"/>
        <pt x="204" y="63" on="0"/>
        <pt x="293" y="18" on="0"/>
        <pt x="349" y="18" on="1"/>
        <pt x="402" y="18" on="0"/>
        <pt x="483" y="60" on="0"/>
        <pt x="521" y="102" on="1"/>
        <pt x="541" y="82" on="1"/>
        <pt x="503" y="38" on="0"/>
        <pt x="412" y="-12" on="0"/>
        <pt x="347" y="-12" on="1"/>
        <pt x="286" y="-12" on="0"/>
        <pt x="186" y="37" on="0"/>
        <pt x="114" y="127" on="0"/>
        <pt x="74" y="254" on="0"/>
      </contour>
    </TTGlyph>
    <TTGlyph name="Cacute" xMin="74" yMin="-12" xMax="541" yMax="814">
      <component glyphName="C" x="0" y="0" flags="0x204"/>
      <component glyphName="uni0301.cap" x="42" y="0" flags="0x4"/>
    </TTGlyph>
    <TTGlyph name="Ccaron" xMin="74" yMin="-12" xMax="541" yMax="814">
      <component glyphName="C" x="0" y="0" flags="0x204"/>
      <component glyphName="uni030C.cap" x="42" y="0" flags="0x4"/>
    </TTGlyph>
    <TTGlyph name="Ccedilla" xMin="74" yMin="-206" xMax="541" yMax="672">
      <component glyphName="C" x="0" y="0" flags="0x204"/>
      <component glyphName="uni0327.cap" x="46" y="0" flags="0x4"/>
    </TTGlyph>
    <TTGlyph name="Ccircumflex" xMin="74" yMin="-12" xMax="541" yMax="814">
      <component glyphName="C" x="0" y="0" flags="0x204"/>
      <component glyphName="uni0302.cap" x="42" y="0" flags="0x4"/>
    </TTGlyph>
    <TTGlyph name="Cdotaccent" xMin="74" yMin="-12" xMax="541" yMax="794">
      <component glyphName="C" x="0" y="0" flags="0x204"/>
      <component glyphName="uni0307.cap" x="42" y="0" flags="0x4"/>
    </TTGlyph>
    <TTGlyph name="D" xMin="100" yMin="0" xMax="544" yMax="660">
      <contour>
        <pt x="100" y="660" on="1"/>
        <pt x="248" y="660" on="1"/>
        <pt x="324" y="660" on="0"/>
        <pt x="436" y="613" on="0"/>
        <pt x="509" y="526" on="0"/>
        <pt x="544" y="405" on="0"/>
        <pt x="544" y="332" on="1"/>
        <pt x="544" y="258" on="0"/>
        <pt x="509" y="136" on="0"/>
        <pt x="436" y="49" on="0"/>
        <pt x="324" y="0" on="0"/>
        <pt x="248" y="0" on="1"/>
        <pt x="100" y="0" on="1"/>
      </contour>
      <contour>
        <pt x="244" y="28" on="1"/>
        <pt x="314" y="28" on="0"/>
        <pt x="415" y="74" on="0"/>
        <pt x="480" y="155" on="0"/>
        <pt x="510" y="267" on="0"/>
        <pt x="510" y="332" on="1"/>
        <pt x="510" y="397" on="0"/>
        <pt x="480" y="507" on="0"/>
        <pt x="415" y="587" on="0"/>
        <pt x="314" y="632" on="0"/>
        <pt x="244" y="632" on="1"/>
        <pt x="132" y="632" on="1"/>
        <pt x="132" y="28" on="1"/>
      </contour>
    </TTGlyph>
    <TTGlyph name="Dcaron" xMin="100" yMin="0" xMax="544" yMax="814">
      <component glyphName="D" x="0" y="0" flags="0x204"/>
      <component glyphName="uni030C.cap" x="0" y="0" flags="0x4"/>
    </TTGlyph>
    <TTGlyph name="Dcroat" xMin="28" yMin="0" xMax="550" yMax="660">
      <component glyphName="Eth" x="0" y="0" flags="0x204"/>
    </TTGlyph>
    <TTGlyph name="E" xMin="132" yMin="0" xMax="526" yMax="660">
      <contour>
        <pt x="132" y="660" on="1"/>
        <pt x="516" y="660" on="1"/>
        <pt x="516" y="632" on="1"/>
        <pt x="164" y="632" on="1"/>
        <pt x="164" y="366" on="1"/>
        <pt x="460" y="366" on="1"/>
        <pt x="460" y="338" on="1"/>
        <pt x="164" y="338" on="1"/>
        <pt x="164" y="28" on="1"/>
        <pt x="526" y="28" on="1"/>
        <pt x="526" y="0" on="1"/>
        <pt x="132" y="0" on="1"/>
      </contour>
    </TTGlyph>
    <TTGlyph name="Eacute" xMin="132" yMin="0" xMax="526" yMax="814">
      <component glyphName="E" x="0" y="0" flags="0x204"/>
      <component glyphName="uni0301.cap" x="38" y="0" flags="0x4"/>
    </TTGlyph>
    <TTGlyph name="Ebreve" xMin="132" yMin="0" xMax="526" yMax="814">
      <component glyphName="E" x="0" y="0" flags="0x204"/>
      <component glyphName="uni0306.cap" x="38" y="0" flags="0x4"/>
    </TTGlyph>
    <TTGlyph name="Ecaron" xMin="132" yMin="0" xMax="526" yMax="814">
      <component glyphName="E" x="0" y="0" flags="0x204"/>
      <component glyphName="uni030C.cap" x="38" y="0" flags="0x4"/>
    </TTGlyph>
    <TTGlyph name="Ecircumflex" xMin="132" yMin="0" xMax="526" yMax="814">
      <component glyphName="E" x="0" y="0" flags="0x204"/>
      <component glyphName="uni0302.cap" x="38" y="0" flags="0x4"/>
    </TTGlyph>
    <TTGlyph name="Edieresis" xMin="132" yMin="0" xMax="526" yMax="792">
      <component glyphName="E" x="0" y="0" flags="0x204"/>
      <component glyphName="uni0308.cap" x="38" y="0" flags="0x4"/>
    </TTGlyph>
    <TTGlyph name="Edotaccent" xMin="132" yMin="0" xMax="526" yMax="794">
      <component glyphName="E" x="0" y="0" flags="0x204"/>
      <component glyphName="uni0307.cap" x="38" y="0" flags="0x4"/>
    </TTGlyph>
    <TTGlyph name="Egrave" xMin="132" yMin="0" xMax="526" yMax="814">
      <component glyphName="E" x="0" y="0" flags="0x204"/>
      <component glyphName="uni0300.cap" x="38" y="0" flags="0x4"/>
    </TTGlyph>
    <TTGlyph name="Emacron" xMin="132" yMin="0" xMax="526" yMax="764">
      <component glyphName="E" x="0" y="0" flags="0x204"/>
      <component glyphName="uni0304.cap" x="38" y="0" flags="0x4"/>
    </TTGlyph>
    <TTGlyph name="Eogonek" xMin="132" yMin="-202" xMax="538" yMax="660">
      <contour>
        <pt x="132" y="660" on="1"/>
        <pt x="516" y="660" on="1"/>
        <pt x="516" y="632" on="1"/>
        <pt x="164" y="632" on="1"/>
        <pt x="164" y="366" on="1"/>
        <pt x="460" y="366" on="1"/>
        <pt x="460" y="338" on="1"/>
        <pt x="164" y="338" on="1"/>
        <pt x="164" y="28" on="1"/>
        <pt x="526" y="28" on="1"/>
        <pt x="526" y="0" on="1"/>
        <pt x="524" y="0" on="1"/>
        <pt x="507" y="-4" on="0"/>
        <pt x="473" y="-25" on="0"/>
        <pt x="445" y="-57" on="0"/>
        <pt x="428" y="-98" on="0"/>
        <pt x="428" y="-120" on="1"/>
        <pt x="428" y="-147" on="0"/>
        <pt x="460" y="-174" on="0"/>
        <pt x="480" y="-174" on="1"/>
        <pt x="494" y="-174" on="0"/>
        <pt x="513" y="-168" on="0"/>
        <pt x="524" y="-160" on="1"/>
        <pt x="538" y="-180" on="1"/>
        <pt x="527" y="-189" on="0"/>
        <pt x="493" y="-202" on="0"/>
        <pt x="478" y="-202" on="1"/>
        <pt x="445" y="-202" on="0"/>
        <pt x="398" y="-163" on="0"/>
        <pt x="398" y="-122" on="1"/>
        <pt x="398" y="-84" on="0"/>
        <pt x="440" y="-20" on="0"/>
        <pt x="470" y="0" on="1"/>
        <pt x="132" y="0" on="1"/>
      </contour>
    </TTGlyph>
    <TTGlyph name="Eth" xMin="28" yMin="0" xMax="550" yMax="660">
      <contour>
        <pt x="106" y="336" on="1"/>
        <pt x="28" y="336" on="1"/>
        <pt x="28" y="360" on="1"/>
        <pt x="106" y="364" on="1"/>
        <pt x="106" y="660" on="1"/>
        <pt x="254" y="660" on="1"/>
        <pt x="330" y="660" on="0"/>
        <pt x="442" y="613" on="0"/>
        <pt x="515" y="526" on="0"/>
        <pt x="550" y="405" on="0"/>
        <pt x="550" y="332" on="1"/>
        <pt x="550" y="258" on="0"/>
        <pt x="515" y="136" on="0"/>
        <pt x="442" y="49" on="0"/>
        <pt x="330" y="0" on="0"/>
        <pt x="254" y="0" on="1"/>
        <pt x="106" y="0" on="1"/>
      </contour>
      <contour>
        <pt x="250" y="28" on="1"/>
        <pt x="320" y="28" on="0"/>
        <pt x="421" y="74" on="0"/>
        <pt x="486" y="155" on="0"/>
        <pt x="516" y="267" on="0"/>
        <pt x="516" y="332" on="1"/>
        <pt x="516" y="397" on="0"/>
        <pt x="486" y="507" on="0"/>
        <pt x="421" y="587" on="0"/>
        <pt x="320" y="632" on="0"/>
        <pt x="250" y="632" on="1"/>
        <pt x="138" y="632" on="1"/>
        <pt x="138" y="364" on="1"/>
        <pt x="310" y="364" on="1"/>
        <pt x="310" y="336" on="1"/>
        <pt x="138" y="336" on="1"/>
        <pt x="138" y="28" on="1"/>
      </contour>
    </TTGlyph>
    <TTGlyph name="Euro" xMin="68" yMin="-12" xMax="552" yMax="652">
      <contour>
        <pt x="552" y="82" on="1"/>
        <pt x="517" y="38" on="0"/>
        <pt x="431" y="-12" on="0"/>
        <pt x="368" y="-12" on="1"/>
        <pt x="321" y="-12" on="0"/>
        <pt x="241" y="25" on="0"/>
        <pt x="181" y="93" on="0"/>
        <pt x="141" y="190" on="0"/>
        <pt x="134" y="250" on="1"/>
        <pt x="68" y="250" on="1"/>
        <pt x="68" y="274" on="1"/>
        <pt x="132" y="278" on="1"/>
        <pt x="131" y="289" on="0"/>
        <pt x="130" y="311" on="0"/>
        <pt x="130" y="322" on="1"/>
        <pt x="130" y="331" on="0"/>
        <pt x="130" y="349" on="0"/>
        <pt x="131" y="358" on="1"/>
        <pt x="68" y="358" on="1"/>
        <pt x="68" y="382" on="1"/>
        <pt x="134" y="386" on="1"/>
        <pt x="141" y="448" on="0"/>
        <pt x="181" y="546" on="0"/>
        <pt x="246" y="615" on="0"/>
        <pt x="332" y="652" on="0"/>
        <pt x="384" y="652" on="1"/>
        <pt x="435" y="652" on="0"/>
        <pt x="518" y="604" on="0"/>
        <pt x="542" y="574" on="1"/>
        <pt x="520" y="554" on="1"/>
        <pt x="493" y="586" on="0"/>
        <pt x="426" y="624" on="0"/>
        <pt x="384" y="624" on="1"/>
        <pt x="291" y="624" on="0"/>
        <pt x="180" y="497" on="0"/>
        <pt x="168" y="386" on="1"/>
        <pt x="494" y="386" on="1"/>
        <pt x="494" y="358" on="1"/>
        <pt x="165" y="358" on="1"/>
        <pt x="164" y="349" on="0"/>
        <pt x="164" y="331" on="0"/>
        <pt x="164" y="322" on="1"/>
        <pt x="164" y="311" on="0"/>
        <pt x="165" y="289" on="0"/>
        <pt x="166" y="278" on="1"/>
        <pt x="454" y="278" on="1"/>
        <pt x="454" y="250" on="1"/>
        <pt x="168" y="250" on="1"/>
        <pt x="175" y="196" on="0"/>
        <pt x="208" y="110" on="0"/>
        <pt x="259" y="49" on="0"/>
        <pt x="328" y="16" on="0"/>
        <pt x="370" y="16" on="1"/>
        <pt x="420" y="16" on="0"/>
        <pt x="495" y="58" on="0"/>
        <pt x="530" y="100" on="1"/>
      </contour>
    </TTGlyph>
    <TTGlyph name="F" xMin="156" yMin="0" xMax="534" yMax="660">
      <contour>
        <pt x="156" y="660" on="1"/>
        <pt x="534" y="660" on="1"/>
        <pt x="534" y="632" on="1"/>
        <pt x="187" y="632" on="1"/>
        <pt x="187" y="354" on="1"/>
        <pt x="479" y="354" on="1"/>
        <pt x="479" y="326" on="1"/>
        <pt x="187" y="326" on="1"/>
        <pt x="187" y="0" on="1"/>
        <pt x="156" y="0" on="1"/>
      </contour>
    </TTGlyph>
    <TTGlyph name="G" xMin="61" yMin="-12" xMax="522" yMax="672">
      <contour>
        <pt x="61" y="332" on="1"/>
        <pt x="61" y="410" on="0"/>
        <pt x="101" y="536" on="0"/>
        <pt x="175" y="624" on="0"/>
        <pt x="279" y="672" on="0"/>
        <pt x="343" y="672" on="1"/>
        <pt x="375" y="672" on="0"/>
        <pt x="428" y="658" on="0"/>
        <pt x="470" y="635" on="0"/>
        <pt x="503" y="607" on="0"/>
        <pt x="516" y="594" on="1"/>
        <pt x="496" y="572" on="1"/>
        <pt x="470" y="601" on="0"/>
        <pt x="397" y="642" on="0"/>
        <pt x="343" y="642" on="1"/>
        <pt x="285" y="642" on="0"/>
        <pt x="193" y="599" on="0"/>
        <pt x="129" y="518" on="0"/>
        <pt x="95" y="403" on="0"/>
        <pt x="95" y="332" on="1"/>
        <pt x="95" y="261" on="0"/>
        <pt x="128" y="145" on="0"/>
        <pt x="190" y="63" on="0"/>
        <pt x="279" y="18" on="0"/>
        <pt x="335" y="18" on="1"/>
        <pt x="383" y="18" on="0"/>
        <pt x="464" y="46" on="0"/>
        <pt x="489" y="72" on="1"/>
        <pt x="489" y="290" on="1"/>
        <pt x="329" y="290" on="1"/>
        <pt x="329" y="318" on="1"/>
        <pt x="522" y="318" on="1"/>
        <pt x="522" y="62" on="1"/>
        <pt x="492" y="29" on="0"/>
        <pt x="397" y="-12" on="0"/>
        <pt x="333" y="-12" on="1"/>
        <pt x="271" y="-12" on="0"/>
        <pt x="171" y="37" on="0"/>
        <pt x="100" y="127" on="0"/>
        <pt x="61" y="254" on="0"/>
      </contour>
    </TTGlyph>
    <TTGlyph name="Gbreve" xMin="61" yMin="-12" xMax="522" yMax="814">
      <component glyphName="G" x="0" y="0" flags="0x204"/>
      <component glyphName="uni0306.cap" x="32" y="0" flags="0x4"/>
    </TTGlyph>
    <TTGlyph name="Gcaron" xMin="61" yMin="-12" xMax="522" yMax="814">
      <component glyphName="G" x="0" y="0" flags="0x204"/>
      <component glyphName="uni030C.cap" x="32" y="0" flags="0x4"/>
    </TTGlyph>
    <TTGlyph name="Gcircumflex" xMin="61" yMin="-12" xMax="522" yMax="814">
      <component glyphName="G" x="0" y="0" flags="0x204"/>
      <component glyphName="uni0302.cap" x="32" y="0" flags="0x4"/>
    </TTGlyph>
    <TTGlyph name="Gdotaccent" xMin="61" yMin="-12" xMax="522" yMax="794">
      <component glyphName="G" x="0" y="0" flags="0x204"/>
      <component glyphName="uni0307.cap" x="32" y="0" flags="0x4"/>
    </TTGlyph>
    <TTGlyph name="H" xMin="92" yMin="0" xMax="508" yMax="660">
      <contour>
        <pt x="92" y="660" on="1"/>
        <pt x="124" y="660" on="1"/>
        <pt x="124" y="366" on="1"/>
        <pt x="476" y="366" on="1"/>
        <pt x="476" y="660" on="1"/>
        <pt x="508" y="660" on="1"/>
        <pt x="508" y="0" on="1"/>
        <pt x="476" y="0" on="1"/>
        <pt x="476" y="338" on="1"/>
        <pt x="124" y="338" on="1"/>
        <pt x="124" y="0" on="1"/>
        <pt x="92" y="0" on="1"/>
      </contour>
    </TTGlyph>
    <TTGlyph name="Hbar" xMin="16" yMin="0" xMax="584" yMax="660">
      <contour>
        <pt x="476" y="496" on="1"/>
        <pt x="124" y="496" on="1"/>
        <pt x="124" y="366" on="1"/>
        <pt x="476" y="366" on="1"/>
      </contour>
      <contour>
        <pt x="584" y="496" on="1"/>
        <pt x="508" y="496" on="1"/>
        <pt x="508" y="0" on="1"/>
        <pt x="476" y="0" on="1"/>
        <pt x="476" y="338" on="1"/>
        <pt x="124" y="338" on="1"/>
        <pt x="124" y="0" on="1"/>
        <pt x="92" y="0" on="1"/>
        <pt x="92" y="496" on="1"/>
        <pt x="16" y="496" on="1"/>
        <pt x="16" y="520" on="1"/>
        <pt x="92" y="524" on="1"/>
        <pt x="92" y="660" on="1"/>
        <pt x="124" y="660" on="1"/>
        <pt x="124" y="524" on="1"/>
        <pt x="476" y="524" on="1"/>
        <pt x="476" y="660" on="1"/>
        <pt x="508" y="660" on="1"/>
        <pt x="508" y="524" on="1"/>
        <pt x="584" y="524" on="1"/>
      </contour>
    </TTGlyph>
    <TTGlyph name="Hcircumflex" xMin="92" yMin="0" xMax="508" yMax="814">
      <component glyphName="H" x="0" y="0" flags="0x204"/>
      <component glyphName="uni0302.cap" x="0" y="0" flags="0x4"/>
    </TTGlyph>
    <TTGlyph name="I" xMin="112" yMin="0" xMax="488" yMax="660">
      <contour>
        <pt x="112" y="28" on="1"/>
        <pt x="284" y="28" on="1"/>
        <pt x="284" y="632" on="1"/>
        <pt x="112" y="632" on="1"/>
        <pt x="112" y="660" on="1"/>
        <pt x="488" y="660" on="1"/>
        <pt x="488" y="632" on="1"/>
        <pt x="316" y="632" on="1"/>
        <pt x="316" y="28" on="1"/>
        <pt x="488" y="28" on="1"/>
        <pt x="488" y="0" on="1"/>
        <pt x="112" y="0" on="1"/>
      </contour>
    </TTGlyph>
    <TTGlyph name="Iacute" xMin="112" yMin="0" xMax="488" yMax="814">
      <component glyphName="I" x="0" y="0" flags="0x204"/>
      <component glyphName="uni0301.cap" x="0" y="0" flags="0x4"/>
    </TTGlyph>
    <TTGlyph name="Icircumflex" xMin="112" yMin="0" xMax="488" yMax="814">
      <component glyphName="I" x="0" y="0" flags="0x204"/>
      <component glyphName="uni0302.cap" x="0" y="0" flags="0x4"/>
    </TTGlyph>
    <TTGlyph name="Idieresis" xMin="112" yMin="0" xMax="488" yMax="792">
      <component glyphName="I" x="0" y="0" flags="0x204"/>
      <component glyphName="uni0308.cap" x="0" y="0" flags="0x4"/>
    </TTGlyph>
    <TTGlyph name="Idotaccent" xMin="112" yMin="0" xMax="488" yMax="794">
      <component glyphName="I" x="0" y="0" flags="0x204"/>
      <component glyphName="uni0307.cap" x="0" y="0" flags="0x4"/>
    </TTGlyph>
    <TTGlyph name="Igrave" xMin="112" yMin="0" xMax="488" yMax="814">
      <component glyphName="I" x="0" y="0" flags="0x204"/>
      <component glyphName="uni0300.cap" x="0" y="0" flags="0x4"/>
    </TTGlyph>
    <TTGlyph name="Imacron" xMin="112" yMin="0" xMax="488" yMax="764">
      <component glyphName="I" x="0" y="0" flags="0x204"/>
      <component glyphName="uni0304.cap" x="0" y="0" flags="0x4"/>
    </TTGlyph>
    <TTGlyph name="Iogonek" xMin="112" yMin="-202" xMax="488" yMax="660">
      <contour>
        <pt x="112" y="28" on="1"/>
        <pt x="284" y="28" on="1"/>
        <pt x="284" y="632" on="1"/>
        <pt x="112" y="632" on="1"/>
        <pt x="112" y="660" on="1"/>
        <pt x="488" y="660" on="1"/>
        <pt x="488" y="632" on="1"/>
        <pt x="316" y="632" on="1"/>
        <pt x="316" y="28" on="1"/>
        <pt x="488" y="28" on="1"/>
        <pt x="488" y="0" on="1"/>
        <pt x="316" y="0" on="1"/>
        <pt x="292" y="-30" on="0"/>
        <pt x="258" y="-85" on="0"/>
        <pt x="258" y="-120" on="1"/>
        <pt x="258" y="-147" on="0"/>
        <pt x="290" y="-174" on="0"/>
        <pt x="310" y="-174" on="1"/>
        <pt x="324" y="-174" on="0"/>
        <pt x="343" y="-168" on="0"/>
        <pt x="354" y="-160" on="1"/>
        <pt x="368" y="-180" on="1"/>
        <pt x="357" y="-189" on="0"/>
        <pt x="323" y="-202" on="0"/>
        <pt x="308" y="-202" on="1"/>
        <pt x="275" y="-202" on="0"/>
        <pt x="228" y="-163" on="0"/>
        <pt x="228" y="-122" on="1"/>
        <pt x="228" y="-83" on="0"/>
        <pt x="262" y="-27" on="0"/>
        <pt x="288" y="0" on="1"/>
        <pt x="112" y="0" on="1"/>
      </contour>
    </TTGlyph>
    <TTGlyph name="Itilde" xMin="112" yMin="0" xMax="488" yMax="804">
      <component glyphName="I" x="0" y="0" flags="0x204"/>
      <component glyphName="uni0303.cap" x="0" y="0" flags="0x4"/>
    </TTGlyph>
    <TTGlyph name="J" xMin="98" yMin="-12" xMax="475" yMax="661">
      <contour>
        <pt x="128" y="115" on="1"/>
        <pt x="157" y="64" on="0"/>
        <pt x="236" y="17" on="0"/>
        <pt x="279" y="17" on="1"/>
        <pt x="366" y="17" on="0"/>
        <pt x="443" y="110" on="0"/>
        <pt x="443" y="204" on="1"/>
        <pt x="443" y="634" on="1"/>
        <pt x="152" y="634" on="1"/>
        <pt x="152" y="661" on="1"/>
        <pt x="475" y="661" on="1"/>
        <pt x="475" y="201" on="1"/>
        <pt x="475" y="157" on="0"/>
        <pt x="455" y="79" on="0"/>
        <pt x="409" y="21" on="0"/>
        <pt x="334" y="-12" on="0"/>
        <pt x="278" y="-12" on="1"/>
        <pt x="221" y="-12" on="0"/>
        <pt x="125" y="43" on="0"/>
        <pt x="98" y="98" on="1"/>
      </contour>
    </TTGlyph>
    <TTGlyph name="Jcircumflex" xMin="98" yMin="-12" xMax="475" yMax="814">
      <component glyphName="J" x="0" y="0" flags="0x204"/>
      <component glyphName="uni0302.cap" x="20" y="0" flags="0x4"/>
    </TTGlyph>
    <TTGlyph name="K" xMin="122" yMin="0" xMax="568" yMax="660">
      <contour>
        <pt x="122" y="660" on="1"/>
        <pt x="154" y="660" on="1"/>
        <pt x="154" y="280" on="1"/>
        <pt x="156" y="280" on="1"/>
        <pt x="500" y="660" on="1"/>
        <pt x="539" y="660" on="1"/>
        <pt x="323" y="418" on="1"/>
        <pt x="568" y="0" on="1"/>
        <pt x="530" y="0" on="1"/>
        <pt x="299" y="394" on="1"/>
        <pt x="154" y="234" on="1"/>
        <pt x="154" y="0" on="1"/>
        <pt x="122" y="0" on="1"/>
      </contour>
    </TTGlyph>
    <TTGlyph name="L" xMin="156" yMin="0" xMax="538" yMax="660">
      <contour>
        <pt x="156" y="660" on="1"/>
        <pt x="186" y="660" on="1"/>
        <pt x="186" y="28" on="1"/>
        <pt x="538" y="28" on="1"/>
        <pt x="538" y="0" on="1"/>
        <pt x="156" y="0" on="1"/>
      </contour>
    </TTGlyph>
    <TTGlyph name="Lacute" xMin="155" yMin="0" xMax="538" yMax="814">
      <component glyphName="L" x="0" y="0" flags="0x204"/>
      <component glyphName="uni0301.cap" x="-113" y="0" flags="0x4"/>
    </TTGlyph>
    <TTGlyph name="Lcaron" xMin="156" yMin="0" xMax="538" yMax="723">
      <component glyphName="L" x="0" y="0" flags="0x204"/>
      <component glyphName="uni030C.a" x="120" y="-29" flags="0x4"/>
    </TTGlyph>
    <TTGlyph name="Ldot" xMin="156" yMin="0" xMax="538" yMax="660">
      <component glyphName="L" x="0" y="0" flags="0x204"/>
      <component glyphName="uni0307" x="112" y="-299" flags="0x4"/>
    </TTGlyph>
    <TTGlyph name="Lslash" xMin="69" yMin="0" xMax="538" yMax="660">
      <contour>
        <pt x="538" y="28" on="1"/>
        <pt x="538" y="0" on="1"/>
        <pt x="156" y="0" on="1"/>
        <pt x="156" y="251" on="1"/>
        <pt x="69" y="206" on="1"/>
        <pt x="69" y="236" on="1"/>
        <pt x="156" y="281" on="1"/>
        <pt x="156" y="660" on="1"/>
        <pt x="186" y="660" on="1"/>
        <pt x="186" y="295" on="1"/>
        <pt x="427" y="420" on="1"/>
        <pt x="427" y="390" on="1"/>
        <pt x="186" y="265" on="1"/>
        <pt x="186" y="28" on="1"/>
      </contour>
    </TTGlyph>
    <TTGlyph name="M" xMin="95" yMin="0" xMax="505" yMax="660">
      <contour>
        <pt x="95" y="660" on="1"/>
        <pt x="141" y="660" on="1"/>
        <pt x="257" y="342" on="1"/>
        <pt x="299" y="222" on="1"/>
        <pt x="303" y="222" on="1"/>
        <pt x="343" y="342" on="1"/>
        <pt x="459" y="660" on="1"/>
        <pt x="505" y="660" on="1"/>
        <pt x="505" y="0" on="1"/>
        <pt x="473" y="0" on="1"/>
        <pt x="473" y="495" on="1"/>
        <pt x="473" y="526" on="0"/>
        <pt x="475" y="592" on="0"/>
        <pt x="476" y="623" on="1"/>
        <pt x="473" y="623" on="1"/>
        <pt x="437" y="513" on="1"/>
        <pt x="314" y="181" on="1"/>
        <pt x="287" y="181" on="1"/>
        <pt x="163" y="513" on="1"/>
        <pt x="124" y="623" on="1"/>
        <pt x="122" y="623" on="1"/>
        <pt x="123" y="592" on="0"/>
        <pt x="126" y="526" on="0"/>
        <pt x="126" y="495" on="1"/>
        <pt x="126" y="0" on="1"/>
        <pt x="95" y="0" on="1"/>
      </contour>
    </TTGlyph>
    <TTGlyph name="N" xMin="96" yMin="0" xMax="504" yMax="660">
      <contour>
        <pt x="96" y="660" on="1"/>
        <pt x="129" y="660" on="1"/>
        <pt x="403" y="174" on="1"/>
        <pt x="476" y="46" on="1"/>
        <pt x="478" y="46" on="1"/>
        <pt x="477" y="94" on="0"/>
        <pt x="474" y="184" on="0"/>
        <pt x="474" y="231" on="1"/>
        <pt x="474" y="660" on="1"/>
        <pt x="504" y="660" on="1"/>
        <pt x="504" y="0" on="1"/>
        <pt x="471" y="0" on="1"/>
        <pt x="197" y="486" on="1"/>
        <pt x="124" y="614" on="1"/>
        <pt x="122" y="614" on="1"/>
        <pt x="123" y="566" on="0"/>
        <pt x="126" y="480" on="0"/>
        <pt x="126" y="433" on="1"/>
        <pt x="126" y="0" on="1"/>
        <pt x="96" y="0" on="1"/>
      </contour>
    </TTGlyph>
    <TTGlyph name="Nacute" xMin="96" yMin="0" xMax="504" yMax="814">
      <component glyphName="N" x="0" y="0" flags="0x204"/>
      <component glyphName="uni0301.cap" x="6" y="0" flags="0x4"/>
    </TTGlyph>
    <TTGlyph name="Ncaron" xMin="96" yMin="0" xMax="504" yMax="814">
      <component glyphName="N" x="0" y="0" flags="0x204"/>
      <component glyphName="uni030C.cap" x="6" y="0" flags="0x4"/>
    </TTGlyph>
    <TTGlyph name="Ntilde" xMin="96" yMin="0" xMax="504" yMax="804">
      <component glyphName="N" x="0" y="0" flags="0x204"/>
      <component glyphName="uni0303.cap" x="6" y="0" flags="0x4"/>
    </TTGlyph>
    <TTGlyph name="O" xMin="56" yMin="-12" xMax="544" yMax="672">
      <contour>
        <pt x="300" y="-12" on="1"/>
        <pt x="247" y="-12" on="0"/>
        <pt x="157" y="37" on="0"/>
        <pt x="92" y="127" on="0"/>
        <pt x="56" y="254" on="0"/>
        <pt x="56" y="332" on="1"/>
        <pt x="56" y="410" on="0"/>
        <pt x="92" y="536" on="0"/>
        <pt x="157" y="624" on="0"/>
        <pt x="247" y="672" on="0"/>
        <pt x="300" y="672" on="1"/>
        <pt x="353" y="672" on="0"/>
        <pt x="443" y="624" on="0"/>
        <pt x="508" y="536" on="0"/>
        <pt x="544" y="410" on="0"/>
        <pt x="544" y="332" on="1"/>
        <pt x="544" y="254" on="0"/>
        <pt x="508" y="127" on="0"/>
        <pt x="443" y="37" on="0"/>
        <pt x="353" y="-12" on="0"/>
      </contour>
      <contour>
        <pt x="300" y="18" on="1"/>
        <pt x="347" y="18" on="0"/>
        <pt x="424" y="63" on="0"/>
        <pt x="480" y="145" on="0"/>
        <pt x="510" y="261" on="0"/>
        <pt x="510" y="332" on="1"/>
        <pt x="510" y="403" on="0"/>
        <pt x="480" y="518" on="0"/>
        <pt x="424" y="599" on="0"/>
        <pt x="347" y="642" on="0"/>
        <pt x="300" y="642" on="1"/>
        <pt x="253" y="642" on="0"/>
        <pt x="176" y="599" on="0"/>
        <pt x="120" y="518" on="0"/>
        <pt x="90" y="403" on="0"/>
        <pt x="90" y="332" on="1"/>
        <pt x="90" y="261" on="0"/>
        <pt x="120" y="145" on="0"/>
        <pt x="176" y="63" on="0"/>
        <pt x="253" y="18" on="0"/>
      </contour>
    </TTGlyph>
    <TTGlyph name="OE" xMin="44" yMin="0" xMax="588" yMax="661">
      <contour>
        <pt x="44" y="332" on="1"/>
        <pt x="44" y="406" on="0"/>
        <pt x="76" y="527" on="0"/>
        <pt x="141" y="614" on="0"/>
        <pt x="237" y="661" on="0"/>
        <pt x="302" y="661" on="1"/>
        <pt x="578" y="661" on="1"/>
        <pt x="578" y="634" on="1"/>
        <pt x="356" y="634" on="1"/>
        <pt x="356" y="366" on="1"/>
        <pt x="526" y="366" on="1"/>
        <pt x="526" y="338" on="1"/>
        <pt x="356" y="338" on="1"/>
        <pt x="356" y="28" on="1"/>
        <pt x="588" y="28" on="1"/>
        <pt x="588" y="0" on="1"/>
        <pt x="303" y="0" on="1"/>
        <pt x="238" y="0" on="0"/>
        <pt x="141" y="49" on="0"/>
        <pt x="77" y="136" on="0"/>
        <pt x="44" y="258" on="0"/>
      </contour>
      <contour>
        <pt x="77" y="332" on="1"/>
        <pt x="77" y="267" on="0"/>
        <pt x="103" y="155" on="0"/>
        <pt x="157" y="74" on="0"/>
        <pt x="240" y="28" on="0"/>
        <pt x="298" y="28" on="1"/>
        <pt x="323" y="28" on="1"/>
        <pt x="323" y="633" on="1"/>
        <pt x="298" y="633" on="1"/>
        <pt x="240" y="633" on="0"/>
        <pt x="157" y="588" on="0"/>
        <pt x="103" y="508" on="0"/>
        <pt x="77" y="398" on="0"/>
      </contour>
    </TTGlyph>
    <TTGlyph name="Oacute" xMin="56" yMin="-12" xMax="544" yMax="814">
      <component glyphName="O" x="0" y="0" flags="0x204"/>
      <component glyphName="uni0301.cap" x="0" y="0" flags="0x4"/>
    </TTGlyph>
    <TTGlyph name="Ocircumflex" xMin="56" yMin="-12" xMax="544" yMax="814">
      <component glyphName="O" x="0" y="0" flags="0x204"/>
      <component glyphName="uni0302.cap" x="0" y="0" flags="0x4"/>
    </TTGlyph>
    <TTGlyph name="Odieresis" xMin="56" yMin="-12" xMax="544" yMax="792">
      <component glyphName="O" x="0" y="0" flags="0x204"/>
      <component glyphName="uni0308.cap" x="0" y="0" flags="0x4"/>
    </TTGlyph>
    <TTGlyph name="Ograve" xMin="56" yMin="-12" xMax="544" yMax="814">
      <component glyphName="O" x="0" y="0" flags="0x204"/>
      <component glyphName="uni0300.cap" x="0" y="0" flags="0x4"/>
    </TTGlyph>
    <TTGlyph name="Ohorn" xMin="56" yMin="-12" xMax="544" yMax="764">
      <contour>
        <pt x="300" y="18" on="1"/>
        <pt x="347" y="18" on="0"/>
        <pt x="424" y="63" on="0"/>
        <pt x="480" y="145" on="0"/>
        <pt x="510" y="261" on="0"/>
        <pt x="510" y="332" on="1"/>
        <pt x="510" y="403" on="0"/>
        <pt x="480" y="518" on="0"/>
        <pt x="424" y="599" on="0"/>
        <pt x="347" y="642" on="0"/>
        <pt x="300" y="642" on="1"/>
        <pt x="253" y="642" on="0"/>
        <pt x="176" y="599" on="0"/>
        <pt x="120" y="518" on="0"/>
        <pt x="90" y="403" on="0"/>
        <pt x="90" y="332" on="1"/>
        <pt x="90" y="261" on="0"/>
        <pt x="120" y="145" on="0"/>
        <pt x="176" y="63" on="0"/>
        <pt x="253" y="18" on="0"/>
      </contour>
      <contour>
        <pt x="518" y="764" on="1"/>
        <pt x="536" y="737" on="0"/>
        <pt x="536" y="712" on="1"/>
        <pt x="536" y="673" on="0"/>
        <pt x="484" y="629" on="0"/>
        <pt x="440" y="619" on="1"/>
        <pt x="488" y="576" on="0"/>
        <pt x="544" y="430" on="0"/>
        <pt x="544" y="332" on="1"/>
        <pt x="544" y="254" on="0"/>
        <pt x="508" y="127" on="0"/>
        <pt x="443" y="37" on="0"/>
        <pt x="353" y="-12" on="0"/>
        <pt x="300" y="-12" on="1"/>
        <pt x="247" y="-12" on="0"/>
        <pt x="157" y="37" on="0"/>
        <pt x="92" y="127" on="0"/>
        <pt x="56" y="254" on="0"/>
        <pt x="56" y="332" on="1"/>
        <pt x="56" y="410" on="0"/>
        <pt x="92" y="536" on="0"/>
        <pt x="157" y="624" on="0"/>
        <pt x="247" y="672" on="0"/>
        <pt x="300" y="672" on="1"/>
        <pt x="362" y="672" on="0"/>
        <pt x="411" y="640" on="1"/>
        <pt x="461" y="647" on="0"/>
        <pt x="506" y="681" on="0"/>
        <pt x="506" y="710" on="1"/>
        <pt x="506" y="728" on="0"/>
        <pt x="492" y="748" on="1"/>
      </contour>
    </TTGlyph>
    <TTGlyph name="Ohungarumlaut" xMin="56" yMin="-12" xMax="544" yMax="814">
      <component glyphName="O" x="0" y="0" flags="0x204"/>
      <component glyphName="uni030B.cap" x="0" y="0" flags="0x4"/>
    </TTGlyph>
    <TTGlyph name="Omacron" xMin="56" yMin="-12" xMax="544" yMax="764">
      <component glyphName="O" x="0" y="0" flags="0x204"/>
      <component glyphName="uni0304.cap" x="0" y="0" flags="0x4"/>
    </TTGlyph>
    <TTGlyph name="Oslash" xMin="56" yMin="-20" xMax="544" yMax="680">
      <contour>
        <pt x="156" y="93" on="1"/>
        <pt x="183" y="57" on="0"/>
        <pt x="256" y="18" on="0"/>
        <pt x="300" y="18" on="1"/>
        <pt x="347" y="18" on="0"/>
        <pt x="424" y="63" on="0"/>
        <pt x="480" y="145" on="0"/>
        <pt x="510" y="261" on="0"/>
        <pt x="510" y="332" on="1"/>
        <pt x="510" y="398" on="0"/>
        <pt x="484" y="507" on="0"/>
        <pt x="459" y="547" on="1"/>
      </contour>
      <contour>
        <pt x="443" y="571" on="1"/>
        <pt x="387" y="642" on="0"/>
        <pt x="300" y="642" on="1"/>
        <pt x="253" y="642" on="0"/>
        <pt x="176" y="599" on="0"/>
        <pt x="120" y="518" on="0"/>
        <pt x="90" y="403" on="0"/>
        <pt x="90" y="332" on="1"/>
        <pt x="90" y="266" on="0"/>
        <pt x="116" y="158" on="0"/>
        <pt x="139" y="118" on="1"/>
      </contour>
      <contour>
        <pt x="479" y="575" on="1"/>
        <pt x="510" y="531" on="0"/>
        <pt x="544" y="408" on="0"/>
        <pt x="544" y="332" on="1"/>
        <pt x="544" y="254" on="0"/>
        <pt x="508" y="127" on="0"/>
        <pt x="443" y="37" on="0"/>
        <pt x="353" y="-12" on="0"/>
        <pt x="300" y="-12" on="1"/>
        <pt x="252" y="-12" on="0"/>
        <pt x="169" y="28" on="0"/>
        <pt x="137" y="66" on="1"/>
        <pt x="80" y="-20" on="1"/>
        <pt x="58" y="-4" on="1"/>
        <pt x="120" y="89" on="1"/>
        <pt x="90" y="134" on="0"/>
        <pt x="56" y="257" on="0"/>
        <pt x="56" y="332" on="1"/>
        <pt x="56" y="410" on="0"/>
        <pt x="92" y="536" on="0"/>
        <pt x="157" y="624" on="0"/>
        <pt x="247" y="672" on="0"/>
        <pt x="300" y="672" on="1"/>
        <pt x="396" y="672" on="0"/>
        <pt x="461" y="598" on="1"/>
        <pt x="516" y="680" on="1"/>
        <pt x="538" y="664" on="1"/>
      </contour>
    </TTGlyph>
    <TTGlyph name="Otilde" xMin="56" yMin="-12" xMax="544" yMax="804">
      <component glyphName="O" x="0" y="0" flags="0x204"/>
      <component glyphName="uni0303.cap" x="0" y="0" flags="0x4"/>
    </TTGlyph>
    <TTGlyph name="P" xMin="124" yMin="0" xMax="528" yMax="660">
      <contour>
        <pt x="124" y="660" on="1"/>
        <pt x="296" y="660" on="1"/>
        <pt x="407" y="660" on="0"/>
        <pt x="528" y="579" on="0"/>
        <pt x="528" y="480" on="1"/>
        <pt x="528" y="385" on="0"/>
        <pt x="408" y="292" on="0"/>
        <pt x="296" y="292" on="1"/>
        <pt x="156" y="292" on="1"/>
        <pt x="156" y="0" on="1"/>
        <pt x="124" y="0" on="1"/>
      </contour>
      <contour>
        <pt x="284" y="320" on="1"/>
        <pt x="391" y="320" on="0"/>
        <pt x="494" y="394" on="0"/>
        <pt x="494" y="480" on="1"/>
        <pt x="494" y="567" on="0"/>
        <pt x="390" y="632" on="0"/>
        <pt x="284" y="632" on="1"/>
        <pt x="156" y="632" on="1"/>
        <pt x="156" y="320" on="1"/>
      </contour>
    </TTGlyph>
    <TTGlyph name="Q" xMin="60" yMin="-150" xMax="540" yMax="673">
      <contour>
        <pt x="92" y="332" on="1"/>
        <pt x="92" y="261" on="0"/>
        <pt x="121" y="145" on="0"/>
        <pt x="175" y="62" on="0"/>
        <pt x="252" y="16" on="0"/>
        <pt x="300" y="16" on="1"/>
        <pt x="348" y="16" on="0"/>
        <pt x="425" y="62" on="0"/>
        <pt x="479" y="145" on="0"/>
        <pt x="508" y="261" on="0"/>
        <pt x="508" y="332" on="1"/>
        <pt x="508" y="403" on="0"/>
        <pt x="479" y="519" on="0"/>
        <pt x="425" y="601" on="0"/>
        <pt x="348" y="645" on="0"/>
        <pt x="300" y="645" on="1"/>
        <pt x="252" y="645" on="0"/>
        <pt x="175" y="601" on="0"/>
        <pt x="121" y="519" on="0"/>
        <pt x="92" y="403" on="0"/>
      </contour>
      <contour>
        <pt x="532" y="-142" on="1"/>
        <pt x="516" y="-146" on="0"/>
        <pt x="489" y="-150" on="0"/>
        <pt x="475" y="-150" on="1"/>
        <pt x="435" y="-150" on="0"/>
        <pt x="372" y="-129" on="0"/>
        <pt x="324" y="-91" on="0"/>
        <pt x="291" y="-40" on="0"/>
        <pt x="281" y="-11" on="1"/>
        <pt x="231" y="-7" on="0"/>
        <pt x="150" y="46" on="0"/>
        <pt x="92" y="135" on="0"/>
        <pt x="60" y="258" on="0"/>
        <pt x="60" y="332" on="1"/>
        <pt x="60" y="410" on="0"/>
        <pt x="95" y="536" on="0"/>
        <pt x="158" y="625" on="0"/>
        <pt x="246" y="673" on="0"/>
        <pt x="300" y="673" on="1"/>
        <pt x="354" y="673" on="0"/>
        <pt x="442" y="625" on="0"/>
        <pt x="505" y="536" on="0"/>
        <pt x="540" y="410" on="0"/>
        <pt x="540" y="332" on="1"/>
        <pt x="540" y="257" on="0"/>
        <pt x="508" y="134" on="0"/>
        <pt x="449" y="45" on="0"/>
        <pt x="367" y="-7" on="0"/>
        <pt x="317" y="-11" on="1"/>
        <pt x="334" y="-61" on="0"/>
        <pt x="413" y="-117" on="0"/>
        <pt x="479" y="-117" on="1"/>
        <pt x="494" y="-117" on="0"/>
        <pt x="517" y="-113" on="0"/>
        <pt x="525" y="-110" on="1"/>
      </contour>
    </TTGlyph>
    <TTGlyph name="R" xMin="124" yMin="0" xMax="528" yMax="660">
      <contour>
        <pt x="294" y="340" on="1"/>
        <pt x="386" y="340" on="0"/>
        <pt x="484" y="413" on="0"/>
        <pt x="484" y="490" on="1"/>
        <pt x="484" y="568" on="0"/>
        <pt x="386" y="632" on="0"/>
        <pt x="294" y="632" on="1"/>
        <pt x="156" y="632" on="1"/>
        <pt x="156" y="340" on="1"/>
      </contour>
      <contour>
        <pt x="490" y="0" on="1"/>
        <pt x="304" y="312" on="1"/>
        <pt x="156" y="312" on="1"/>
        <pt x="156" y="0" on="1"/>
        <pt x="124" y="0" on="1"/>
        <pt x="124" y="660" on="1"/>
        <pt x="306" y="660" on="1"/>
        <pt x="355" y="660" on="0"/>
        <pt x="433" y="641" on="0"/>
        <pt x="488" y="600" on="0"/>
        <pt x="518" y="536" on="0"/>
        <pt x="518" y="490" on="1"/>
        <pt x="518" y="411" on="0"/>
        <pt x="423" y="322" on="0"/>
        <pt x="340" y="314" on="1"/>
        <pt x="528" y="0" on="1"/>
      </contour>
    </TTGlyph>
    <TTGlyph name="Racute" xMin="124" yMin="0" xMax="528" yMax="814">
      <component glyphName="R" x="0" y="0" flags="0x204"/>
      <component glyphName="uni0301.cap" x="6" y="0" flags="0x4"/>
    </TTGlyph>
    <TTGlyph name="Rcaron" xMin="124" yMin="0" xMax="528" yMax="814">
      <component glyphName="R" x="0" y="0" flags="0x204"/>
      <component glyphName="uni030C.cap" x="6" y="0" flags="0x4"/>
    </TTGlyph>
    <TTGlyph name="S" xMin="80" yMin="-12" xMax="526" yMax="672">
      <contour>
        <pt x="102" y="110" on="1"/>
        <pt x="140" y="68" on="0"/>
        <pt x="247" y="18" on="0"/>
        <pt x="310" y="18" on="1"/>
        <pt x="352" y="18" on="0"/>
        <pt x="420" y="39" on="0"/>
        <pt x="468" y="76" on="0"/>
        <pt x="494" y="128" on="0"/>
        <pt x="494" y="160" on="1"/>
        <pt x="494" y="193" on="0"/>
        <pt x="473" y="238" on="0"/>
        <pt x="437" y="271" on="0"/>
        <pt x="389" y="295" on="0"/>
        <pt x="362" y="306" on="1"/>
        <pt x="260" y="352" on="1"/>
        <pt x="237" y="361" on="0"/>
        <pt x="187" y="387" on="0"/>
        <pt x="144" y="424" on="0"/>
        <pt x="116" y="477" on="0"/>
        <pt x="116" y="514" on="1"/>
        <pt x="116" y="549" on="0"/>
        <pt x="146" y="607" on="0"/>
        <pt x="198" y="649" on="0"/>
        <pt x="270" y="672" on="0"/>
        <pt x="312" y="672" on="1"/>
        <pt x="375" y="672" on="0"/>
        <pt x="472" y="625" on="0"/>
        <pt x="502" y="594" on="1"/>
        <pt x="482" y="572" on="1"/>
        <pt x="452" y="604" on="0"/>
        <pt x="366" y="642" on="0"/>
        <pt x="312" y="642" on="1"/>
        <pt x="238" y="642" on="0"/>
        <pt x="148" y="573" on="0"/>
        <pt x="148" y="516" on="1"/>
        <pt x="148" y="485" on="0"/>
        <pt x="173" y="442" on="0"/>
        <pt x="211" y="411" on="0"/>
        <pt x="255" y="390" on="0"/>
        <pt x="274" y="382" on="1"/>
        <pt x="376" y="336" on="1"/>
        <pt x="405" y="324" on="0"/>
        <pt x="459" y="295" on="0"/>
        <pt x="501" y="255" on="0"/>
        <pt x="526" y="200" on="0"/>
        <pt x="526" y="162" on="1"/>
        <pt x="526" y="124" on="0"/>
        <pt x="495" y="61" on="0"/>
        <pt x="438" y="14" on="0"/>
        <pt x="359" y="-12" on="0"/>
        <pt x="310" y="-12" on="1"/>
        <pt x="233" y="-12" on="0"/>
        <pt x="119" y="44" on="0"/>
        <pt x="80" y="88" on="1"/>
      </contour>
    </TTGlyph>
    <TTGlyph name="Sacute" xMin="80" yMin="-12" xMax="526" yMax="814">
      <component glyphName="S" x="0" y="0" flags="0x204"/>
      <component glyphName="uni0301.cap" x="14" y="0" flags="0x4"/>
    </TTGlyph>
    <TTGlyph name="Scaron" xMin="80" yMin="-12" xMax="526" yMax="814">
      <component glyphName="S" x="0" y="0" flags="0x204"/>
      <component glyphName="uni030C.cap" x="14" y="0" flags="0x4"/>
    </TTGlyph>
    <TTGlyph name="Scircumflex" xMin="80" yMin="-12" xMax="526" yMax="814">
      <component glyphName="S" x="0" y="0" flags="0x204"/>
      <component glyphName="uni0302.cap" x="14" y="0" flags="0x4"/>
    </TTGlyph>
    <TTGlyph name="T" xMin="50" yMin="0" xMax="550" yMax="660">
      <contour>
        <pt x="284" y="632" on="1"/>
        <pt x="50" y="632" on="1"/>
        <pt x="50" y="660" on="1"/>
        <pt x="550" y="660" on="1"/>
        <pt x="550" y="632" on="1"/>
        <pt x="316" y="632" on="1"/>
        <pt x="316" y="0" on="1"/>
        <pt x="284" y="0" on="1"/>
      </contour>
    </TTGlyph>
    <TTGlyph name="Tcaron" xMin="50" yMin="0" xMax="550" yMax="814">
      <component glyphName="T" x="0" y="0" flags="0x204"/>
      <component glyphName="uni030C.cap" x="0" y="0" flags="0x4"/>
    </TTGlyph>
    <TTGlyph name="Thorn" xMin="124" yMin="0" xMax="528" yMax="660">
      <contour>
        <pt x="124" y="660" on="1"/>
        <pt x="156" y="660" on="1"/>
        <pt x="156" y="540" on="1"/>
        <pt x="296" y="540" on="1"/>
        <pt x="407" y="540" on="0"/>
        <pt x="528" y="459" on="0"/>
        <pt x="528" y="360" on="1"/>
        <pt x="528" y="265" on="0"/>
        <pt x="408" y="172" on="0"/>
        <pt x="296" y="172" on="1"/>
        <pt x="156" y="172" on="1"/>
        <pt x="156" y="0" on="1"/>
        <pt x="124" y="0" on="1"/>
      </contour>
      <contour>
        <pt x="284" y="200" on="1"/>
        <pt x="391" y="200" on="0"/>
        <pt x="494" y="274" on="0"/>
        <pt x="494" y="360" on="1"/>
        <pt x="494" y="447" on="0"/>
        <pt x="390" y="512" on="0"/>
        <pt x="284" y="512" on="1"/>
        <pt x="156" y="512" on="1"/>
        <pt x="156" y="200" on="1"/>
      </contour>
    </TTGlyph>
    <TTGlyph name="U" xMin="92" yMin="-12" xMax="508" yMax="660">
      <contour>
        <pt x="92" y="660" on="1"/>
        <pt x="124" y="660" on="1"/>
        <pt x="124" y="254" on="1"/>
        <pt x="124" y="186" on="0"/>
        <pt x="153" y="95" on="0"/>
        <pt x="202" y="41" on="0"/>
        <pt x="265" y="18" on="0"/>
        <pt x="300" y="18" on="1"/>
        <pt x="335" y="18" on="0"/>
        <pt x="400" y="41" on="0"/>
        <pt x="449" y="95" on="0"/>
        <pt x="478" y="186" on="0"/>
        <pt x="478" y="254" on="1"/>
        <pt x="478" y="660" on="1"/>
        <pt x="508" y="660" on="1"/>
        <pt x="508" y="246" on="1"/>
        <pt x="508" y="169" on="0"/>
        <pt x="472" y="70" on="0"/>
        <pt x="414" y="11" on="0"/>
        <pt x="339" y="-12" on="0"/>
        <pt x="300" y="-12" on="1"/>
        <pt x="261" y="-12" on="0"/>
        <pt x="186" y="11" on="0"/>
        <pt x="128" y="70" on="0"/>
        <pt x="92" y="169" on="0"/>
        <pt x="92" y="246" on="1"/>
      </contour>
    </TTGlyph>
    <TTGlyph name="Uacute" xMin="92" yMin="-12" xMax="508" yMax="814">
      <component glyphName="U" x="0" y="0" flags="0x204"/>
      <component glyphName="uni0301.cap" x="0" y="0" flags="0x4"/>
    </TTGlyph>
    <TTGlyph name="Ubreve" xMin="92" yMin="-12" xMax="508" yMax="814">
      <component glyphName="U" x="0" y="0" flags="0x204"/>
      <component glyphName="uni0306.cap" x="0" y="0" flags="0x4"/>
    </TTGlyph>
    <TTGlyph name="Ucircumflex" xMin="92" yMin="-12" xMax="508" yMax="814">
      <component glyphName="U" x="0" y="0" flags="0x204"/>
      <component glyphName="uni0302.cap" x="0" y="0" flags="0x4"/>
    </TTGlyph>
    <TTGlyph name="Udieresis" xMin="92" yMin="-12" xMax="508" yMax="792">
      <component glyphName="U" x="0" y="0" flags="0x204"/>
      <component glyphName="uni0308.cap" x="0" y="0" flags="0x4"/>
    </TTGlyph>
    <TTGlyph name="Ugrave" xMin="92" yMin="-12" xMax="508" yMax="814">
      <component glyphName="U" x="0" y="0" flags="0x204"/>
      <component glyphName="uni0300.cap" x="0" y="0" flags="0x4"/>
    </TTGlyph>
    <TTGlyph name="Uhorn" xMin="92" yMin="-12" xMax="606" yMax="784">
      <contour>
        <pt x="588" y="784" on="1"/>
        <pt x="606" y="757" on="0"/>
        <pt x="606" y="732" on="1"/>
        <pt x="606" y="709" on="0"/>
        <pt x="589" y="678" on="0"/>
        <pt x="562" y="656" on="0"/>
        <pt x="527" y="642" on="0"/>
        <pt x="508" y="638" on="1"/>
        <pt x="508" y="246" on="1"/>
        <pt x="508" y="169" on="0"/>
        <pt x="472" y="70" on="0"/>
        <pt x="414" y="11" on="0"/>
        <pt x="339" y="-12" on="0"/>
        <pt x="300" y="-12" on="1"/>
        <pt x="261" y="-12" on="0"/>
        <pt x="186" y="11" on="0"/>
        <pt x="128" y="70" on="0"/>
        <pt x="92" y="169" on="0"/>
        <pt x="92" y="246" on="1"/>
        <pt x="92" y="660" on="1"/>
        <pt x="124" y="660" on="1"/>
        <pt x="124" y="254" on="1"/>
        <pt x="124" y="186" on="0"/>
        <pt x="153" y="95" on="0"/>
        <pt x="202" y="41" on="0"/>
        <pt x="265" y="18" on="0"/>
        <pt x="300" y="18" on="1"/>
        <pt x="335" y="18" on="0"/>
        <pt x="400" y="41" on="0"/>
        <pt x="449" y="95" on="0"/>
        <pt x="478" y="186" on="0"/>
        <pt x="478" y="254" on="1"/>
        <pt x="478" y="660" on="1"/>
        <pt x="484" y="660" on="1"/>
        <pt x="532" y="668" on="0"/>
        <pt x="576" y="700" on="0"/>
        <pt x="576" y="730" on="1"/>
        <pt x="576" y="748" on="0"/>
        <pt x="562" y="768" on="1"/>
      </contour>
    </TTGlyph>
    <TTGlyph name="Uhungarumlaut" xMin="92" yMin="-12" xMax="508" yMax="814">
      <component glyphName="U" x="0" y="0" flags="0x204"/>
      <component glyphName="uni030B.cap" x="0" y="0" flags="0x4"/>
    </TTGlyph>
    <TTGlyph name="Umacron" xMin="92" yMin="-12" xMax="508" yMax="764">
      <component glyphName="U" x="0" y="0" flags="0x204"/>
      <component glyphName="uni0304.cap" x="0" y="0" flags="0x4"/>
    </TTGlyph>
    <TTGlyph name="Uogonek" xMin="92" yMin="-202" xMax="508" yMax="660">
      <contour>
        <pt x="92" y="660" on="1"/>
        <pt x="124" y="660" on="1"/>
        <pt x="124" y="254" on="1"/>
        <pt x="124" y="186" on="0"/>
        <pt x="153" y="95" on="0"/>
        <pt x="201" y="41" on="0"/>
        <pt x="264" y="18" on="0"/>
        <pt x="299" y="18" on="1"/>
        <pt x="334" y="18" on="0"/>
        <pt x="399" y="41" on="0"/>
        <pt x="448" y="95" on="0"/>
        <pt x="478" y="186" on="0"/>
        <pt x="478" y="254" on="1"/>
        <pt x="478" y="660" on="1"/>
        <pt x="508" y="660" on="1"/>
        <pt x="508" y="246" on="1"/>
        <pt x="508" y="191" on="0"/>
        <pt x="488" y="109" on="0"/>
        <pt x="455" y="51" on="0"/>
        <pt x="409" y="13" on="0"/>
        <pt x="384" y="2" on="1"/>
        <pt x="336" y="-19" on="0"/>
        <pt x="278" y="-88" on="0"/>
        <pt x="278" y="-120" on="1"/>
        <pt x="278" y="-147" on="0"/>
        <pt x="310" y="-174" on="0"/>
        <pt x="330" y="-174" on="1"/>
        <pt x="344" y="-174" on="0"/>
        <pt x="363" y="-168" on="0"/>
        <pt x="374" y="-160" on="1"/>
        <pt x="388" y="-180" on="1"/>
        <pt x="377" y="-189" on="0"/>
        <pt x="343" y="-202" on="0"/>
        <pt x="328" y="-202" on="1"/>
        <pt x="295" y="-202" on="0"/>
        <pt x="248" y="-163" on="0"/>
        <pt x="248" y="-122" on="1"/>
        <pt x="248" y="-103" on="0"/>
        <pt x="260" y="-73" on="0"/>
        <pt x="278" y="-47" on="0"/>
        <pt x="302" y="-23" on="0"/>
        <pt x="314" y="-11" on="1"/>
        <pt x="201" y="-15" on="0"/>
        <pt x="92" y="116" on="0"/>
        <pt x="92" y="246" on="1"/>
      </contour>
    </TTGlyph>
    <TTGlyph name="Uring" xMin="92" yMin="-12" xMax="508" yMax="860">
      <component glyphName="U" x="0" y="0" flags="0x204"/>
      <component glyphName="uni030A.cap" x="0" y="0" flags="0x4"/>
    </TTGlyph>
    <TTGlyph name="Utilde" xMin="92" yMin="-12" xMax="508" yMax="804">
      <component glyphName="U" x="0" y="0" flags="0x204"/>
      <component glyphName="uni0303.cap" x="0" y="0" flags="0x4"/>
    </TTGlyph>
    <TTGlyph name="V" xMin="65" yMin="0" xMax="535" yMax="660">
      <contour>
        <pt x="65" y="660" on="1"/>
        <pt x="99" y="660" on="1"/>
        <pt x="227" y="264" on="1"/>
        <pt x="237" y="233" on="0"/>
        <pt x="254" y="179" on="0"/>
        <pt x="271" y="126" on="0"/>
        <pt x="288" y="71" on="0"/>
        <pt x="299" y="41" on="1"/>
        <pt x="303" y="41" on="1"/>
        <pt x="313" y="71" on="0"/>
        <pt x="331" y="126" on="0"/>
        <pt x="348" y="179" on="0"/>
        <pt x="365" y="233" on="0"/>
        <pt x="375" y="264" on="1"/>
        <pt x="503" y="660" on="1"/>
        <pt x="535" y="660" on="1"/>
        <pt x="317" y="0" on="1"/>
        <pt x="285" y="0" on="1"/>
      </contour>
    </TTGlyph>
    <TTGlyph name="W" xMin="15" yMin="0" xMax="584" yMax="661">
      <contour>
        <pt x="15" y="661" on="1"/>
        <pt x="44" y="661" on="1"/>
        <pt x="122" y="196" on="1"/>
        <pt x="127" y="156" on="0"/>
        <pt x="140" y="78" on="0"/>
        <pt x="145" y="38" on="1"/>
        <pt x="147" y="38" on="1"/>
        <pt x="160" y="78" on="0"/>
        <pt x="184" y="156" on="0"/>
        <pt x="195" y="196" on="1"/>
        <pt x="283" y="488" on="1"/>
        <pt x="318" y="488" on="1"/>
        <pt x="408" y="196" on="1"/>
        <pt x="419" y="156" on="0"/>
        <pt x="442" y="77" on="0"/>
        <pt x="454" y="38" on="1"/>
        <pt x="458" y="38" on="1"/>
        <pt x="463" y="77" on="0"/>
        <pt x="476" y="156" on="0"/>
        <pt x="481" y="196" on="1"/>
        <pt x="556" y="661" on="1"/>
        <pt x="584" y="661" on="1"/>
        <pt x="475" y="0" on="1"/>
        <pt x="433" y="0" on="1"/>
        <pt x="332" y="331" on="1"/>
        <pt x="324" y="360" on="0"/>
        <pt x="310" y="416" on="0"/>
        <pt x="302" y="445" on="1"/>
        <pt x="299" y="445" on="1"/>
        <pt x="291" y="416" on="0"/>
        <pt x="276" y="360" on="0"/>
        <pt x="267" y="331" on="1"/>
        <pt x="169" y="0" on="1"/>
        <pt x="127" y="0" on="1"/>
      </contour>
    </TTGlyph>
    <TTGlyph name="Wacute" xMin="15" yMin="0" xMax="584" yMax="814">
      <component glyphName="W" x="0" y="0" flags="0x204"/>
      <component glyphName="uni0301.cap" x="0" y="0" flags="0x4"/>
    </TTGlyph>
    <TTGlyph name="Wcircumflex" xMin="15" yMin="0" xMax="584" yMax="814">
      <component glyphName="W" x="0" y="0" flags="0x204"/>
      <component glyphName="uni0302.cap" x="0" y="0" flags="0x4"/>
    </TTGlyph>
    <TTGlyph name="Wdieresis" xMin="15" yMin="0" xMax="584" yMax="792">
      <component glyphName="W" x="0" y="0" flags="0x204"/>
      <component glyphName="uni0308.cap" x="0" y="0" flags="0x4"/>
    </TTGlyph>
    <TTGlyph name="Wgrave" xMin="15" yMin="0" xMax="584" yMax="814">
      <component glyphName="W" x="0" y="0" flags="0x204"/>
      <component glyphName="uni0300.cap" x="0" y="0" flags="0x4"/>
    </TTGlyph>
    <TTGlyph name="X" xMin="83" yMin="0" xMax="517" yMax="660">
      <contour>
        <pt x="283" y="342" on="1"/>
        <pt x="97" y="660" on="1"/>
        <pt x="131" y="660" on="1"/>
        <pt x="247" y="456" on="1"/>
        <pt x="261" y="433" on="0"/>
        <pt x="284" y="395" on="0"/>
        <pt x="301" y="368" on="1"/>
        <pt x="305" y="368" on="1"/>
        <pt x="320" y="395" on="0"/>
        <pt x="341" y="433" on="0"/>
        <pt x="355" y="456" on="1"/>
        <pt x="471" y="660" on="1"/>
        <pt x="503" y="660" on="1"/>
        <pt x="317" y="340" on="1"/>
        <pt x="517" y="0" on="1"/>
        <pt x="483" y="0" on="1"/>
        <pt x="361" y="212" on="1"/>
        <pt x="347" y="236" on="0"/>
        <pt x="317" y="286" on="0"/>
        <pt x="299" y="316" on="1"/>
        <pt x="295" y="316" on="1"/>
        <pt x="278" y="286" on="0"/>
        <pt x="251" y="236" on="0"/>
        <pt x="237" y="212" on="1"/>
        <pt x="115" y="0" on="1"/>
        <pt x="83" y="0" on="1"/>
      </contour>
    </TTGlyph>
    <TTGlyph name="Y" xMin="56" yMin="0" xMax="544" yMax="660">
      <contour>
        <pt x="284" y="245" on="1"/>
        <pt x="56" y="660" on="1"/>
        <pt x="88" y="660" on="1"/>
        <pt x="212" y="434" on="1"/>
        <pt x="235" y="396" on="0"/>
        <pt x="277" y="318" on="0"/>
        <pt x="300" y="278" on="1"/>
        <pt x="304" y="278" on="1"/>
        <pt x="328" y="318" on="0"/>
        <pt x="372" y="396" on="0"/>
        <pt x="394" y="435" on="1"/>
        <pt x="514" y="660" on="1"/>
        <pt x="544" y="660" on="1"/>
        <pt x="316" y="245" on="1"/>
        <pt x="316" y="0" on="1"/>
        <pt x="284" y="0" on="1"/>
      </contour>
    </TTGlyph>
    <TTGlyph name="Yacute" xMin="56" yMin="0" xMax="544" yMax="814">
      <component glyphName="Y" x="0" y="0" flags="0x204"/>
      <component glyphName="uni0301.cap" x="0" y="0" flags="0x4"/>
    </TTGlyph>
    <TTGlyph name="Ycircumflex" xMin="56" yMin="0" xMax="544" yMax="814">
      <component glyphName="Y" x="0" y="0" flags="0x204"/>
      <component glyphName="uni0302.cap" x="0" y="0" flags="0x4"/>
    </TTGlyph>
    <TTGlyph name="Ydieresis" xMin="56" yMin="0" xMax="544" yMax="792">
      <component glyphName="Y" x="0" y="0" flags="0x204"/>
      <component glyphName="uni0308.cap" x="0" y="0" flags="0x4"/>
    </TTGlyph>
    <TTGlyph name="Ygrave" xMin="56" yMin="0" xMax="544" yMax="814">
      <component glyphName="Y" x="0" y="0" flags="0x204"/>
      <component glyphName="uni0300.cap" x="0" y="0" flags="0x4"/>
    </TTGlyph>
    <TTGlyph name="Z" xMin="72" yMin="0" xMax="533" yMax="661">
      <contour>
        <pt x="72" y="19" on="1"/>
        <pt x="488" y="634" on="1"/>
        <pt x="107" y="634" on="1"/>
        <pt x="107" y="661" on="1"/>
        <pt x="526" y="661" on="1"/>
        <pt x="526" y="642" on="1"/>
        <pt x="109" y="28" on="1"/>
        <pt x="533" y="28" on="1"/>
        <pt x="533" y="0" on="1"/>
        <pt x="72" y="0" on="1"/>
      </contour>
    </TTGlyph>
    <TTGlyph name="Zacute" xMin="72" yMin="0" xMax="533" yMax="814">
      <component glyphName="Z" x="0" y="0" flags="0x204"/>
      <component glyphName="uni0301.cap" x="16" y="0" flags="0x4"/>
    </TTGlyph>
    <TTGlyph name="Zcaron" xMin="72" yMin="0" xMax="533" yMax="814">
      <component glyphName="Z" x="0" y="0" flags="0x204"/>
      <component glyphName="uni030C.cap" x="16" y="0" flags="0x4"/>
    </TTGlyph>
    <TTGlyph name="Zdotaccent" xMin="72" yMin="0" xMax="533" yMax="794">
      <component glyphName="Z" x="0" y="0" flags="0x204"/>
      <component glyphName="uni0307.cap" x="16" y="0" flags="0x4"/>
    </TTGlyph>
    <TTGlyph name="a" xMin="96" yMin="-12" xMax="500" yMax="490">
      <contour>
        <pt x="96" y="117" on="1"/>
        <pt x="96" y="157" on="0"/>
        <pt x="139" y="217" on="0"/>
        <pt x="229" y="260" on="0"/>
        <pt x="371" y="289" on="0"/>
        <pt x="470" y="298" on="1"/>
        <pt x="470" y="329" on="0"/>
        <pt x="456" y="389" on="0"/>
        <pt x="423" y="434" on="0"/>
        <pt x="365" y="462" on="0"/>
        <pt x="322" y="462" on="1"/>
        <pt x="293" y="462" on="0"/>
        <pt x="239" y="449" on="0"/>
        <pt x="190" y="428" on="0"/>
        <pt x="150" y="404" on="0"/>
        <pt x="136" y="394" on="1"/>
        <pt x="120" y="418" on="1"/>
        <pt x="133" y="428" on="0"/>
        <pt x="175" y="453" on="0"/>
        <pt x="229" y="475" on="0"/>
        <pt x="292" y="490" on="0"/>
        <pt x="324" y="490" on="1"/>
        <pt x="372" y="490" on="0"/>
        <pt x="439" y="461" on="0"/>
        <pt x="481" y="411" on="0"/>
        <pt x="500" y="346" on="0"/>
        <pt x="500" y="310" on="1"/>
        <pt x="500" y="0" on="1"/>
        <pt x="474" y="0" on="1"/>
        <pt x="470" y="74" on="1"/>
        <pt x="468" y="74" on="1"/>
        <pt x="447" y="57" on="0"/>
        <pt x="398" y="26" on="0"/>
        <pt x="346" y="2" on="0"/>
        <pt x="291" y="-12" on="0"/>
        <pt x="264" y="-12" on="1"/>
        <pt x="232" y="-12" on="0"/>
        <pt x="172" y="3" on="0"/>
        <pt x="125" y="34" on="0"/>
        <pt x="96" y="83" on="0"/>
      </contour>
      <contour>
        <pt x="128" y="118" on="1"/>
        <pt x="128" y="90" on="0"/>
        <pt x="152" y="51" on="0"/>
        <pt x="191" y="27" on="0"/>
        <pt x="240" y="16" on="0"/>
        <pt x="266" y="16" on="1"/>
        <pt x="361" y="16" on="0"/>
        <pt x="470" y="108" on="1"/>
        <pt x="470" y="272" on="1"/>
        <pt x="373" y="263" on="0"/>
        <pt x="242" y="236" on="0"/>
        <pt x="162" y="198" on="0"/>
        <pt x="128" y="149" on="0"/>
      </contour>
    </TTGlyph>
    <TTGlyph name="a.a" xMin="70" yMin="-12" xMax="490" yMax="490">
      <component glyphName="uni0251" x="0" y="0" flags="0x204"/>
    </TTGlyph>
    <TTGlyph name="a.supa" xMin="144" yMin="252" xMax="426" yMax="585">
      <contour>
        <pt x="177" y="418" on="1"/>
        <pt x="177" y="355" on="0"/>
        <pt x="234" y="280" on="0"/>
        <pt x="288" y="280" on="1"/>
        <pt x="316" y="280" on="0"/>
        <pt x="368" y="306" on="0"/>
        <pt x="394" y="331" on="1"/>
        <pt x="394" y="517" on="1"/>
        <pt x="367" y="539" on="0"/>
        <pt x="320" y="557" on="0"/>
        <pt x="295" y="557" on="1"/>
        <pt x="270" y="557" on="0"/>
        <pt x="227" y="536" on="0"/>
        <pt x="195" y="498" on="0"/>
        <pt x="177" y="448" on="0"/>
      </contour>
      <contour>
        <pt x="144" y="418" on="1"/>
        <pt x="144" y="457" on="0"/>
        <pt x="168" y="518" on="0"/>
        <pt x="209" y="562" on="0"/>
        <pt x="263" y="585" on="0"/>
        <pt x="293" y="585" on="1"/>
        <pt x="323" y="585" on="0"/>
        <pt x="370" y="565" on="0"/>
        <pt x="394" y="547" on="1"/>
        <pt x="396" y="547" on="1"/>
        <pt x="398" y="577" on="1"/>
        <pt x="426" y="577" on="1"/>
        <pt x="426" y="260" on="1"/>
        <pt x="399" y="260" on="1"/>
        <pt x="395" y="301" on="1"/>
        <pt x="394" y="301" on="1"/>
        <pt x="373" y="281" on="0"/>
        <pt x="317" y="252" on="0"/>
        <pt x="283" y="252" on="1"/>
        <pt x="220" y="252" on="0"/>
        <pt x="144" y="337" on="0"/>
      </contour>
    </TTGlyph>
    <TTGlyph name="a.sups" xMin="178" yMin="252" xMax="434" yMax="585">
      <contour>
        <pt x="178" y="339" on="1"/>
        <pt x="178" y="393" on="0"/>
        <pt x="288" y="447" on="0"/>
        <pt x="402" y="459" on="1"/>
        <pt x="402" y="478" on="0"/>
        <pt x="395" y="514" on="0"/>
        <pt x="376" y="541" on="0"/>
        <pt x="344" y="558" on="0"/>
        <pt x="319" y="558" on="1"/>
        <pt x="284" y="558" on="0"/>
        <pt x="227" y="533" on="0"/>
        <pt x="208" y="521" on="1"/>
        <pt x="193" y="544" on="1"/>
        <pt x="212" y="556" on="0"/>
        <pt x="281" y="585" on="0"/>
        <pt x="322" y="585" on="1"/>
        <pt x="383" y="585" on="0"/>
        <pt x="434" y="514" on="0"/>
        <pt x="434" y="462" on="1"/>
        <pt x="434" y="260" on="1"/>
        <pt x="407" y="260" on="1"/>
        <pt x="404" y="301" on="1"/>
        <pt x="403" y="301" on="1"/>
        <pt x="377" y="281" on="0"/>
        <pt x="314" y="252" on="0"/>
        <pt x="280" y="252" on="1"/>
        <pt x="260" y="252" on="0"/>
        <pt x="223" y="263" on="0"/>
        <pt x="195" y="284" on="0"/>
        <pt x="178" y="317" on="0"/>
      </contour>
      <contour>
        <pt x="210" y="341" on="1"/>
        <pt x="210" y="308" on="0"/>
        <pt x="256" y="279" on="0"/>
        <pt x="286" y="279" on="1"/>
        <pt x="315" y="279" on="0"/>
        <pt x="371" y="305" on="0"/>
        <pt x="402" y="329" on="1"/>
        <pt x="402" y="435" on="1"/>
        <pt x="298" y="424" on="0"/>
        <pt x="210" y="378" on="0"/>
      </contour>
    </TTGlyph>
    <TTGlyph name="aacute" xMin="96" yMin="-12" xMax="500" yMax="706">
      <component glyphName="a" x="0" y="0" flags="0x204"/>
      <component glyphName="uni0301" x="18" y="0" flags="0x4"/>
    </TTGlyph>
    <TTGlyph name="aacute.a" xMin="70" yMin="-12" xMax="490" yMax="706">
      <component glyphName="uni0251" x="0" y="0" flags="0x204"/>
      <component glyphName="uni0301" x="2" y="0" flags="0x4"/>
    </TTGlyph>
    <TTGlyph name="abreve" xMin="96" yMin="-12" xMax="500" yMax="692">
      <component glyphName="a" x="0" y="0" flags="0x204"/>
      <component glyphName="uni0306" x="18" y="0" flags="0x4"/>
    </TTGlyph>
    <TTGlyph name="abreve.a" xMin="70" yMin="-12" xMax="490" yMax="692">
      <component glyphName="uni0251" x="0" y="0" flags="0x204"/>
      <component glyphName="uni0306" x="2" y="0" flags="0x4"/>
    </TTGlyph>
    <TTGlyph name="acircumflex" xMin="96" yMin="-12" xMax="500" yMax="706">
      <component glyphName="a" x="0" y="0" flags="0x204"/>
      <component glyphName="uni0302" x="18" y="0" flags="0x4"/>
    </TTGlyph>
    <TTGlyph name="acircumflex.a" xMin="70" yMin="-12" xMax="490" yMax="706">
      <component glyphName="uni0251" x="0" y="0" flags="0x204"/>
      <component glyphName="uni0302" x="2" y="0" flags="0x4"/>
    </TTGlyph>
    <TTGlyph name="acute" xMin="248" yMin="572" xMax="380" yMax="706">
      <component glyphName="uni0301" x="0" y="0" flags="0x204"/>
    </TTGlyph>
    <TTGlyph name="adieresis" xMin="96" yMin="-12" xMax="500" yMax="674">
      <component glyphName="a" x="0" y="0" flags="0x204"/>
      <component glyphName="uni0308" x="18" y="0" flags="0x4"/>
    </TTGlyph>
    <TTGlyph name="adieresis.a" xMin="70" yMin="-12" xMax="490" yMax="674">
      <component glyphName="uni0251" x="0" y="0" flags="0x204"/>
      <component glyphName="uni0308" x="2" y="0" flags="0x4"/>
    </TTGlyph>
    <TTGlyph name="ae" xMin="17" yMin="-12" xMax="600" yMax="490">
      <contour>
        <pt x="17" y="122" on="1"/>
        <pt x="17" y="191" on="0"/>
        <pt x="152" y="281" on="0"/>
        <pt x="284" y="298" on="1"/>
        <pt x="284" y="333" on="0"/>
        <pt x="273" y="394" on="0"/>
        <pt x="248" y="438" on="0"/>
        <pt x="205" y="463" on="0"/>
        <pt x="174" y="463" on="1"/>
        <pt x="158" y="463" on="0"/>
        <pt x="123" y="455" on="0"/>
        <pt x="90" y="441" on="0"/>
        <pt x="60" y="425" on="0"/>
        <pt x="50" y="417" on="1"/>
        <pt x="36" y="440" on="1"/>
        <pt x="58" y="455" on="0"/>
        <pt x="135" y="490" on="0"/>
        <pt x="183" y="490" on="1"/>
        <pt x="234" y="490" on="0"/>
        <pt x="297" y="422" on="0"/>
        <pt x="308" y="372" on="1"/>
        <pt x="331" y="426" on="0"/>
        <pt x="408" y="490" on="0"/>
        <pt x="460" y="490" on="1"/>
        <pt x="496" y="490" on="0"/>
        <pt x="549" y="456" on="0"/>
        <pt x="583" y="399" on="0"/>
        <pt x="600" y="323" on="0"/>
        <pt x="600" y="282" on="1"/>
        <pt x="600" y="273" on="0"/>
        <pt x="600" y="253" on="0"/>
        <pt x="598" y="238" on="1"/>
        <pt x="315" y="238" on="1"/>
        <pt x="315" y="190" on="0"/>
        <pt x="332" y="109" on="0"/>
        <pt x="368" y="49" on="0"/>
        <pt x="424" y="15" on="0"/>
        <pt x="462" y="15" on="1"/>
        <pt x="497" y="15" on="0"/>
        <pt x="552" y="37" on="0"/>
        <pt x="573" y="50" on="1"/>
        <pt x="586" y="28" on="1"/>
        <pt x="564" y="14" on="0"/>
        <pt x="504" y="-12" on="0"/>
        <pt x="461" y="-12" on="1"/>
        <pt x="409" y="-12" on="0"/>
        <pt x="337" y="42" on="0"/>
        <pt x="314" y="90" on="1"/>
        <pt x="272" y="42" on="0"/>
        <pt x="184" y="-12" on="0"/>
        <pt x="142" y="-12" on="1"/>
        <pt x="89" y="-12" on="0"/>
        <pt x="17" y="54" on="0"/>
      </contour>
      <contour>
        <pt x="570" y="264" on="1"/>
        <pt x="570" y="304" on="0"/>
        <pt x="559" y="376" on="0"/>
        <pt x="533" y="430" on="0"/>
        <pt x="490" y="462" on="0"/>
        <pt x="458" y="462" on="1"/>
        <pt x="394" y="462" on="0"/>
        <pt x="319" y="354" on="0"/>
        <pt x="316" y="264" on="1"/>
      </contour>
      <contour>
        <pt x="49" y="120" on="1"/>
        <pt x="49" y="68" on="0"/>
        <pt x="101" y="15" on="0"/>
        <pt x="145" y="15" on="1"/>
        <pt x="180" y="15" on="0"/>
        <pt x="266" y="67" on="0"/>
        <pt x="302" y="116" on="1"/>
        <pt x="294" y="143" on="0"/>
        <pt x="284" y="208" on="0"/>
        <pt x="284" y="244" on="1"/>
        <pt x="284" y="272" on="1"/>
        <pt x="158" y="253" on="0"/>
        <pt x="49" y="181" on="0"/>
      </contour>
    </TTGlyph>
    <TTGlyph name="agrave" xMin="96" yMin="-12" xMax="500" yMax="706">
      <component glyphName="a" x="0" y="0" flags="0x204"/>
      <component glyphName="uni0300" x="18" y="0" flags="0x4"/>
    </TTGlyph>
    <TTGlyph name="agrave.a" xMin="70" yMin="-12" xMax="490" yMax="706">
      <component glyphName="uni0251" x="0" y="0" flags="0x204"/>
      <component glyphName="uni0300" x="2" y="0" flags="0x4"/>
    </TTGlyph>
    <TTGlyph name="amacron" xMin="96" yMin="-12" xMax="500" yMax="636">
      <component glyphName="a" x="0" y="0" flags="0x204"/>
      <component glyphName="uni0304" x="18" y="0" flags="0x4"/>
    </TTGlyph>
    <TTGlyph name="amacron.a" xMin="70" yMin="-12" xMax="490" yMax="636">
      <component glyphName="uni0251" x="0" y="0" flags="0x204"/>
      <component glyphName="uni0304" x="2" y="0" flags="0x4"/>
    </TTGlyph>
    <TTGlyph name="ampersand" xMin="57" yMin="-12" xMax="569" yMax="672">
      <contour>
        <pt x="245" y="16" on="1"/>
        <pt x="289" y="16" on="0"/>
        <pt x="367" y="59" on="0"/>
        <pt x="399" y="93" on="1"/>
        <pt x="345" y="144" on="0"/>
        <pt x="242" y="270" on="0"/>
        <pt x="206" y="339" on="1"/>
        <pt x="182" y="321" on="0"/>
        <pt x="140" y="283" on="0"/>
        <pt x="108" y="241" on="0"/>
        <pt x="89" y="195" on="0"/>
        <pt x="89" y="168" on="1"/>
        <pt x="89" y="133" on="0"/>
        <pt x="114" y="77" on="0"/>
        <pt x="157" y="38" on="0"/>
        <pt x="213" y="16" on="0"/>
      </contour>
      <contour>
        <pt x="179" y="530" on="1"/>
        <pt x="179" y="495" on="0"/>
        <pt x="200" y="419" on="0"/>
        <pt x="218" y="380" on="1"/>
        <pt x="244" y="399" on="0"/>
        <pt x="293" y="438" on="0"/>
        <pt x="330" y="480" on="0"/>
        <pt x="353" y="527" on="0"/>
        <pt x="353" y="554" on="1"/>
        <pt x="353" y="570" on="0"/>
        <pt x="345" y="603" on="0"/>
        <pt x="327" y="628" on="0"/>
        <pt x="298" y="644" on="0"/>
        <pt x="277" y="644" on="1"/>
        <pt x="254" y="644" on="0"/>
        <pt x="217" y="626" on="0"/>
        <pt x="192" y="595" on="0"/>
        <pt x="179" y="553" on="0"/>
      </contour>
      <contour>
        <pt x="557" y="-12" on="1"/>
        <pt x="527" y="-1" on="0"/>
        <pt x="458" y="42" on="0"/>
        <pt x="420" y="74" on="1"/>
        <pt x="384" y="36" on="0"/>
        <pt x="298" y="-12" on="0"/>
        <pt x="243" y="-12" on="1"/>
        <pt x="205" y="-12" on="0"/>
        <pt x="138" y="13" on="0"/>
        <pt x="87" y="59" on="0"/>
        <pt x="57" y="125" on="0"/>
        <pt x="57" y="166" on="1"/>
        <pt x="57" y="198" on="0"/>
        <pt x="80" y="252" on="0"/>
        <pt x="118" y="300" on="0"/>
        <pt x="168" y="342" on="0"/>
        <pt x="194" y="362" on="1"/>
        <pt x="173" y="405" on="0"/>
        <pt x="149" y="489" on="0"/>
        <pt x="149" y="528" on="1"/>
        <pt x="149" y="559" on="0"/>
        <pt x="168" y="612" on="0"/>
        <pt x="203" y="651" on="0"/>
        <pt x="250" y="672" on="0"/>
        <pt x="279" y="672" on="1"/>
        <pt x="330" y="672" on="0"/>
        <pt x="383" y="606" on="0"/>
        <pt x="383" y="556" on="1"/>
        <pt x="383" y="524" on="0"/>
        <pt x="356" y="471" on="0"/>
        <pt x="313" y="423" on="0"/>
        <pt x="257" y="379" on="0"/>
        <pt x="229" y="357" on="1"/>
        <pt x="264" y="289" on="0"/>
        <pt x="365" y="163" on="0"/>
        <pt x="418" y="115" on="1"/>
        <pt x="456" y="162" on="0"/>
        <pt x="509" y="276" on="0"/>
        <pt x="527" y="342" on="1"/>
        <pt x="557" y="342" on="1"/>
        <pt x="537" y="273" on="0"/>
        <pt x="479" y="148" on="0"/>
        <pt x="439" y="97" on="1"/>
        <pt x="509" y="39" on="0"/>
        <pt x="569" y="16" on="1"/>
      </contour>
    </TTGlyph>
    <TTGlyph name="aogonek" xMin="96" yMin="-202" xMax="522" yMax="490">
      <contour>
        <pt x="96" y="117" on="1"/>
        <pt x="96" y="157" on="0"/>
        <pt x="139" y="217" on="0"/>
        <pt x="229" y="260" on="0"/>
        <pt x="371" y="289" on="0"/>
        <pt x="470" y="298" on="1"/>
        <pt x="470" y="329" on="0"/>
        <pt x="456" y="389" on="0"/>
        <pt x="423" y="434" on="0"/>
        <pt x="365" y="462" on="0"/>
        <pt x="322" y="462" on="1"/>
        <pt x="293" y="462" on="0"/>
        <pt x="239" y="449" on="0"/>
        <pt x="190" y="428" on="0"/>
        <pt x="150" y="404" on="0"/>
        <pt x="136" y="394" on="1"/>
        <pt x="120" y="418" on="1"/>
        <pt x="133" y="428" on="0"/>
        <pt x="175" y="453" on="0"/>
        <pt x="229" y="475" on="0"/>
        <pt x="292" y="490" on="0"/>
        <pt x="324" y="490" on="1"/>
        <pt x="372" y="490" on="0"/>
        <pt x="439" y="461" on="0"/>
        <pt x="481" y="411" on="0"/>
        <pt x="500" y="346" on="0"/>
        <pt x="500" y="310" on="1"/>
        <pt x="500" y="0" on="1"/>
        <pt x="464" y="-20" on="0"/>
        <pt x="414" y="-87" on="0"/>
        <pt x="414" y="-120" on="1"/>
        <pt x="414" y="-147" on="0"/>
        <pt x="444" y="-174" on="0"/>
        <pt x="464" y="-174" on="1"/>
        <pt x="478" y="-174" on="0"/>
        <pt x="497" y="-168" on="0"/>
        <pt x="508" y="-160" on="1"/>
        <pt x="522" y="-180" on="1"/>
        <pt x="511" y="-189" on="0"/>
        <pt x="477" y="-202" on="0"/>
        <pt x="462" y="-202" on="1"/>
        <pt x="429" y="-202" on="0"/>
        <pt x="384" y="-163" on="0"/>
        <pt x="384" y="-122" on="1"/>
        <pt x="384" y="-84" on="0"/>
        <pt x="436" y="-15" on="0"/>
        <pt x="474" y="8" on="1"/>
        <pt x="470" y="74" on="1"/>
        <pt x="468" y="74" on="1"/>
        <pt x="447" y="57" on="0"/>
        <pt x="398" y="26" on="0"/>
        <pt x="346" y="2" on="0"/>
        <pt x="291" y="-12" on="0"/>
        <pt x="264" y="-12" on="1"/>
        <pt x="232" y="-12" on="0"/>
        <pt x="172" y="3" on="0"/>
        <pt x="125" y="34" on="0"/>
        <pt x="96" y="83" on="0"/>
      </contour>
      <contour>
        <pt x="128" y="118" on="1"/>
        <pt x="128" y="90" on="0"/>
        <pt x="152" y="51" on="0"/>
        <pt x="191" y="27" on="0"/>
        <pt x="240" y="16" on="0"/>
        <pt x="266" y="16" on="1"/>
        <pt x="361" y="16" on="0"/>
        <pt x="470" y="108" on="1"/>
        <pt x="470" y="272" on="1"/>
        <pt x="373" y="263" on="0"/>
        <pt x="242" y="236" on="0"/>
        <pt x="162" y="198" on="0"/>
        <pt x="128" y="149" on="0"/>
      </contour>
    </TTGlyph>
    <TTGlyph name="aogonek.a" xMin="70" yMin="-202" xMax="512" yMax="490">
      <contour>
        <pt x="102" y="238" on="1"/>
        <pt x="102" y="188" on="0"/>
        <pt x="127" y="107" on="0"/>
        <pt x="174" y="48" on="0"/>
        <pt x="241" y="16" on="0"/>
        <pt x="284" y="16" on="1"/>
        <pt x="329" y="16" on="0"/>
        <pt x="417" y="65" on="0"/>
        <pt x="460" y="110" on="1"/>
        <pt x="460" y="386" on="1"/>
        <pt x="416" y="428" on="0"/>
        <pt x="336" y="462" on="0"/>
        <pt x="296" y="462" on="1"/>
        <pt x="255" y="462" on="0"/>
        <pt x="185" y="427" on="0"/>
        <pt x="132" y="366" on="0"/>
        <pt x="102" y="284" on="0"/>
      </contour>
      <contour>
        <pt x="70" y="238" on="1"/>
        <pt x="70" y="296" on="0"/>
        <pt x="107" y="389" on="0"/>
        <pt x="170" y="455" on="0"/>
        <pt x="253" y="490" on="0"/>
        <pt x="298" y="490" on="1"/>
        <pt x="345" y="490" on="0"/>
        <pt x="421" y="454" on="0"/>
        <pt x="458" y="422" on="1"/>
        <pt x="460" y="422" on="1"/>
        <pt x="464" y="478" on="1"/>
        <pt x="490" y="478" on="1"/>
        <pt x="490" y="0" on="1"/>
        <pt x="449" y="-27" on="0"/>
        <pt x="404" y="-87" on="0"/>
        <pt x="404" y="-120" on="1"/>
        <pt x="404" y="-147" on="0"/>
        <pt x="434" y="-174" on="0"/>
        <pt x="454" y="-174" on="1"/>
        <pt x="468" y="-174" on="0"/>
        <pt x="487" y="-168" on="0"/>
        <pt x="498" y="-160" on="1"/>
        <pt x="512" y="-180" on="1"/>
        <pt x="501" y="-189" on="0"/>
        <pt x="467" y="-202" on="0"/>
        <pt x="452" y="-202" on="1"/>
        <pt x="419" y="-202" on="0"/>
        <pt x="374" y="-163" on="0"/>
        <pt x="374" y="-122" on="1"/>
        <pt x="374" y="-84" on="0"/>
        <pt x="422" y="-22" on="0"/>
        <pt x="464" y="8" on="1"/>
        <pt x="460" y="74" on="1"/>
        <pt x="458" y="74" on="1"/>
        <pt x="426" y="40" on="0"/>
        <pt x="335" y="-12" on="0"/>
        <pt x="282" y="-12" on="1"/>
        <pt x="235" y="-12" on="0"/>
        <pt x="157" y="21" on="0"/>
        <pt x="101" y="84" on="0"/>
        <pt x="70" y="177" on="0"/>
      </contour>
    </TTGlyph>
    <TTGlyph name="approxequal" xMin="96" yMin="171" xMax="504" yMax="490">
      <component glyphName="asciitilde" x="0" y="100" flags="0x204"/>
      <component glyphName="asciitilde" x="0" y="-99" flags="0x4"/>
    </TTGlyph>
    <TTGlyph name="aring" xMin="96" yMin="-12" xMax="500" yMax="706">
      <component glyphName="a" x="0" y="0" flags="0x204"/>
      <component glyphName="uni030A" x="18" y="0" flags="0x4"/>
    </TTGlyph>
    <TTGlyph name="aring.a" xMin="70" yMin="-12" xMax="490" yMax="706">
      <component glyphName="uni0251" x="0" y="0" flags="0x204"/>
      <component glyphName="uni030A" x="2" y="0" flags="0x4"/>
    </TTGlyph>
    <TTGlyph name="arrowdown" xMin="34" yMin="-24" xMax="566" yMax="526">
      <contour>
        <pt x="298" y="-24" on="1"/>
        <pt x="34" y="244" on="1"/>
        <pt x="54" y="264" on="1"/>
        <pt x="286" y="22" on="1"/>
        <pt x="286" y="526" on="1"/>
        <pt x="314" y="526" on="1"/>
        <pt x="314" y="22" on="1"/>
        <pt x="546" y="264" on="1"/>
        <pt x="566" y="244" on="1"/>
        <pt x="302" y="-24" on="1"/>
      </contour>
    </TTGlyph>
    <TTGlyph name="arrowup" xMin="34" yMin="-24" xMax="566" yMax="526">
      <contour>
        <pt x="302" y="526" on="1"/>
        <pt x="566" y="258" on="1"/>
        <pt x="546" y="238" on="1"/>
        <pt x="314" y="480" on="1"/>
        <pt x="314" y="-24" on="1"/>
        <pt x="286" y="-24" on="1"/>
        <pt x="286" y="480" on="1"/>
        <pt x="54" y="238" on="1"/>
        <pt x="34" y="258" on="1"/>
        <pt x="298" y="526" on="1"/>
      </contour>
    </TTGlyph>
    <TTGlyph name="asciicircum" xMin="132" yMin="292" xMax="468" yMax="670">
      <contour>
        <pt x="282" y="670" on="1"/>
        <pt x="318" y="670" on="1"/>
        <pt x="468" y="292" on="1"/>
        <pt x="436" y="292" on="1"/>
        <pt x="354" y="506" on="1"/>
        <pt x="302" y="638" on="1"/>
        <pt x="298" y="638" on="1"/>
        <pt x="246" y="506" on="1"/>
        <pt x="164" y="292" on="1"/>
        <pt x="132" y="292" on="1"/>
      </contour>
    </TTGlyph>
    <TTGlyph name="asciitilde" xMin="96" yMin="270" xMax="504" yMax="390">
      <contour>
        <pt x="96" y="280" on="1"/>
        <pt x="117" y="344" on="0"/>
        <pt x="178" y="390" on="0"/>
        <pt x="210" y="390" on="1"/>
        <pt x="238" y="390" on="0"/>
        <pt x="286" y="361" on="0"/>
        <pt x="329" y="327" on="0"/>
        <pt x="370" y="298" on="0"/>
        <pt x="392" y="298" on="1"/>
        <pt x="405" y="298" on="0"/>
        <pt x="428" y="303" on="0"/>
        <pt x="450" y="321" on="0"/>
        <pt x="470" y="357" on="0"/>
        <pt x="480" y="388" on="1"/>
        <pt x="504" y="378" on="1"/>
        <pt x="483" y="315" on="0"/>
        <pt x="422" y="270" on="0"/>
        <pt x="390" y="270" on="1"/>
        <pt x="361" y="270" on="0"/>
        <pt x="314" y="299" on="0"/>
        <pt x="271" y="333" on="0"/>
        <pt x="230" y="362" on="0"/>
        <pt x="208" y="362" on="1"/>
        <pt x="195" y="362" on="0"/>
        <pt x="172" y="356" on="0"/>
        <pt x="150" y="338" on="0"/>
        <pt x="130" y="302" on="0"/>
        <pt x="120" y="272" on="1"/>
      </contour>
    </TTGlyph>
    <TTGlyph name="asterisk" xMin="101" yMin="128" xMax="499" yMax="548">
      <contour>
        <pt x="152" y="145" on="1"/>
        <pt x="270" y="318" on="1"/>
        <pt x="101" y="390" on="1"/>
        <pt x="110" y="414" on="1"/>
        <pt x="282" y="350" on="1"/>
        <pt x="287" y="548" on="1"/>
        <pt x="313" y="548" on="1"/>
        <pt x="318" y="350" on="1"/>
        <pt x="490" y="414" on="1"/>
        <pt x="499" y="390" on="1"/>
        <pt x="330" y="318" on="1"/>
        <pt x="448" y="145" on="1"/>
        <pt x="424" y="128" on="1"/>
        <pt x="300" y="300" on="1"/>
        <pt x="176" y="128" on="1"/>
      </contour>
    </TTGlyph>
    <TTGlyph name="asterisk.a" xMin="121" yMin="346" xMax="479" yMax="712">
      <contour>
        <pt x="172" y="363" on="1"/>
        <pt x="271" y="516" on="1"/>
        <pt x="121" y="574" on="1"/>
        <pt x="130" y="598" on="1"/>
        <pt x="282" y="545" on="1"/>
        <pt x="287" y="712" on="1"/>
        <pt x="313" y="712" on="1"/>
        <pt x="318" y="547" on="1"/>
        <pt x="470" y="598" on="1"/>
        <pt x="479" y="574" on="1"/>
        <pt x="329" y="516" on="1"/>
        <pt x="428" y="363" on="1"/>
        <pt x="404" y="346" on="1"/>
        <pt x="300" y="497" on="1"/>
        <pt x="196" y="346" on="1"/>
      </contour>
    </TTGlyph>
    <TTGlyph name="at" xMin="64" yMin="-142" xMax="542" yMax="628">
      <contour>
        <pt x="542" y="100" on="1"/>
        <pt x="516" y="100" on="1"/>
        <pt x="512" y="164" on="1"/>
        <pt x="508" y="164" on="1"/>
        <pt x="496" y="150" on="0"/>
        <pt x="463" y="122" on="0"/>
        <pt x="425" y="101" on="0"/>
        <pt x="385" y="88" on="0"/>
        <pt x="366" y="88" on="1"/>
        <pt x="340" y="88" on="0"/>
        <pt x="293" y="103" on="0"/>
        <pt x="257" y="134" on="0"/>
        <pt x="236" y="180" on="0"/>
        <pt x="236" y="212" on="1"/>
        <pt x="236" y="284" on="0"/>
        <pt x="373" y="365" on="0"/>
        <pt x="512" y="382" on="1"/>
        <pt x="512" y="395" on="1"/>
        <pt x="512" y="437" on="0"/>
        <pt x="494" y="512" on="0"/>
        <pt x="455" y="568" on="0"/>
        <pt x="393" y="600" on="0"/>
        <pt x="349" y="600" on="1"/>
        <pt x="295" y="600" on="0"/>
        <pt x="203" y="552" on="0"/>
        <pt x="135" y="460" on="0"/>
        <pt x="96" y="329" on="0"/>
        <pt x="96" y="246" on="1"/>
        <pt x="96" y="163" on="0"/>
        <pt x="132" y="30" on="0"/>
        <pt x="197" y="-63" on="0"/>
        <pt x="287" y="-114" on="0"/>
        <pt x="342" y="-114" on="1"/>
        <pt x="387" y="-114" on="0"/>
        <pt x="460" y="-89" on="0"/>
        <pt x="490" y="-64" on="1"/>
        <pt x="506" y="-86" on="1"/>
        <pt x="435" y="-142" on="0"/>
        <pt x="342" y="-142" on="1"/>
        <pt x="284" y="-142" on="0"/>
        <pt x="182" y="-89" on="0"/>
        <pt x="107" y="11" on="0"/>
        <pt x="64" y="156" on="0"/>
        <pt x="64" y="248" on="1"/>
        <pt x="64" y="338" on="0"/>
        <pt x="107" y="480" on="0"/>
        <pt x="184" y="577" on="0"/>
        <pt x="290" y="628" on="0"/>
        <pt x="352" y="628" on="1"/>
        <pt x="400" y="628" on="0"/>
        <pt x="471" y="593" on="0"/>
        <pt x="519" y="530" on="0"/>
        <pt x="542" y="445" on="0"/>
        <pt x="542" y="396" on="1"/>
      </contour>
      <contour>
        <pt x="268" y="212" on="1"/>
        <pt x="268" y="166" on="0"/>
        <pt x="323" y="116" on="0"/>
        <pt x="370" y="116" on="1"/>
        <pt x="402" y="116" on="0"/>
        <pt x="476" y="158" on="0"/>
        <pt x="512" y="202" on="1"/>
        <pt x="512" y="356" on="1"/>
        <pt x="382" y="338" on="0"/>
        <pt x="268" y="268" on="0"/>
      </contour>
    </TTGlyph>
    <TTGlyph name="at.case" xMin="64" yMin="-12" xMax="542" yMax="672">
      <contour>
        <pt x="542" y="180" on="1"/>
        <pt x="516" y="180" on="1"/>
        <pt x="512" y="244" on="1"/>
        <pt x="508" y="244" on="1"/>
        <pt x="496" y="230" on="0"/>
        <pt x="463" y="202" on="0"/>
        <pt x="425" y="181" on="0"/>
        <pt x="385" y="168" on="0"/>
        <pt x="366" y="168" on="1"/>
        <pt x="340" y="168" on="0"/>
        <pt x="293" y="183" on="0"/>
        <pt x="257" y="214" on="0"/>
        <pt x="236" y="260" on="0"/>
        <pt x="236" y="292" on="1"/>
        <pt x="236" y="364" on="0"/>
        <pt x="373" y="445" on="0"/>
        <pt x="512" y="462" on="1"/>
        <pt x="512" y="475" on="1"/>
        <pt x="512" y="509" on="0"/>
        <pt x="494" y="570" on="0"/>
        <pt x="455" y="617" on="0"/>
        <pt x="393" y="644" on="0"/>
        <pt x="349" y="644" on="1"/>
        <pt x="295" y="644" on="0"/>
        <pt x="203" y="600" on="0"/>
        <pt x="135" y="518" on="0"/>
        <pt x="96" y="400" on="0"/>
        <pt x="96" y="326" on="1"/>
        <pt x="96" y="255" on="0"/>
        <pt x="132" y="140" on="0"/>
        <pt x="197" y="59" on="0"/>
        <pt x="287" y="16" on="0"/>
        <pt x="342" y="16" on="1"/>
        <pt x="387" y="16" on="0"/>
        <pt x="460" y="41" on="0"/>
        <pt x="490" y="66" on="1"/>
        <pt x="506" y="44" on="1"/>
        <pt x="435" y="-12" on="0"/>
        <pt x="342" y="-12" on="1"/>
        <pt x="284" y="-12" on="0"/>
        <pt x="182" y="33" on="0"/>
        <pt x="107" y="120" on="0"/>
        <pt x="64" y="247" on="0"/>
        <pt x="64" y="328" on="1"/>
        <pt x="64" y="409" on="0"/>
        <pt x="107" y="537" on="0"/>
        <pt x="184" y="626" on="0"/>
        <pt x="290" y="672" on="0"/>
        <pt x="352" y="672" on="1"/>
        <pt x="400" y="672" on="0"/>
        <pt x="471" y="641" on="0"/>
        <pt x="519" y="588" on="0"/>
        <pt x="542" y="516" on="0"/>
        <pt x="542" y="476" on="1"/>
      </contour>
      <contour>
        <pt x="268" y="292" on="1"/>
        <pt x="268" y="246" on="0"/>
        <pt x="323" y="196" on="0"/>
        <pt x="370" y="196" on="1"/>
        <pt x="402" y="196" on="0"/>
        <pt x="476" y="238" on="0"/>
        <pt x="512" y="282" on="1"/>
        <pt x="512" y="436" on="1"/>
        <pt x="382" y="418" on="0"/>
        <pt x="268" y="348" on="0"/>
      </contour>
    </TTGlyph>
    <TTGlyph name="atilde" xMin="96" yMin="-12" xMax="500" yMax="664">
      <component glyphName="a" x="0" y="0" flags="0x204"/>
      <component glyphName="uni0303" x="18" y="0" flags="0x4"/>
    </TTGlyph>
    <TTGlyph name="atilde.a" xMin="70" yMin="-12" xMax="490" yMax="664">
      <component glyphName="uni0251" x="0" y="0" flags="0x204"/>
      <component glyphName="uni0303" x="2" y="0" flags="0x4"/>
    </TTGlyph>
    <TTGlyph name="b" xMin="110" yMin="-12" xMax="530" yMax="722">
      <contour>
        <pt x="110" y="722" on="1"/>
        <pt x="140" y="722" on="1"/>
        <pt x="140" y="508" on="1"/>
        <pt x="138" y="402" on="1"/>
        <pt x="178" y="441" on="0"/>
        <pt x="278" y="490" on="0"/>
        <pt x="326" y="490" on="1"/>
        <pt x="429" y="490" on="0"/>
        <pt x="530" y="357" on="0"/>
        <pt x="530" y="246" on="1"/>
        <pt x="530" y="185" on="0"/>
        <pt x="493" y="89" on="0"/>
        <pt x="432" y="23" on="0"/>
        <pt x="351" y="-12" on="0"/>
        <pt x="306" y="-12" on="1"/>
        <pt x="269" y="-12" on="0"/>
        <pt x="179" y="24" on="0"/>
        <pt x="142" y="54" on="1"/>
        <pt x="140" y="54" on="1"/>
        <pt x="136" y="0" on="1"/>
        <pt x="110" y="0" on="1"/>
      </contour>
      <contour>
        <pt x="140" y="92" on="1"/>
        <pt x="185" y="51" on="0"/>
        <pt x="277" y="16" on="0"/>
        <pt x="308" y="16" on="1"/>
        <pt x="349" y="16" on="0"/>
        <pt x="419" y="50" on="0"/>
        <pt x="470" y="111" on="0"/>
        <pt x="498" y="196" on="0"/>
        <pt x="498" y="246" on="1"/>
        <pt x="498" y="292" on="0"/>
        <pt x="479" y="371" on="0"/>
        <pt x="437" y="429" on="0"/>
        <pt x="371" y="462" on="0"/>
        <pt x="324" y="462" on="1"/>
        <pt x="284" y="462" on="0"/>
        <pt x="188" y="416" on="0"/>
        <pt x="140" y="368" on="1"/>
      </contour>
    </TTGlyph>
    <TTGlyph name="b.sups" xMin="186" yMin="252" xMax="468" yMax="734">
      <contour>
        <pt x="186" y="734" on="1"/>
        <pt x="218" y="734" on="1"/>
        <pt x="218" y="597" on="1"/>
        <pt x="216" y="536" on="1"/>
        <pt x="242" y="556" on="0"/>
        <pt x="301" y="585" on="0"/>
        <pt x="332" y="585" on="1"/>
        <pt x="401" y="585" on="0"/>
        <pt x="468" y="498" on="0"/>
        <pt x="468" y="423" on="1"/>
        <pt x="468" y="383" on="0"/>
        <pt x="444" y="319" on="0"/>
        <pt x="403" y="275" on="0"/>
        <pt x="349" y="252" on="0"/>
        <pt x="320" y="252" on="1"/>
        <pt x="295" y="252" on="0"/>
        <pt x="241" y="273" on="0"/>
        <pt x="217" y="290" on="1"/>
        <pt x="216" y="290" on="1"/>
        <pt x="212" y="260" on="1"/>
        <pt x="186" y="260" on="1"/>
      </contour>
      <contour>
        <pt x="218" y="320" on="1"/>
        <pt x="246" y="298" on="0"/>
        <pt x="297" y="280" on="0"/>
        <pt x="317" y="280" on="1"/>
        <pt x="369" y="280" on="0"/>
        <pt x="434" y="359" on="0"/>
        <pt x="434" y="423" on="1"/>
        <pt x="434" y="481" on="0"/>
        <pt x="385" y="557" on="0"/>
        <pt x="327" y="557" on="1"/>
        <pt x="278" y="557" on="0"/>
        <pt x="218" y="506" on="1"/>
      </contour>
    </TTGlyph>
    <TTGlyph name="backslash" xMin="120" yMin="-160" xMax="480" yMax="710">
      <contour>
        <pt x="120" y="710" on="1"/>
        <pt x="154" y="710" on="1"/>
        <pt x="480" y="-160" on="1"/>
        <pt x="446" y="-160" on="1"/>
      </contour>
    </TTGlyph>
    <TTGlyph name="bar" xMin="286" yMin="-250" xMax="314" yMax="750">
      <contour>
        <pt x="286" y="750" on="1"/>
        <pt x="314" y="750" on="1"/>
        <pt x="314" y="-250" on="1"/>
        <pt x="286" y="-250" on="1"/>
      </contour>
    </TTGlyph>
    <TTGlyph name="braceleft" xMin="132" yMin="-152" xMax="506" yMax="708">
      <contour>
        <pt x="274" y="-26" on="1"/>
        <pt x="274" y="30" on="0"/>
        <pt x="283" y="131" on="0"/>
        <pt x="283" y="185" on="1"/>
        <pt x="283" y="200" on="0"/>
        <pt x="271" y="230" on="0"/>
        <pt x="238" y="252" on="0"/>
        <pt x="179" y="266" on="0"/>
        <pt x="132" y="266" on="1"/>
        <pt x="132" y="290" on="1"/>
        <pt x="179" y="290" on="0"/>
        <pt x="238" y="304" on="0"/>
        <pt x="271" y="326" on="0"/>
        <pt x="283" y="356" on="0"/>
        <pt x="283" y="371" on="1"/>
        <pt x="283" y="419" on="0"/>
        <pt x="274" y="531" on="0"/>
        <pt x="274" y="582" on="1"/>
        <pt x="274" y="619" on="0"/>
        <pt x="297" y="668" on="0"/>
        <pt x="343" y="696" on="0"/>
        <pt x="412" y="708" on="0"/>
        <pt x="458" y="708" on="1"/>
        <pt x="506" y="708" on="1"/>
        <pt x="506" y="685" on="1"/>
        <pt x="446" y="685" on="1"/>
        <pt x="402" y="685" on="0"/>
        <pt x="347" y="672" on="0"/>
        <pt x="315" y="646" on="0"/>
        <pt x="304" y="605" on="0"/>
        <pt x="304" y="578" on="1"/>
        <pt x="304" y="532" on="0"/>
        <pt x="311" y="431" on="0"/>
        <pt x="311" y="382" on="1"/>
        <pt x="311" y="340" on="0"/>
        <pt x="278" y="289" on="0"/>
        <pt x="228" y="280" on="1"/>
        <pt x="228" y="276" on="1"/>
        <pt x="278" y="267" on="0"/>
        <pt x="311" y="216" on="0"/>
        <pt x="311" y="174" on="1"/>
        <pt x="311" y="146" on="0"/>
        <pt x="309" y="97" on="0"/>
        <pt x="306" y="50" on="0"/>
        <pt x="304" y="3" on="0"/>
        <pt x="304" y="-22" on="1"/>
        <pt x="304" y="-49" on="0"/>
        <pt x="315" y="-90" on="0"/>
        <pt x="347" y="-116" on="0"/>
        <pt x="402" y="-129" on="0"/>
        <pt x="446" y="-129" on="1"/>
        <pt x="506" y="-129" on="1"/>
        <pt x="506" y="-152" on="1"/>
        <pt x="458" y="-152" on="1"/>
        <pt x="412" y="-152" on="0"/>
        <pt x="343" y="-140" on="0"/>
        <pt x="297" y="-112" on="0"/>
        <pt x="274" y="-63" on="0"/>
      </contour>
    </TTGlyph>
    <TTGlyph name="braceright" xMin="94" yMin="-152" xMax="467" yMax="708">
      <contour>
        <pt x="154" y="-129" on="1"/>
        <pt x="198" y="-129" on="0"/>
        <pt x="254" y="-116" on="0"/>
        <pt x="286" y="-90" on="0"/>
        <pt x="298" y="-49" on="0"/>
        <pt x="298" y="-22" on="1"/>
        <pt x="298" y="3" on="0"/>
        <pt x="295" y="50" on="0"/>
        <pt x="292" y="97" on="0"/>
        <pt x="290" y="146" on="0"/>
        <pt x="290" y="174" on="1"/>
        <pt x="290" y="215" on="0"/>
        <pt x="322" y="267" on="0"/>
        <pt x="372" y="276" on="1"/>
        <pt x="372" y="280" on="1"/>
        <pt x="322" y="289" on="0"/>
        <pt x="290" y="341" on="0"/>
        <pt x="290" y="382" on="1"/>
        <pt x="290" y="431" on="0"/>
        <pt x="298" y="532" on="0"/>
        <pt x="298" y="578" on="1"/>
        <pt x="298" y="605" on="0"/>
        <pt x="286" y="646" on="0"/>
        <pt x="254" y="672" on="0"/>
        <pt x="198" y="685" on="0"/>
        <pt x="154" y="685" on="1"/>
        <pt x="94" y="685" on="1"/>
        <pt x="94" y="708" on="1"/>
        <pt x="142" y="708" on="1"/>
        <pt x="188" y="708" on="0"/>
        <pt x="257" y="696" on="0"/>
        <pt x="302" y="668" on="0"/>
        <pt x="325" y="619" on="0"/>
        <pt x="325" y="582" on="1"/>
        <pt x="325" y="531" on="0"/>
        <pt x="317" y="419" on="0"/>
        <pt x="317" y="371" on="1"/>
        <pt x="317" y="356" on="0"/>
        <pt x="329" y="326" on="0"/>
        <pt x="362" y="304" on="0"/>
        <pt x="420" y="290" on="0"/>
        <pt x="467" y="290" on="1"/>
        <pt x="467" y="266" on="1"/>
        <pt x="420" y="266" on="0"/>
        <pt x="362" y="252" on="0"/>
        <pt x="329" y="230" on="0"/>
        <pt x="317" y="200" on="0"/>
        <pt x="317" y="185" on="1"/>
        <pt x="317" y="131" on="0"/>
        <pt x="325" y="30" on="0"/>
        <pt x="325" y="-26" on="1"/>
        <pt x="325" y="-63" on="0"/>
        <pt x="302" y="-112" on="0"/>
        <pt x="257" y="-140" on="0"/>
        <pt x="188" y="-152" on="0"/>
        <pt x="142" y="-152" on="1"/>
        <pt x="94" y="-152" on="1"/>
        <pt x="94" y="-129" on="1"/>
      </contour>
    </TTGlyph>
    <TTGlyph name="bracketleft" xMin="246" yMin="-152" xMax="506" yMax="708">
      <contour>
        <pt x="246" y="708" on="1"/>
        <pt x="506" y="708" on="1"/>
        <pt x="506" y="685" on="1"/>
        <pt x="274" y="685" on="1"/>
        <pt x="274" y="-129" on="1"/>
        <pt x="506" y="-129" on="1"/>
        <pt x="506" y="-152" on="1"/>
        <pt x="246" y="-152" on="1"/>
      </contour>
    </TTGlyph>
    <TTGlyph name="bracketright" xMin="94" yMin="-152" xMax="354" yMax="708">
      <contour>
        <pt x="326" y="-129" on="1"/>
        <pt x="326" y="685" on="1"/>
        <pt x="94" y="685" on="1"/>
        <pt x="94" y="708" on="1"/>
        <pt x="354" y="708" on="1"/>
        <pt x="354" y="-152" on="1"/>
        <pt x="94" y="-152" on="1"/>
        <pt x="94" y="-129" on="1"/>
      </contour>
    </TTGlyph>
    <TTGlyph name="breve" xMin="184" yMin="576" xMax="416" yMax="692">
      <component glyphName="uni0306" x="0" y="0" flags="0x204"/>
    </TTGlyph>
    <TTGlyph name="brokenbar" xMin="286" yMin="-250" xMax="314" yMax="750">
      <contour>
        <pt x="286" y="750" on="1"/>
        <pt x="314" y="750" on="1"/>
        <pt x="314" y="274" on="1"/>
        <pt x="286" y="274" on="1"/>
      </contour>
      <contour>
        <pt x="314" y="222" on="1"/>
        <pt x="314" y="-250" on="1"/>
        <pt x="286" y="-250" on="1"/>
        <pt x="286" y="222" on="1"/>
      </contour>
    </TTGlyph>
    <TTGlyph name="bullet" xMin="164" yMin="126" xMax="436" yMax="398">
      <contour>
        <pt x="300" y="126" on="1"/>
        <pt x="274" y="126" on="0"/>
        <pt x="226" y="145" on="0"/>
        <pt x="187" y="180" on="0"/>
        <pt x="164" y="230" on="0"/>
        <pt x="164" y="262" on="1"/>
        <pt x="164" y="293" on="0"/>
        <pt x="187" y="344" on="0"/>
        <pt x="226" y="379" on="0"/>
        <pt x="274" y="398" on="0"/>
        <pt x="300" y="398" on="1"/>
        <pt x="325" y="398" on="0"/>
        <pt x="374" y="379" on="0"/>
        <pt x="413" y="344" on="0"/>
        <pt x="436" y="293" on="0"/>
        <pt x="436" y="262" on="1"/>
        <pt x="436" y="230" on="0"/>
        <pt x="413" y="180" on="0"/>
        <pt x="374" y="145" on="0"/>
        <pt x="325" y="126" on="0"/>
      </contour>
    </TTGlyph>
    <TTGlyph name="c" xMin="90" yMin="-12" xMax="532" yMax="490">
      <contour>
        <pt x="90" y="238" on="1"/>
        <pt x="90" y="298" on="0"/>
        <pt x="131" y="392" on="0"/>
        <pt x="201" y="456" on="0"/>
        <pt x="295" y="490" on="0"/>
        <pt x="348" y="490" on="1"/>
        <pt x="378" y="490" on="0"/>
        <pt x="428" y="478" on="0"/>
        <pt x="470" y="457" on="0"/>
        <pt x="504" y="430" on="0"/>
        <pt x="519" y="416" on="1"/>
        <pt x="499" y="394" on="1"/>
        <pt x="468" y="424" on="0"/>
        <pt x="395" y="462" on="0"/>
        <pt x="348" y="462" on="1"/>
        <pt x="298" y="462" on="0"/>
        <pt x="215" y="429" on="0"/>
        <pt x="155" y="370" on="0"/>
        <pt x="122" y="287" on="0"/>
        <pt x="122" y="238" on="1"/>
        <pt x="122" y="188" on="0"/>
        <pt x="154" y="107" on="0"/>
        <pt x="214" y="48" on="0"/>
        <pt x="297" y="16" on="0"/>
        <pt x="348" y="16" on="1"/>
        <pt x="399" y="16" on="0"/>
        <pt x="481" y="56" on="0"/>
        <pt x="514" y="88" on="1"/>
        <pt x="532" y="66" on="1"/>
        <pt x="496" y="31" on="0"/>
        <pt x="405" y="-12" on="0"/>
        <pt x="348" y="-12" on="1"/>
        <pt x="292" y="-12" on="0"/>
        <pt x="198" y="22" on="0"/>
        <pt x="129" y="86" on="0"/>
        <pt x="90" y="179" on="0"/>
      </contour>
    </TTGlyph>
    <TTGlyph name="c.sups" xMin="189" yMin="252" xMax="457" yMax="585">
      <contour>
        <pt x="189" y="418" on="1"/>
        <pt x="189" y="458" on="0"/>
        <pt x="215" y="520" on="0"/>
        <pt x="258" y="563" on="0"/>
        <pt x="315" y="585" on="0"/>
        <pt x="347" y="585" on="1"/>
        <pt x="382" y="585" on="0"/>
        <pt x="431" y="561" on="0"/>
        <pt x="449" y="546" on="1"/>
        <pt x="430" y="524" on="1"/>
        <pt x="413" y="538" on="0"/>
        <pt x="373" y="558" on="0"/>
        <pt x="348" y="558" on="1"/>
        <pt x="321" y="558" on="0"/>
        <pt x="275" y="537" on="0"/>
        <pt x="240" y="500" on="0"/>
        <pt x="221" y="449" on="0"/>
        <pt x="221" y="418" on="1"/>
        <pt x="221" y="356" on="0"/>
        <pt x="290" y="280" on="0"/>
        <pt x="347" y="280" on="1"/>
        <pt x="376" y="280" on="0"/>
        <pt x="423" y="301" on="0"/>
        <pt x="441" y="316" on="1"/>
        <pt x="457" y="294" on="1"/>
        <pt x="434" y="276" on="0"/>
        <pt x="379" y="252" on="0"/>
        <pt x="346" y="252" on="1"/>
        <pt x="312" y="252" on="0"/>
        <pt x="255" y="274" on="0"/>
        <pt x="213" y="317" on="0"/>
        <pt x="189" y="379" on="0"/>
      </contour>
    </TTGlyph>
    <TTGlyph name="cacute" xMin="90" yMin="-12" xMax="532" yMax="706">
      <component glyphName="c" x="0" y="0" flags="0x204"/>
      <component glyphName="uni0301" x="45" y="0" flags="0x4"/>
    </TTGlyph>
    <TTGlyph name="caron" xMin="192" yMin="572" xMax="408" yMax="706">
      <component glyphName="uni030C" x="0" y="0" flags="0x204"/>
    </TTGlyph>
    <TTGlyph name="ccaron" xMin="90" yMin="-12" xMax="532" yMax="706">
      <component glyphName="c" x="0" y="0" flags="0x204"/>
      <component glyphName="uni030C" x="45" y="0" flags="0x4"/>
    </TTGlyph>
    <TTGlyph name="ccedilla" xMin="90" yMin="-206" xMax="532" yMax="490">
      <component glyphName="c" x="0" y="0" flags="0x204"/>
      <component glyphName="uni0327" x="43" y="0" flags="0x4"/>
    </TTGlyph>
    <TTGlyph name="ccircumflex" xMin="90" yMin="-12" xMax="532" yMax="706">
      <component glyphName="c" x="0" y="0" flags="0x204"/>
      <component glyphName="uni0302" x="45" y="0" flags="0x4"/>
    </TTGlyph>
    <TTGlyph name="cdotaccent" xMin="90" yMin="-12" xMax="532" yMax="684">
      <component glyphName="c" x="0" y="0" flags="0x204"/>
      <component glyphName="uni0307" x="45" y="0" flags="0x4"/>
    </TTGlyph>
    <TTGlyph name="cedilla" xMin="240" yMin="-206" xMax="364" yMax="2">
      <component glyphName="uni0327" x="10" y="0" flags="0x204"/>
    </TTGlyph>
    <TTGlyph name="cent" xMin="126" yMin="-26" xMax="492" yMax="652">
      <contour>
        <pt x="316" y="510" on="1"/>
        <pt x="282" y="506" on="0"/>
        <pt x="224" y="474" on="0"/>
        <pt x="182" y="422" on="0"/>
        <pt x="158" y="353" on="0"/>
        <pt x="158" y="312" on="1"/>
        <pt x="158" y="270" on="0"/>
        <pt x="180" y="201" on="0"/>
        <pt x="222" y="149" on="0"/>
        <pt x="280" y="117" on="0"/>
        <pt x="316" y="113" on="1"/>
      </contour>
      <contour>
        <pt x="492" y="148" on="1"/>
        <pt x="463" y="122" on="0"/>
        <pt x="389" y="85" on="0"/>
        <pt x="344" y="84" on="1"/>
        <pt x="344" y="-26" on="1"/>
        <pt x="316" y="-26" on="1"/>
        <pt x="316" y="85" on="1"/>
        <pt x="275" y="89" on="0"/>
        <pt x="205" y="122" on="0"/>
        <pt x="154" y="180" on="0"/>
        <pt x="126" y="261" on="0"/>
        <pt x="126" y="312" on="1"/>
        <pt x="126" y="364" on="0"/>
        <pt x="156" y="445" on="0"/>
        <pt x="208" y="502" on="0"/>
        <pt x="277" y="535" on="0"/>
        <pt x="316" y="539" on="1"/>
        <pt x="316" y="652" on="1"/>
        <pt x="344" y="652" on="1"/>
        <pt x="344" y="540" on="1"/>
        <pt x="392" y="539" on="0"/>
        <pt x="457" y="502" on="0"/>
        <pt x="480" y="480" on="1"/>
        <pt x="462" y="460" on="1"/>
        <pt x="439" y="482" on="0"/>
        <pt x="380" y="511" on="0"/>
        <pt x="344" y="512" on="1"/>
        <pt x="344" y="112" on="1"/>
        <pt x="383" y="113" on="0"/>
        <pt x="449" y="145" on="0"/>
        <pt x="474" y="168" on="1"/>
      </contour>
    </TTGlyph>
    <TTGlyph name="circumflex" xMin="192" yMin="572" xMax="408" yMax="706">
      <component glyphName="uni0302" x="0" y="0" flags="0x204"/>
    </TTGlyph>
    <TTGlyph name="colon" xMin="248" yMin="-12" xMax="352" yMax="490">
      <component glyphName="period" x="0" y="386" flags="0x204"/>
      <component glyphName="period" x="0" y="0" flags="0x4"/>
    </TTGlyph>
    <TTGlyph name="colonmonetary" xMin="110" yMin="-110" xMax="532" yMax="750">
      <contour>
        <pt x="271" y="34" on="1"/>
        <pt x="303" y="17" on="0"/>
        <pt x="341" y="16" on="1"/>
        <pt x="412" y="617" on="1"/>
        <pt x="401" y="620" on="0"/>
        <pt x="377" y="624" on="0"/>
        <pt x="364" y="624" on="1"/>
        <pt x="358" y="624" on="0"/>
        <pt x="346" y="624" on="0"/>
        <pt x="341" y="623" on="1"/>
      </contour>
      <contour>
        <pt x="312" y="618" on="1"/>
        <pt x="231" y="598" on="0"/>
        <pt x="144" y="443" on="0"/>
        <pt x="144" y="322" on="1"/>
        <pt x="144" y="226" on="0"/>
        <pt x="196" y="86" on="0"/>
        <pt x="245" y="50" on="1"/>
      </contour>
      <contour>
        <pt x="532" y="82" on="1"/>
        <pt x="499" y="41" on="0"/>
        <pt x="422" y="-8" on="0"/>
        <pt x="366" y="-11" on="1"/>
        <pt x="354" y="-110" on="1"/>
        <pt x="326" y="-110" on="1"/>
        <pt x="338" y="-12" on="1"/>
        <pt x="319" y="-11" on="0"/>
        <pt x="284" y="-3" on="0"/>
        <pt x="267" y="4" on="1"/>
        <pt x="254" y="-110" on="1"/>
        <pt x="226" y="-110" on="1"/>
        <pt x="241" y="17" on="1"/>
        <pt x="179" y="54" on="0"/>
        <pt x="110" y="212" on="0"/>
        <pt x="110" y="322" on="1"/>
        <pt x="110" y="389" on="0"/>
        <pt x="138" y="501" on="0"/>
        <pt x="192" y="585" on="0"/>
        <pt x="268" y="639" on="0"/>
        <pt x="316" y="648" on="1"/>
        <pt x="328" y="750" on="1"/>
        <pt x="356" y="750" on="1"/>
        <pt x="344" y="651" on="1"/>
        <pt x="349" y="652" on="0"/>
        <pt x="359" y="652" on="0"/>
        <pt x="364" y="652" on="1"/>
        <pt x="378" y="652" on="0"/>
        <pt x="403" y="648" on="0"/>
        <pt x="416" y="645" on="1"/>
        <pt x="428" y="750" on="1"/>
        <pt x="456" y="750" on="1"/>
        <pt x="442" y="635" on="1"/>
        <pt x="468" y="624" on="0"/>
        <pt x="508" y="591" on="0"/>
        <pt x="522" y="574" on="1"/>
        <pt x="500" y="554" on="1"/>
        <pt x="486" y="570" on="0"/>
        <pt x="456" y="596" on="0"/>
        <pt x="439" y="605" on="1"/>
        <pt x="369" y="17" on="1"/>
        <pt x="411" y="21" on="0"/>
        <pt x="478" y="62" on="0"/>
        <pt x="510" y="100" on="1"/>
      </contour>
    </TTGlyph>
    <TTGlyph name="comma" xMin="208" yMin="-210" xMax="369" yMax="106">
      <contour>
        <pt x="208" y="-185" on="1"/>
        <pt x="268" y="-154" on="0"/>
        <pt x="329" y="-66" on="0"/>
        <pt x="331" y="3" on="1"/>
        <pt x="320" y="-1" on="0"/>
        <pt x="307" y="-1" on="1"/>
        <pt x="283" y="-1" on="0"/>
        <pt x="253" y="24" on="0"/>
        <pt x="253" y="52" on="1"/>
        <pt x="253" y="81" on="0"/>
        <pt x="286" y="106" on="0"/>
        <pt x="306" y="106" on="1"/>
        <pt x="337" y="106" on="0"/>
        <pt x="369" y="55" on="0"/>
        <pt x="369" y="13" on="1"/>
        <pt x="369" y="-69" on="0"/>
        <pt x="287" y="-180" on="0"/>
        <pt x="221" y="-210" on="1"/>
      </contour>
    </TTGlyph>
    <TTGlyph name="comma.dnom" xMin="258" yMin="-104" xMax="342" yMax="60">
      <contour>
        <pt x="258" y="-82" on="1"/>
        <pt x="281" y="-71" on="0"/>
        <pt x="311" y="-30" on="0"/>
        <pt x="312" y="-1" on="1"/>
        <pt x="309" y="-2" on="0"/>
        <pt x="302" y="-2" on="1"/>
        <pt x="290" y="-2" on="0"/>
        <pt x="270" y="11" on="0"/>
        <pt x="270" y="26" on="1"/>
        <pt x="270" y="43" on="0"/>
        <pt x="290" y="60" on="0"/>
        <pt x="302" y="60" on="1"/>
        <pt x="320" y="60" on="0"/>
        <pt x="342" y="33" on="0"/>
        <pt x="342" y="6" on="1"/>
        <pt x="342" y="-29" on="0"/>
        <pt x="302" y="-89" on="0"/>
        <pt x="270" y="-104" on="1"/>
      </contour>
    </TTGlyph>
    <TTGlyph name="comma.numr" xMin="258" yMin="166" xMax="342" yMax="330">
      <component glyphName="comma.dnom" x="0" y="270" flags="0x204"/>
    </TTGlyph>
    <TTGlyph name="comma.subs" xMin="258" yMin="-273" xMax="342" yMax="-109">
      <component glyphName="comma.dnom" x="0" y="-169" flags="0x204"/>
    </TTGlyph>
    <TTGlyph name="comma.sups" xMin="258" yMin="336" xMax="342" yMax="500">
      <component glyphName="comma.dnom" x="0" y="440" flags="0x204"/>
    </TTGlyph>
    <TTGlyph name="copyright" xMin="40" yMin="-12" xMax="560" yMax="652">
      <contour>
        <pt x="40" y="322" on="1"/>
        <pt x="40" y="397" on="0"/>
        <pt x="78" y="519" on="0"/>
        <pt x="147" y="605" on="0"/>
        <pt x="242" y="652" on="0"/>
        <pt x="300" y="652" on="1"/>
        <pt x="358" y="652" on="0"/>
        <pt x="453" y="605" on="0"/>
        <pt x="522" y="519" on="0"/>
        <pt x="560" y="397" on="0"/>
        <pt x="560" y="322" on="1"/>
        <pt x="560" y="246" on="0"/>
        <pt x="522" y="123" on="0"/>
        <pt x="453" y="36" on="0"/>
        <pt x="358" y="-12" on="0"/>
        <pt x="300" y="-12" on="1"/>
        <pt x="242" y="-12" on="0"/>
        <pt x="147" y="36" on="0"/>
        <pt x="78" y="123" on="0"/>
        <pt x="40" y="246" on="0"/>
      </contour>
      <contour>
        <pt x="70" y="322" on="1"/>
        <pt x="70" y="253" on="0"/>
        <pt x="103" y="139" on="0"/>
        <pt x="163" y="58" on="0"/>
        <pt x="248" y="14" on="0"/>
        <pt x="300" y="14" on="1"/>
        <pt x="352" y="14" on="0"/>
        <pt x="437" y="58" on="0"/>
        <pt x="497" y="139" on="0"/>
        <pt x="530" y="253" on="0"/>
        <pt x="530" y="322" on="1"/>
        <pt x="530" y="391" on="0"/>
        <pt x="497" y="503" on="0"/>
        <pt x="437" y="582" on="0"/>
        <pt x="352" y="626" on="0"/>
        <pt x="300" y="626" on="1"/>
        <pt x="248" y="626" on="0"/>
        <pt x="163" y="582" on="0"/>
        <pt x="103" y="503" on="0"/>
        <pt x="70" y="391" on="0"/>
      </contour>
      <contour>
        <pt x="152" y="322" on="1"/>
        <pt x="152" y="365" on="0"/>
        <pt x="178" y="434" on="0"/>
        <pt x="221" y="482" on="0"/>
        <pt x="278" y="508" on="0"/>
        <pt x="310" y="508" on="1"/>
        <pt x="343" y="508" on="0"/>
        <pt x="388" y="484" on="0"/>
        <pt x="408" y="464" on="1"/>
        <pt x="390" y="442" on="1"/>
        <pt x="370" y="459" on="0"/>
        <pt x="334" y="478" on="0"/>
        <pt x="308" y="478" on="1"/>
        <pt x="255" y="478" on="0"/>
        <pt x="186" y="393" on="0"/>
        <pt x="186" y="322" on="1"/>
        <pt x="186" y="244" on="0"/>
        <pt x="252" y="154" on="0"/>
        <pt x="306" y="154" on="1"/>
        <pt x="338" y="154" on="0"/>
        <pt x="384" y="179" on="0"/>
        <pt x="404" y="196" on="1"/>
        <pt x="420" y="174" on="1"/>
        <pt x="397" y="153" on="0"/>
        <pt x="346" y="124" on="0"/>
        <pt x="304" y="124" on="1"/>
        <pt x="273" y="124" on="0"/>
        <pt x="218" y="150" on="0"/>
        <pt x="176" y="201" on="0"/>
        <pt x="152" y="275" on="0"/>
      </contour>
    </TTGlyph>
    <TTGlyph name="currency" xMin="76" yMin="98" xMax="524" yMax="562">
      <contour>
        <pt x="76" y="120" on="1"/>
        <pt x="162" y="208" on="1"/>
        <pt x="144" y="232" on="0"/>
        <pt x="124" y="293" on="0"/>
        <pt x="124" y="328" on="1"/>
        <pt x="124" y="365" on="0"/>
        <pt x="144" y="427" on="0"/>
        <pt x="162" y="451" on="1"/>
        <pt x="76" y="540" on="1"/>
        <pt x="96" y="562" on="1"/>
        <pt x="182" y="473" on="1"/>
        <pt x="205" y="496" on="0"/>
        <pt x="266" y="520" on="0"/>
        <pt x="300" y="520" on="1"/>
        <pt x="333" y="520" on="0"/>
        <pt x="394" y="496" on="0"/>
        <pt x="418" y="473" on="1"/>
        <pt x="504" y="562" on="1"/>
        <pt x="524" y="540" on="1"/>
        <pt x="437" y="451" on="1"/>
        <pt x="455" y="427" on="0"/>
        <pt x="476" y="365" on="0"/>
        <pt x="476" y="328" on="1"/>
        <pt x="476" y="293" on="0"/>
        <pt x="455" y="232" on="0"/>
        <pt x="438" y="208" on="1"/>
        <pt x="524" y="120" on="1"/>
        <pt x="504" y="98" on="1"/>
        <pt x="418" y="186" on="1"/>
        <pt x="395" y="163" on="0"/>
        <pt x="333" y="138" on="0"/>
        <pt x="300" y="138" on="1"/>
        <pt x="231" y="138" on="0"/>
        <pt x="181" y="186" on="1"/>
        <pt x="96" y="98" on="1"/>
      </contour>
      <contour>
        <pt x="156" y="328" on="1"/>
        <pt x="156" y="292" on="0"/>
        <pt x="179" y="232" on="0"/>
        <pt x="218" y="190" on="0"/>
        <pt x="271" y="166" on="0"/>
        <pt x="300" y="166" on="1"/>
        <pt x="329" y="166" on="0"/>
        <pt x="382" y="190" on="0"/>
        <pt x="421" y="232" on="0"/>
        <pt x="444" y="292" on="0"/>
        <pt x="444" y="328" on="1"/>
        <pt x="444" y="364" on="0"/>
        <pt x="421" y="424" on="0"/>
        <pt x="382" y="468" on="0"/>
        <pt x="329" y="492" on="0"/>
        <pt x="300" y="492" on="1"/>
        <pt x="271" y="492" on="0"/>
        <pt x="218" y="468" on="0"/>
        <pt x="179" y="424" on="0"/>
        <pt x="156" y="364" on="0"/>
      </contour>
    </TTGlyph>
    <TTGlyph name="d" xMin="70" yMin="-12" xMax="490" yMax="722">
      <contour>
        <pt x="70" y="238" on="1"/>
        <pt x="70" y="296" on="0"/>
        <pt x="107" y="389" on="0"/>
        <pt x="170" y="455" on="0"/>
        <pt x="253" y="490" on="0"/>
        <pt x="298" y="490" on="1"/>
        <pt x="345" y="490" on="0"/>
        <pt x="422" y="453" on="0"/>
        <pt x="462" y="420" on="1"/>
        <pt x="460" y="520" on="1"/>
        <pt x="460" y="722" on="1"/>
        <pt x="490" y="722" on="1"/>
        <pt x="490" y="0" on="1"/>
        <pt x="464" y="0" on="1"/>
        <pt x="460" y="74" on="1"/>
        <pt x="458" y="74" on="1"/>
        <pt x="426" y="40" on="0"/>
        <pt x="335" y="-12" on="0"/>
        <pt x="282" y="-12" on="1"/>
        <pt x="235" y="-12" on="0"/>
        <pt x="157" y="21" on="0"/>
        <pt x="101" y="84" on="0"/>
        <pt x="70" y="177" on="0"/>
      </contour>
      <contour>
        <pt x="102" y="238" on="1"/>
        <pt x="102" y="188" on="0"/>
        <pt x="127" y="107" on="0"/>
        <pt x="174" y="48" on="0"/>
        <pt x="241" y="16" on="0"/>
        <pt x="284" y="16" on="1"/>
        <pt x="329" y="16" on="0"/>
        <pt x="417" y="65" on="0"/>
        <pt x="460" y="110" on="1"/>
        <pt x="460" y="386" on="1"/>
        <pt x="416" y="428" on="0"/>
        <pt x="336" y="462" on="0"/>
        <pt x="296" y="462" on="1"/>
        <pt x="255" y="462" on="0"/>
        <pt x="185" y="427" on="0"/>
        <pt x="132" y="366" on="0"/>
        <pt x="102" y="284" on="0"/>
      </contour>
    </TTGlyph>
    <TTGlyph name="d.sups" xMin="144" yMin="252" xMax="426" yMax="734">
      <contour>
        <pt x="144" y="418" on="1"/>
        <pt x="144" y="457" on="0"/>
        <pt x="168" y="518" on="0"/>
        <pt x="209" y="562" on="0"/>
        <pt x="263" y="585" on="0"/>
        <pt x="293" y="585" on="1"/>
        <pt x="324" y="585" on="0"/>
        <pt x="370" y="565" on="0"/>
        <pt x="396" y="546" on="1"/>
        <pt x="394" y="604" on="1"/>
        <pt x="394" y="734" on="1"/>
        <pt x="426" y="734" on="1"/>
        <pt x="426" y="260" on="1"/>
        <pt x="399" y="260" on="1"/>
        <pt x="395" y="301" on="1"/>
        <pt x="394" y="301" on="1"/>
        <pt x="373" y="281" on="0"/>
        <pt x="317" y="252" on="0"/>
        <pt x="283" y="252" on="1"/>
        <pt x="220" y="252" on="0"/>
        <pt x="144" y="337" on="0"/>
      </contour>
      <contour>
        <pt x="177" y="418" on="1"/>
        <pt x="177" y="355" on="0"/>
        <pt x="234" y="280" on="0"/>
        <pt x="288" y="280" on="1"/>
        <pt x="316" y="280" on="0"/>
        <pt x="368" y="306" on="0"/>
        <pt x="394" y="331" on="1"/>
        <pt x="394" y="517" on="1"/>
        <pt x="367" y="539" on="0"/>
        <pt x="320" y="557" on="0"/>
        <pt x="295" y="557" on="1"/>
        <pt x="270" y="557" on="0"/>
        <pt x="227" y="536" on="0"/>
        <pt x="195" y="498" on="0"/>
        <pt x="177" y="448" on="0"/>
      </contour>
    </TTGlyph>
    <TTGlyph name="dagger" xMin="158" yMin="-80" xMax="442" yMax="712">
      <contour>
        <pt x="286" y="534" on="1"/>
        <pt x="158" y="532" on="1"/>
        <pt x="158" y="564" on="1"/>
        <pt x="286" y="562" on="1"/>
        <pt x="284" y="712" on="1"/>
        <pt x="316" y="712" on="1"/>
        <pt x="314" y="562" on="1"/>
        <pt x="442" y="564" on="1"/>
        <pt x="442" y="532" on="1"/>
        <pt x="314" y="534" on="1"/>
        <pt x="316" y="-80" on="1"/>
        <pt x="284" y="-80" on="1"/>
      </contour>
    </TTGlyph>
    <TTGlyph name="daggerdbl" xMin="158" yMin="-80" xMax="442" yMax="712">
      <contour>
        <pt x="158" y="100" on="1"/>
        <pt x="286" y="98" on="1"/>
        <pt x="284" y="316" on="1"/>
        <pt x="286" y="534" on="1"/>
        <pt x="158" y="532" on="1"/>
        <pt x="158" y="564" on="1"/>
        <pt x="286" y="562" on="1"/>
        <pt x="284" y="712" on="1"/>
        <pt x="316" y="712" on="1"/>
        <pt x="314" y="562" on="1"/>
        <pt x="442" y="564" on="1"/>
        <pt x="442" y="532" on="1"/>
        <pt x="314" y="534" on="1"/>
        <pt x="316" y="316" on="1"/>
        <pt x="314" y="98" on="1"/>
        <pt x="442" y="100" on="1"/>
        <pt x="442" y="68" on="1"/>
        <pt x="314" y="70" on="1"/>
        <pt x="316" y="-80" on="1"/>
        <pt x="284" y="-80" on="1"/>
        <pt x="286" y="70" on="1"/>
        <pt x="158" y="68" on="1"/>
      </contour>
    </TTGlyph>
    <TTGlyph name="dcaron" xMin="70" yMin="-12" xMax="567" yMax="752">
      <component glyphName="d" x="0" y="0" flags="0x204"/>
      <component glyphName="uni030C.a" x="267" y="0" flags="0x4"/>
    </TTGlyph>
    <TTGlyph name="dcroat" xMin="70" yMin="-12" xMax="566" yMax="722">
      <contour>
        <pt x="460" y="366" on="1"/>
        <pt x="416" y="408" on="0"/>
        <pt x="336" y="442" on="0"/>
        <pt x="296" y="442" on="1"/>
        <pt x="255" y="442" on="0"/>
        <pt x="185" y="408" on="0"/>
        <pt x="132" y="350" on="0"/>
        <pt x="102" y="272" on="0"/>
        <pt x="102" y="228" on="1"/>
        <pt x="102" y="181" on="0"/>
        <pt x="127" y="103" on="0"/>
        <pt x="174" y="47" on="0"/>
        <pt x="241" y="16" on="0"/>
        <pt x="284" y="16" on="1"/>
        <pt x="329" y="16" on="0"/>
        <pt x="417" y="65" on="0"/>
        <pt x="460" y="110" on="1"/>
      </contour>
      <contour>
        <pt x="566" y="612" on="1"/>
        <pt x="566" y="588" on="1"/>
        <pt x="490" y="584" on="1"/>
        <pt x="490" y="0" on="1"/>
        <pt x="464" y="0" on="1"/>
        <pt x="460" y="74" on="1"/>
        <pt x="458" y="74" on="1"/>
        <pt x="426" y="40" on="0"/>
        <pt x="335" y="-12" on="0"/>
        <pt x="282" y="-12" on="1"/>
        <pt x="235" y="-12" on="0"/>
        <pt x="157" y="19" on="0"/>
        <pt x="101" y="80" on="0"/>
        <pt x="70" y="169" on="0"/>
        <pt x="70" y="228" on="1"/>
        <pt x="70" y="283" on="0"/>
        <pt x="107" y="373" on="0"/>
        <pt x="170" y="436" on="0"/>
        <pt x="253" y="470" on="0"/>
        <pt x="298" y="470" on="1"/>
        <pt x="345" y="470" on="0"/>
        <pt x="422" y="433" on="0"/>
        <pt x="462" y="400" on="1"/>
        <pt x="460" y="500" on="1"/>
        <pt x="460" y="584" on="1"/>
        <pt x="272" y="584" on="1"/>
        <pt x="272" y="612" on="1"/>
        <pt x="460" y="612" on="1"/>
        <pt x="460" y="722" on="1"/>
        <pt x="490" y="722" on="1"/>
        <pt x="490" y="612" on="1"/>
      </contour>
    </TTGlyph>
    <TTGlyph name="degree" xMin="190" yMin="454" xMax="410" yMax="684">
      <contour>
        <pt x="300" y="454" on="1"/>
        <pt x="279" y="454" on="0"/>
        <pt x="239" y="469" on="0"/>
        <pt x="209" y="499" on="0"/>
        <pt x="190" y="541" on="0"/>
        <pt x="190" y="568" on="1"/>
        <pt x="190" y="596" on="0"/>
        <pt x="209" y="639" on="0"/>
        <pt x="239" y="669" on="0"/>
        <pt x="279" y="684" on="0"/>
        <pt x="300" y="684" on="1"/>
        <pt x="321" y="684" on="0"/>
        <pt x="361" y="669" on="0"/>
        <pt x="391" y="639" on="0"/>
        <pt x="410" y="596" on="0"/>
        <pt x="410" y="568" on="1"/>
        <pt x="410" y="541" on="0"/>
        <pt x="391" y="499" on="0"/>
        <pt x="361" y="469" on="0"/>
        <pt x="321" y="454" on="0"/>
      </contour>
      <contour>
        <pt x="300" y="480" on="1"/>
        <pt x="336" y="480" on="0"/>
        <pt x="382" y="530" on="0"/>
        <pt x="382" y="568" on="1"/>
        <pt x="382" y="607" on="0"/>
        <pt x="336" y="658" on="0"/>
        <pt x="300" y="658" on="1"/>
        <pt x="264" y="658" on="0"/>
        <pt x="218" y="607" on="0"/>
        <pt x="218" y="568" on="1"/>
        <pt x="218" y="530" on="0"/>
        <pt x="264" y="480" on="0"/>
      </contour>
    </TTGlyph>
    <TTGlyph name="dieresis" xMin="180" yMin="602" xMax="420" yMax="674">
      <component glyphName="uni0308" x="0" y="0" flags="0x204"/>
    </TTGlyph>
    <TTGlyph name="divide" xMin="98" yMin="114" xMax="502" yMax="544">
      <contour>
        <pt x="300" y="474" on="1"/>
        <pt x="286" y="474" on="0"/>
        <pt x="268" y="493" on="0"/>
        <pt x="268" y="510" on="1"/>
        <pt x="268" y="525" on="0"/>
        <pt x="286" y="544" on="0"/>
        <pt x="300" y="544" on="1"/>
        <pt x="314" y="544" on="0"/>
        <pt x="332" y="525" on="0"/>
        <pt x="332" y="510" on="1"/>
        <pt x="332" y="493" on="0"/>
        <pt x="314" y="474" on="0"/>
      </contour>
      <contour>
        <pt x="268" y="150" on="1"/>
        <pt x="268" y="165" on="0"/>
        <pt x="286" y="184" on="0"/>
        <pt x="300" y="184" on="1"/>
        <pt x="314" y="184" on="0"/>
        <pt x="332" y="165" on="0"/>
        <pt x="332" y="150" on="1"/>
        <pt x="332" y="133" on="0"/>
        <pt x="314" y="114" on="0"/>
        <pt x="300" y="114" on="1"/>
        <pt x="286" y="114" on="0"/>
        <pt x="268" y="133" on="0"/>
      </contour>
      <contour>
        <pt x="98" y="344" on="1"/>
        <pt x="502" y="344" on="1"/>
        <pt x="502" y="316" on="1"/>
        <pt x="98" y="316" on="1"/>
      </contour>
    </TTGlyph>
    <TTGlyph name="dollar" xMin="102" yMin="-110" xMax="502" yMax="750">
      <contour>
        <pt x="460" y="528" on="1"/>
        <pt x="443" y="542" on="0"/>
        <pt x="413" y="565" on="0"/>
        <pt x="377" y="581" on="0"/>
        <pt x="334" y="590" on="0"/>
        <pt x="306" y="590" on="1"/>
        <pt x="242" y="590" on="0"/>
        <pt x="164" y="529" on="0"/>
        <pt x="164" y="478" on="1"/>
        <pt x="164" y="442" on="0"/>
        <pt x="214" y="397" on="0"/>
        <pt x="289" y="362" on="0"/>
        <pt x="377" y="331" on="0"/>
        <pt x="452" y="290" on="0"/>
        <pt x="502" y="230" on="0"/>
        <pt x="502" y="184" on="1"/>
        <pt x="502" y="150" on="0"/>
        <pt x="474" y="96" on="0"/>
        <pt x="425" y="57" on="0"/>
        <pt x="360" y="35" on="0"/>
        <pt x="323" y="34" on="1"/>
        <pt x="323" y="-110" on="1"/>
        <pt x="293" y="-110" on="1"/>
        <pt x="293" y="35" on="1"/>
        <pt x="230" y="38" on="0"/>
        <pt x="134" y="86" on="0"/>
        <pt x="102" y="112" on="1"/>
        <pt x="120" y="134" on="1"/>
        <pt x="135" y="121" on="0"/>
        <pt x="175" y="96" on="0"/>
        <pt x="223" y="75" on="0"/>
        <pt x="279" y="62" on="0"/>
        <pt x="311" y="62" on="1"/>
        <pt x="389" y="62" on="0"/>
        <pt x="470" y="129" on="0"/>
        <pt x="470" y="182" on="1"/>
        <pt x="470" y="221" on="0"/>
        <pt x="420" y="272" on="0"/>
        <pt x="345" y="310" on="0"/>
        <pt x="257" y="341" on="0"/>
        <pt x="182" y="380" on="0"/>
        <pt x="132" y="434" on="0"/>
        <pt x="132" y="476" on="1"/>
        <pt x="132" y="507" on="0"/>
        <pt x="157" y="558" on="0"/>
        <pt x="200" y="594" on="0"/>
        <pt x="259" y="616" on="0"/>
        <pt x="293" y="618" on="1"/>
        <pt x="293" y="750" on="1"/>
        <pt x="323" y="750" on="1"/>
        <pt x="323" y="618" on="1"/>
        <pt x="380" y="615" on="0"/>
        <pt x="451" y="575" on="0"/>
        <pt x="480" y="548" on="1"/>
      </contour>
    </TTGlyph>
    <TTGlyph name="dollar.a" xMin="102" yMin="-112" xMax="502" yMax="752">
      <contour>
        <pt x="273" y="65" on="1"/>
        <pt x="291" y="62" on="0"/>
        <pt x="311" y="62" on="1"/>
        <pt x="389" y="62" on="0"/>
        <pt x="470" y="129" on="0"/>
        <pt x="470" y="182" on="1"/>
        <pt x="470" y="209" on="0"/>
        <pt x="445" y="250" on="0"/>
        <pt x="403" y="281" on="0"/>
        <pt x="349" y="306" on="0"/>
        <pt x="320" y="318" on="1"/>
      </contour>
      <contour>
        <pt x="339" y="588" on="1"/>
        <pt x="331" y="589" on="0"/>
        <pt x="315" y="590" on="0"/>
        <pt x="306" y="590" on="1"/>
        <pt x="242" y="590" on="0"/>
        <pt x="164" y="529" on="0"/>
        <pt x="164" y="478" on="1"/>
        <pt x="164" y="455" on="0"/>
        <pt x="186" y="420" on="0"/>
        <pt x="222" y="393" on="0"/>
        <pt x="270" y="371" on="0"/>
        <pt x="297" y="361" on="1"/>
      </contour>
      <contour>
        <pt x="326" y="350" on="1"/>
        <pt x="359" y="337" on="0"/>
        <pt x="422" y="309" on="0"/>
        <pt x="471" y="271" on="0"/>
        <pt x="502" y="220" on="0"/>
        <pt x="502" y="184" on="1"/>
        <pt x="502" y="149" on="0"/>
        <pt x="471" y="93" on="0"/>
        <pt x="419" y="54" on="0"/>
        <pt x="350" y="34" on="0"/>
        <pt x="311" y="34" on="1"/>
        <pt x="289" y="34" on="0"/>
        <pt x="268" y="37" on="1"/>
        <pt x="241" y="-112" on="1"/>
        <pt x="211" y="-108" on="1"/>
        <pt x="239" y="43" on="1"/>
        <pt x="195" y="53" on="0"/>
        <pt x="126" y="92" on="0"/>
        <pt x="102" y="112" on="1"/>
        <pt x="120" y="134" on="1"/>
        <pt x="142" y="116" on="0"/>
        <pt x="204" y="80" on="0"/>
        <pt x="244" y="70" on="1"/>
        <pt x="291" y="329" on="1"/>
        <pt x="261" y="341" on="0"/>
        <pt x="203" y="367" on="0"/>
        <pt x="159" y="402" on="0"/>
        <pt x="132" y="446" on="0"/>
        <pt x="132" y="476" on="1"/>
        <pt x="132" y="509" on="0"/>
        <pt x="159" y="562" on="0"/>
        <pt x="207" y="598" on="0"/>
        <pt x="272" y="618" on="0"/>
        <pt x="309" y="618" on="1"/>
        <pt x="318" y="618" on="0"/>
        <pt x="336" y="617" on="0"/>
        <pt x="344" y="616" on="1"/>
        <pt x="369" y="752" on="1"/>
        <pt x="399" y="748" on="1"/>
        <pt x="374" y="611" on="1"/>
        <pt x="409" y="602" on="0"/>
        <pt x="458" y="568" on="0"/>
        <pt x="480" y="548" on="1"/>
        <pt x="460" y="528" on="1"/>
        <pt x="437" y="548" on="0"/>
        <pt x="396" y="575" on="0"/>
        <pt x="369" y="583" on="1"/>
      </contour>
    </TTGlyph>
    <TTGlyph name="dong" xMin="124" yMin="0" xMax="532" yMax="676">
      <contour>
        <pt x="134" y="28" on="1"/>
        <pt x="480" y="28" on="1"/>
        <pt x="480" y="0" on="1"/>
        <pt x="134" y="0" on="1"/>
      </contour>
      <contour>
        <pt x="420" y="390" on="1"/>
        <pt x="403" y="404" on="0"/>
        <pt x="373" y="425" on="0"/>
        <pt x="344" y="438" on="0"/>
        <pt x="313" y="444" on="0"/>
        <pt x="294" y="444" on="1"/>
        <pt x="265" y="444" on="0"/>
        <pt x="214" y="420" on="0"/>
        <pt x="177" y="380" on="0"/>
        <pt x="156" y="326" on="0"/>
        <pt x="156" y="296" on="1"/>
        <pt x="156" y="222" on="0"/>
        <pt x="225" y="134" on="0"/>
        <pt x="290" y="134" on="1"/>
        <pt x="322" y="134" on="0"/>
        <pt x="388" y="165" on="0"/>
        <pt x="420" y="200" on="1"/>
      </contour>
      <contour>
        <pt x="532" y="594" on="1"/>
        <pt x="532" y="570" on="1"/>
        <pt x="450" y="566" on="1"/>
        <pt x="450" y="116" on="1"/>
        <pt x="426" y="116" on="1"/>
        <pt x="422" y="164" on="1"/>
        <pt x="418" y="164" on="1"/>
        <pt x="393" y="140" on="0"/>
        <pt x="330" y="106" on="0"/>
        <pt x="288" y="106" on="1"/>
        <pt x="213" y="106" on="0"/>
        <pt x="124" y="202" on="0"/>
        <pt x="124" y="294" on="1"/>
        <pt x="124" y="334" on="0"/>
        <pt x="152" y="400" on="0"/>
        <pt x="200" y="447" on="0"/>
        <pt x="262" y="472" on="0"/>
        <pt x="296" y="472" on="1"/>
        <pt x="338" y="472" on="0"/>
        <pt x="395" y="444" on="0"/>
        <pt x="424" y="420" on="1"/>
        <pt x="420" y="516" on="1"/>
        <pt x="420" y="566" on="1"/>
        <pt x="264" y="566" on="1"/>
        <pt x="264" y="594" on="1"/>
        <pt x="420" y="594" on="1"/>
        <pt x="420" y="676" on="1"/>
        <pt x="450" y="676" on="1"/>
        <pt x="450" y="594" on="1"/>
      </contour>
    </TTGlyph>
    <TTGlyph name="dotaccent" xMin="260" yMin="600" xMax="340" yMax="684">
      <component glyphName="uni0307" x="0" y="0" flags="0x204"/>
    </TTGlyph>
    <TTGlyph name="dotlessi" xMin="100" yMin="0" xMax="376" yMax="478">
      <contour>
        <pt x="100" y="478" on="1"/>
        <pt x="376" y="478" on="1"/>
        <pt x="376" y="0" on="1"/>
        <pt x="346" y="0" on="1"/>
        <pt x="346" y="450" on="1"/>
        <pt x="100" y="450" on="1"/>
      </contour>
    </TTGlyph>
    <TTGlyph name="e" xMin="80" yMin="-12" xMax="530" yMax="490">
      <contour>
        <pt x="80" y="238" on="1"/>
        <pt x="80" y="296" on="0"/>
        <pt x="120" y="390" on="0"/>
        <pt x="187" y="455" on="0"/>
        <pt x="273" y="490" on="0"/>
        <pt x="318" y="490" on="1"/>
        <pt x="366" y="490" on="0"/>
        <pt x="444" y="460" on="0"/>
        <pt x="500" y="403" on="0"/>
        <pt x="530" y="322" on="0"/>
        <pt x="530" y="270" on="1"/>
        <pt x="530" y="262" on="0"/>
        <pt x="530" y="247" on="0"/>
        <pt x="528" y="238" on="1"/>
        <pt x="112" y="238" on="1"/>
        <pt x="112" y="190" on="0"/>
        <pt x="144" y="109" on="0"/>
        <pt x="201" y="49" on="0"/>
        <pt x="282" y="16" on="0"/>
        <pt x="332" y="16" on="1"/>
        <pt x="382" y="16" on="0"/>
        <pt x="462" y="46" on="0"/>
        <pt x="496" y="70" on="1"/>
        <pt x="510" y="44" on="1"/>
        <pt x="494" y="34" on="0"/>
        <pt x="459" y="14" on="0"/>
        <pt x="415" y="-2" on="0"/>
        <pt x="363" y="-12" on="0"/>
        <pt x="330" y="-12" on="1"/>
        <pt x="279" y="-12" on="0"/>
        <pt x="188" y="22" on="0"/>
        <pt x="120" y="87" on="0"/>
        <pt x="80" y="179" on="0"/>
      </contour>
      <contour>
        <pt x="500" y="266" on="1"/>
        <pt x="500" y="364" on="0"/>
        <pt x="399" y="462" on="0"/>
        <pt x="318" y="462" on="1"/>
        <pt x="280" y="462" on="0"/>
        <pt x="210" y="434" on="0"/>
        <pt x="155" y="383" on="0"/>
        <pt x="117" y="311" on="0"/>
        <pt x="112" y="266" on="1"/>
      </contour>
    </TTGlyph>
    <TTGlyph name="e.sups" xMin="170" yMin="252" xMax="451" yMax="585">
      <contour>
        <pt x="170" y="418" on="1"/>
        <pt x="170" y="457" on="0"/>
        <pt x="195" y="519" on="0"/>
        <pt x="237" y="562" on="0"/>
        <pt x="290" y="585" on="0"/>
        <pt x="319" y="585" on="1"/>
        <pt x="380" y="585" on="0"/>
        <pt x="451" y="508" on="0"/>
        <pt x="451" y="438" on="1"/>
        <pt x="451" y="432" on="0"/>
        <pt x="450" y="420" on="0"/>
        <pt x="449" y="414" on="1"/>
        <pt x="202" y="414" on="1"/>
        <pt x="203" y="384" on="0"/>
        <pt x="222" y="335" on="0"/>
        <pt x="256" y="299" on="0"/>
        <pt x="302" y="279" on="0"/>
        <pt x="331" y="279" on="1"/>
        <pt x="359" y="279" on="0"/>
        <pt x="404" y="294" on="0"/>
        <pt x="424" y="307" on="1"/>
        <pt x="437" y="283" on="1"/>
        <pt x="417" y="272" on="0"/>
        <pt x="365" y="252" on="0"/>
        <pt x="327" y="252" on="1"/>
        <pt x="295" y="252" on="0"/>
        <pt x="238" y="275" on="0"/>
        <pt x="195" y="317" on="0"/>
        <pt x="170" y="379" on="0"/>
      </contour>
      <contour>
        <pt x="421" y="438" on="1"/>
        <pt x="421" y="498" on="0"/>
        <pt x="366" y="558" on="0"/>
        <pt x="319" y="558" on="1"/>
        <pt x="276" y="558" on="0"/>
        <pt x="208" y="495" on="0"/>
        <pt x="202" y="438" on="1"/>
      </contour>
    </TTGlyph>
    <TTGlyph name="eacute" xMin="80" yMin="-12" xMax="530" yMax="706">
      <component glyphName="e" x="0" y="0" flags="0x204"/>
      <component glyphName="uni0301" x="16" y="0" flags="0x4"/>
    </TTGlyph>
    <TTGlyph name="eacute.sups" xMin="170" yMin="252" xMax="451" yMax="729">
      <contour>
        <pt x="170" y="418" on="1"/>
        <pt x="170" y="457" on="0"/>
        <pt x="195" y="519" on="0"/>
        <pt x="237" y="562" on="0"/>
        <pt x="290" y="585" on="0"/>
        <pt x="319" y="585" on="1"/>
        <pt x="380" y="585" on="0"/>
        <pt x="451" y="508" on="0"/>
        <pt x="451" y="438" on="1"/>
        <pt x="451" y="432" on="0"/>
        <pt x="450" y="420" on="0"/>
        <pt x="449" y="414" on="1"/>
        <pt x="202" y="414" on="1"/>
        <pt x="203" y="384" on="0"/>
        <pt x="222" y="335" on="0"/>
        <pt x="256" y="299" on="0"/>
        <pt x="302" y="279" on="0"/>
        <pt x="331" y="279" on="1"/>
        <pt x="359" y="279" on="0"/>
        <pt x="404" y="294" on="0"/>
        <pt x="424" y="307" on="1"/>
        <pt x="437" y="283" on="1"/>
        <pt x="417" y="272" on="0"/>
        <pt x="365" y="252" on="0"/>
        <pt x="327" y="252" on="1"/>
        <pt x="295" y="252" on="0"/>
        <pt x="238" y="275" on="0"/>
        <pt x="195" y="317" on="0"/>
        <pt x="170" y="379" on="0"/>
      </contour>
      <contour>
        <pt x="421" y="438" on="1"/>
        <pt x="421" y="498" on="0"/>
        <pt x="366" y="558" on="0"/>
        <pt x="319" y="558" on="1"/>
        <pt x="276" y="558" on="0"/>
        <pt x="208" y="495" on="0"/>
        <pt x="202" y="438" on="1"/>
      </contour>
      <contour>
        <pt x="307" y="638" on="1"/>
        <pt x="280" y="638" on="1"/>
        <pt x="342" y="729" on="1"/>
        <pt x="379" y="729" on="1"/>
      </contour>
    </TTGlyph>
    <TTGlyph name="ebreve" xMin="80" yMin="-12" xMax="530" yMax="692">
      <component glyphName="e" x="0" y="0" flags="0x204"/>
      <component glyphName="uni0306" x="16" y="0" flags="0x4"/>
    </TTGlyph>
    <TTGlyph name="ecaron" xMin="80" yMin="-12" xMax="530" yMax="706">
      <component glyphName="e" x="0" y="0" flags="0x204"/>
      <component glyphName="uni030C" x="16" y="0" flags="0x4"/>
    </TTGlyph>
    <TTGlyph name="ecircumflex" xMin="80" yMin="-12" xMax="530" yMax="706">
      <component glyphName="e" x="0" y="0" flags="0x204"/>
      <component glyphName="uni0302" x="16" y="0" flags="0x4"/>
    </TTGlyph>
    <TTGlyph name="edieresis" xMin="80" yMin="-12" xMax="530" yMax="674">
      <component glyphName="e" x="0" y="0" flags="0x204"/>
      <component glyphName="uni0308" x="17" y="0" flags="0x4"/>
    </TTGlyph>
    <TTGlyph name="edotaccent" xMin="80" yMin="-12" xMax="530" yMax="684">
      <component glyphName="e" x="0" y="0" flags="0x204"/>
      <component glyphName="uni0307" x="16" y="0" flags="0x4"/>
    </TTGlyph>
    <TTGlyph name="egrave" xMin="80" yMin="-12" xMax="530" yMax="706">
      <component glyphName="e" x="0" y="0" flags="0x204"/>
      <component glyphName="uni0300" x="16" y="0" flags="0x4"/>
    </TTGlyph>
    <TTGlyph name="egrave.sups" xMin="170" yMin="252" xMax="451" yMax="729">
      <contour>
        <pt x="170" y="418" on="1"/>
        <pt x="170" y="457" on="0"/>
        <pt x="195" y="519" on="0"/>
        <pt x="237" y="562" on="0"/>
        <pt x="290" y="585" on="0"/>
        <pt x="319" y="585" on="1"/>
        <pt x="380" y="585" on="0"/>
        <pt x="451" y="508" on="0"/>
        <pt x="451" y="438" on="1"/>
        <pt x="451" y="432" on="0"/>
        <pt x="450" y="420" on="0"/>
        <pt x="449" y="414" on="1"/>
        <pt x="202" y="414" on="1"/>
        <pt x="203" y="384" on="0"/>
        <pt x="222" y="335" on="0"/>
        <pt x="256" y="299" on="0"/>
        <pt x="302" y="279" on="0"/>
        <pt x="331" y="279" on="1"/>
        <pt x="359" y="279" on="0"/>
        <pt x="404" y="294" on="0"/>
        <pt x="424" y="307" on="1"/>
        <pt x="437" y="283" on="1"/>
        <pt x="417" y="272" on="0"/>
        <pt x="365" y="252" on="0"/>
        <pt x="327" y="252" on="1"/>
        <pt x="295" y="252" on="0"/>
        <pt x="238" y="275" on="0"/>
        <pt x="195" y="317" on="0"/>
        <pt x="170" y="379" on="0"/>
      </contour>
      <contour>
        <pt x="421" y="438" on="1"/>
        <pt x="421" y="498" on="0"/>
        <pt x="366" y="558" on="0"/>
        <pt x="319" y="558" on="1"/>
        <pt x="276" y="558" on="0"/>
        <pt x="208" y="495" on="0"/>
        <pt x="202" y="438" on="1"/>
      </contour>
      <contour>
        <pt x="257" y="729" on="1"/>
        <pt x="295" y="729" on="1"/>
        <pt x="356" y="638" on="1"/>
        <pt x="329" y="638" on="1"/>
      </contour>
    </TTGlyph>
    <TTGlyph name="eight" xMin="74" yMin="-12" xMax="524" yMax="652">
      <contour>
        <pt x="106" y="164" on="1"/>
        <pt x="106" y="133" on="0"/>
        <pt x="133" y="79" on="0"/>
        <pt x="184" y="39" on="0"/>
        <pt x="258" y="16" on="0"/>
        <pt x="305" y="16" on="1"/>
        <pt x="351" y="16" on="0"/>
        <pt x="421" y="38" on="0"/>
        <pt x="468" y="75" on="0"/>
        <pt x="492" y="125" on="0"/>
        <pt x="492" y="154" on="1"/>
        <pt x="492" y="197" on="0"/>
        <pt x="454" y="252" on="0"/>
        <pt x="388" y="291" on="0"/>
        <pt x="302" y="319" on="0"/>
        <pt x="254" y="334" on="1"/>
        <pt x="222" y="319" on="0"/>
        <pt x="168" y="286" on="0"/>
        <pt x="129" y="245" on="0"/>
        <pt x="106" y="195" on="0"/>
      </contour>
      <contour>
        <pt x="359" y="330" on="1"/>
        <pt x="464" y="400" on="0"/>
        <pt x="464" y="486" on="1"/>
        <pt x="464" y="514" on="0"/>
        <pt x="444" y="564" on="0"/>
        <pt x="403" y="602" on="0"/>
        <pt x="344" y="624" on="0"/>
        <pt x="305" y="624" on="1"/>
        <pt x="271" y="624" on="0"/>
        <pt x="216" y="605" on="0"/>
        <pt x="177" y="571" on="0"/>
        <pt x="156" y="525" on="0"/>
        <pt x="156" y="498" on="1"/>
        <pt x="156" y="462" on="0"/>
        <pt x="188" y="410" on="0"/>
        <pt x="244" y="371" on="0"/>
        <pt x="317" y="343" on="0"/>
      </contour>
      <contour>
        <pt x="74" y="164" on="1"/>
        <pt x="74" y="200" on="0"/>
        <pt x="101" y="257" on="0"/>
        <pt x="145" y="301" on="0"/>
        <pt x="198" y="334" on="0"/>
        <pt x="225" y="346" on="1"/>
        <pt x="225" y="350" on="1"/>
        <pt x="185" y="372" on="0"/>
        <pt x="124" y="447" on="0"/>
        <pt x="124" y="498" on="1"/>
        <pt x="124" y="532" on="0"/>
        <pt x="152" y="588" on="0"/>
        <pt x="200" y="629" on="0"/>
        <pt x="266" y="652" on="0"/>
        <pt x="305" y="652" on="1"/>
        <pt x="351" y="652" on="0"/>
        <pt x="423" y="627" on="0"/>
        <pt x="471" y="582" on="0"/>
        <pt x="496" y="521" on="0"/>
        <pt x="496" y="486" on="1"/>
        <pt x="496" y="439" on="0"/>
        <pt x="436" y="354" on="0"/>
        <pt x="393" y="322" on="1"/>
        <pt x="393" y="318" on="1"/>
        <pt x="420" y="304" on="0"/>
        <pt x="468" y="276" on="0"/>
        <pt x="504" y="239" on="0"/>
        <pt x="524" y="189" on="0"/>
        <pt x="524" y="154" on="1"/>
        <pt x="524" y="119" on="0"/>
        <pt x="495" y="59" on="0"/>
        <pt x="439" y="14" on="0"/>
        <pt x="357" y="-12" on="0"/>
        <pt x="305" y="-12" on="1"/>
        <pt x="252" y="-12" on="0"/>
        <pt x="166" y="15" on="0"/>
        <pt x="106" y="62" on="0"/>
        <pt x="74" y="126" on="0"/>
      </contour>
    </TTGlyph>
    <TTGlyph name="eight.dnom" xMin="182" yMin="-12" xMax="418" yMax="312">
      <contour>
        <pt x="212" y="74" on="1"/>
        <pt x="212" y="49" on="0"/>
        <pt x="263" y="14" on="0"/>
        <pt x="300" y="14" on="1"/>
        <pt x="316" y="14" on="0"/>
        <pt x="348" y="23" on="0"/>
        <pt x="373" y="38" on="0"/>
        <pt x="388" y="60" on="0"/>
        <pt x="388" y="73" on="1"/>
        <pt x="388" y="91" on="0"/>
        <pt x="368" y="115" on="0"/>
        <pt x="337" y="132" on="0"/>
        <pt x="297" y="144" on="0"/>
        <pt x="276" y="150" on="1"/>
        <pt x="244" y="136" on="0"/>
        <pt x="212" y="97" on="0"/>
      </contour>
      <contour>
        <pt x="326" y="164" on="1"/>
        <pt x="353" y="180" on="0"/>
        <pt x="376" y="213" on="0"/>
        <pt x="376" y="233" on="1"/>
        <pt x="376" y="256" on="0"/>
        <pt x="338" y="286" on="0"/>
        <pt x="300" y="286" on="1"/>
        <pt x="265" y="286" on="0"/>
        <pt x="226" y="256" on="0"/>
        <pt x="226" y="233" on="1"/>
        <pt x="226" y="219" on="0"/>
        <pt x="243" y="198" on="0"/>
        <pt x="270" y="182" on="0"/>
        <pt x="306" y="169" on="0"/>
      </contour>
      <contour>
        <pt x="182" y="74" on="1"/>
        <pt x="182" y="105" on="0"/>
        <pt x="223" y="145" on="0"/>
        <pt x="250" y="158" on="1"/>
        <pt x="250" y="162" on="1"/>
        <pt x="228" y="175" on="0"/>
        <pt x="196" y="208" on="0"/>
        <pt x="196" y="233" on="1"/>
        <pt x="196" y="250" on="0"/>
        <pt x="213" y="279" on="0"/>
        <pt x="241" y="300" on="0"/>
        <pt x="279" y="312" on="0"/>
        <pt x="300" y="312" on="1"/>
        <pt x="347" y="312" on="0"/>
        <pt x="406" y="266" on="0"/>
        <pt x="406" y="233" on="1"/>
        <pt x="406" y="203" on="0"/>
        <pt x="370" y="167" on="0"/>
        <pt x="353" y="156" on="1"/>
        <pt x="353" y="152" on="1"/>
        <pt x="379" y="141" on="0"/>
        <pt x="418" y="105" on="0"/>
        <pt x="418" y="74" on="1"/>
        <pt x="418" y="36" on="0"/>
        <pt x="349" y="-12" on="0"/>
        <pt x="300" y="-12" on="1"/>
        <pt x="246" y="-12" on="0"/>
        <pt x="182" y="40" on="0"/>
      </contour>
    </TTGlyph>
    <TTGlyph name="eight.numr" xMin="182" yMin="328" xMax="418" yMax="652">
      <component glyphName="eight.dnom" x="0" y="340" flags="0x204"/>
    </TTGlyph>
    <TTGlyph name="eight.onum" xMin="74" yMin="-12" xMax="524" yMax="652">
      <component glyphName="eight" x="0" y="0" flags="0x204"/>
    </TTGlyph>
    <TTGlyph name="eight.subs" xMin="182" yMin="-181" xMax="418" yMax="143">
      <component glyphName="eight.dnom" x="0" y="-169" flags="0x204"/>
    </TTGlyph>
    <TTGlyph name="eight.sups" xMin="182" yMin="428" xMax="418" yMax="752">
      <component glyphName="eight.dnom" x="0" y="440" flags="0x204"/>
    </TTGlyph>
    <TTGlyph name="ellipsis" xMin="58" yMin="-12" xMax="542" yMax="105">
      <contour>
        <pt x="58" y="46" on="1"/>
        <pt x="58" y="75" on="0"/>
        <pt x="91" y="105" on="0"/>
        <pt x="110" y="105" on="1"/>
        <pt x="129" y="105" on="0"/>
        <pt x="162" y="75" on="0"/>
        <pt x="162" y="46" on="1"/>
        <pt x="162" y="19" on="0"/>
        <pt x="129" y="-12" on="0"/>
        <pt x="110" y="-12" on="1"/>
        <pt x="91" y="-12" on="0"/>
        <pt x="58" y="19" on="0"/>
      </contour>
      <contour>
        <pt x="248" y="46" on="1"/>
        <pt x="248" y="75" on="0"/>
        <pt x="281" y="105" on="0"/>
        <pt x="300" y="105" on="1"/>
        <pt x="319" y="105" on="0"/>
        <pt x="352" y="75" on="0"/>
        <pt x="352" y="46" on="1"/>
        <pt x="352" y="19" on="0"/>
        <pt x="319" y="-12" on="0"/>
        <pt x="300" y="-12" on="1"/>
        <pt x="281" y="-12" on="0"/>
        <pt x="248" y="19" on="0"/>
      </contour>
      <contour>
        <pt x="438" y="46" on="1"/>
        <pt x="438" y="75" on="0"/>
        <pt x="471" y="105" on="0"/>
        <pt x="490" y="105" on="1"/>
        <pt x="509" y="105" on="0"/>
        <pt x="542" y="75" on="0"/>
        <pt x="542" y="46" on="1"/>
        <pt x="542" y="19" on="0"/>
        <pt x="509" y="-12" on="0"/>
        <pt x="490" y="-12" on="1"/>
        <pt x="471" y="-12" on="0"/>
        <pt x="438" y="19" on="0"/>
      </contour>
    </TTGlyph>
    <TTGlyph name="emacron" xMin="80" yMin="-12" xMax="530" yMax="636">
      <component glyphName="e" x="0" y="0" flags="0x204"/>
      <component glyphName="uni0304" x="16" y="0" flags="0x4"/>
    </TTGlyph>
    <TTGlyph name="emdash" xMin="20" yMin="230" xMax="580" yMax="270">
      <contour>
        <pt x="20" y="270" on="1"/>
        <pt x="580" y="270" on="1"/>
        <pt x="580" y="230" on="1"/>
        <pt x="20" y="230" on="1"/>
      </contour>
    </TTGlyph>
    <TTGlyph name="endash" xMin="80" yMin="230" xMax="520" yMax="270">
      <contour>
        <pt x="80" y="270" on="1"/>
        <pt x="520" y="270" on="1"/>
        <pt x="520" y="230" on="1"/>
        <pt x="80" y="230" on="1"/>
      </contour>
    </TTGlyph>
    <TTGlyph name="eogonek" xMin="80" yMin="-202" xMax="530" yMax="490">
      <contour>
        <pt x="510" y="44" on="1"/>
        <pt x="475" y="18" on="0"/>
        <pt x="427" y="-26" on="0"/>
        <pt x="398" y="-66" on="0"/>
        <pt x="386" y="-102" on="0"/>
        <pt x="386" y="-120" on="1"/>
        <pt x="386" y="-147" on="0"/>
        <pt x="416" y="-174" on="0"/>
        <pt x="436" y="-174" on="1"/>
        <pt x="450" y="-174" on="0"/>
        <pt x="469" y="-168" on="0"/>
        <pt x="480" y="-160" on="1"/>
        <pt x="494" y="-180" on="1"/>
        <pt x="483" y="-189" on="0"/>
        <pt x="449" y="-202" on="0"/>
        <pt x="434" y="-202" on="1"/>
        <pt x="401" y="-202" on="0"/>
        <pt x="356" y="-163" on="0"/>
        <pt x="356" y="-122" on="1"/>
        <pt x="356" y="-102" on="0"/>
        <pt x="370" y="-64" on="0"/>
        <pt x="392" y="-31" on="0"/>
        <pt x="418" y="-4" on="0"/>
        <pt x="430" y="6" on="1"/>
        <pt x="403" y="-6" on="0"/>
        <pt x="356" y="-12" on="0"/>
        <pt x="330" y="-12" on="1"/>
        <pt x="279" y="-12" on="0"/>
        <pt x="188" y="22" on="0"/>
        <pt x="120" y="87" on="0"/>
        <pt x="80" y="179" on="0"/>
        <pt x="80" y="238" on="1"/>
        <pt x="80" y="296" on="0"/>
        <pt x="120" y="390" on="0"/>
        <pt x="187" y="455" on="0"/>
        <pt x="273" y="490" on="0"/>
        <pt x="318" y="490" on="1"/>
        <pt x="366" y="490" on="0"/>
        <pt x="444" y="460" on="0"/>
        <pt x="500" y="403" on="0"/>
        <pt x="530" y="322" on="0"/>
        <pt x="530" y="270" on="1"/>
        <pt x="530" y="262" on="0"/>
        <pt x="530" y="247" on="0"/>
        <pt x="528" y="238" on="1"/>
        <pt x="112" y="238" on="1"/>
        <pt x="112" y="190" on="0"/>
        <pt x="144" y="109" on="0"/>
        <pt x="201" y="49" on="0"/>
        <pt x="282" y="16" on="0"/>
        <pt x="332" y="16" on="1"/>
        <pt x="382" y="16" on="0"/>
        <pt x="462" y="46" on="0"/>
        <pt x="496" y="70" on="1"/>
      </contour>
      <contour>
        <pt x="500" y="266" on="1"/>
        <pt x="500" y="364" on="0"/>
        <pt x="399" y="462" on="0"/>
        <pt x="318" y="462" on="1"/>
        <pt x="280" y="462" on="0"/>
        <pt x="210" y="434" on="0"/>
        <pt x="155" y="383" on="0"/>
        <pt x="117" y="311" on="0"/>
        <pt x="112" y="266" on="1"/>
      </contour>
    </TTGlyph>
    <TTGlyph name="equal" xMin="98" yMin="217" xMax="502" yMax="444">
      <component glyphName="minus" x="0" y="100" flags="0x204"/>
      <component glyphName="minus" x="0" y="-99" flags="0x4"/>
    </TTGlyph>
    <TTGlyph name="estimated" xMin="26" yMin="-12" xMax="574" yMax="660">
      <contour>
        <pt x="164" y="68" on="1"/>
        <pt x="190" y="39" on="0"/>
        <pt x="261" y="8" on="0"/>
        <pt x="302" y="8" on="1"/>
        <pt x="355" y="8" on="0"/>
        <pt x="449" y="69" on="0"/>
        <pt x="484" y="120" on="1"/>
        <pt x="522" y="120" on="1"/>
        <pt x="481" y="60" on="0"/>
        <pt x="368" y="-12" on="0"/>
        <pt x="300" y="-12" on="1"/>
        <pt x="243" y="-12" on="0"/>
        <pt x="144" y="41" on="0"/>
        <pt x="69" y="132" on="0"/>
        <pt x="26" y="254" on="0"/>
        <pt x="26" y="324" on="1"/>
        <pt x="26" y="394" on="0"/>
        <pt x="69" y="516" on="0"/>
        <pt x="144" y="607" on="0"/>
        <pt x="243" y="660" on="0"/>
        <pt x="300" y="660" on="1"/>
        <pt x="357" y="660" on="0"/>
        <pt x="456" y="607" on="0"/>
        <pt x="531" y="516" on="0"/>
        <pt x="574" y="394" on="0"/>
        <pt x="574" y="324" on="1"/>
        <pt x="574" y="316" on="1"/>
        <pt x="160" y="316" on="1"/>
        <pt x="156" y="316" on="0"/>
        <pt x="156" y="312" on="1"/>
        <pt x="156" y="88" on="1"/>
        <pt x="156" y="82" on="0"/>
        <pt x="161" y="73" on="0"/>
      </contour>
      <contour>
        <pt x="440" y="334" on="1"/>
        <pt x="446" y="334" on="0"/>
        <pt x="446" y="340" on="1"/>
        <pt x="446" y="564" on="1"/>
        <pt x="446" y="576" on="0"/>
        <pt x="436" y="586" on="1"/>
        <pt x="410" y="612" on="0"/>
        <pt x="340" y="640" on="0"/>
        <pt x="302" y="640" on="1"/>
        <pt x="261" y="640" on="0"/>
        <pt x="190" y="609" on="0"/>
        <pt x="164" y="582" on="1"/>
        <pt x="161" y="577" on="0"/>
        <pt x="156" y="565" on="0"/>
        <pt x="156" y="560" on="1"/>
        <pt x="156" y="340" on="1"/>
        <pt x="156" y="334" on="0"/>
        <pt x="160" y="334" on="1"/>
      </contour>
    </TTGlyph>
    <TTGlyph name="eth" xMin="70" yMin="-12" xMax="524" yMax="722">
      <contour>
        <pt x="300" y="16" on="1"/>
        <pt x="351" y="16" on="0"/>
        <pt x="424" y="53" on="0"/>
        <pt x="471" y="117" on="0"/>
        <pt x="492" y="202" on="0"/>
        <pt x="492" y="250" on="1"/>
        <pt x="492" y="264" on="0"/>
        <pt x="491" y="291" on="0"/>
        <pt x="490" y="304" on="1"/>
        <pt x="448" y="364" on="0"/>
        <pt x="348" y="412" on="0"/>
        <pt x="302" y="412" on="1"/>
        <pt x="251" y="412" on="0"/>
        <pt x="176" y="380" on="0"/>
        <pt x="126" y="326" on="0"/>
        <pt x="102" y="256" on="0"/>
        <pt x="102" y="218" on="1"/>
        <pt x="102" y="174" on="0"/>
        <pt x="133" y="100" on="0"/>
        <pt x="187" y="46" on="0"/>
        <pt x="259" y="16" on="0"/>
      </contour>
      <contour>
        <pt x="377" y="613" on="1"/>
        <pt x="444" y="551" on="0"/>
        <pt x="524" y="376" on="0"/>
        <pt x="524" y="250" on="1"/>
        <pt x="524" y="190" on="0"/>
        <pt x="492" y="93" on="0"/>
        <pt x="433" y="25" on="0"/>
        <pt x="350" y="-12" on="0"/>
        <pt x="300" y="-12" on="1"/>
        <pt x="255" y="-12" on="0"/>
        <pt x="172" y="19" on="0"/>
        <pt x="108" y="79" on="0"/>
        <pt x="70" y="164" on="0"/>
        <pt x="70" y="218" on="1"/>
        <pt x="70" y="267" on="0"/>
        <pt x="103" y="348" on="0"/>
        <pt x="163" y="407" on="0"/>
        <pt x="250" y="440" on="0"/>
        <pt x="304" y="440" on="1"/>
        <pt x="358" y="440" on="0"/>
        <pt x="453" y="387" on="0"/>
        <pt x="485" y="348" on="1"/>
        <pt x="472" y="434" on="0"/>
        <pt x="402" y="554" on="0"/>
        <pt x="350" y="599" on="1"/>
        <pt x="200" y="520" on="1"/>
        <pt x="188" y="542" on="1"/>
        <pt x="329" y="616" on="1"/>
        <pt x="298" y="640" on="0"/>
        <pt x="228" y="681" on="0"/>
        <pt x="190" y="700" on="1"/>
        <pt x="206" y="722" on="1"/>
        <pt x="248" y="702" on="0"/>
        <pt x="323" y="658" on="0"/>
        <pt x="357" y="630" on="1"/>
        <pt x="490" y="700" on="1"/>
        <pt x="502" y="678" on="1"/>
      </contour>
    </TTGlyph>
    <TTGlyph name="exclam" xMin="248" yMin="-12" xMax="352" yMax="670">
      <contour>
        <pt x="286" y="608" on="1"/>
        <pt x="286" y="670" on="1"/>
        <pt x="314" y="670" on="1"/>
        <pt x="314" y="608" on="1"/>
        <pt x="312" y="214" on="1"/>
        <pt x="288" y="214" on="1"/>
      </contour>
      <contour>
        <pt x="248" y="46" on="1"/>
        <pt x="248" y="75" on="0"/>
        <pt x="280" y="104" on="0"/>
        <pt x="300" y="104" on="1"/>
        <pt x="320" y="104" on="0"/>
        <pt x="352" y="75" on="0"/>
        <pt x="352" y="46" on="1"/>
        <pt x="352" y="17" on="0"/>
        <pt x="320" y="-12" on="0"/>
        <pt x="300" y="-12" on="1"/>
        <pt x="280" y="-12" on="0"/>
        <pt x="248" y="17" on="0"/>
      </contour>
    </TTGlyph>
    <TTGlyph name="exclamdown" xMin="248" yMin="-192" xMax="352" yMax="490">
      <contour>
        <pt x="314" y="-130" on="1"/>
        <pt x="314" y="-192" on="1"/>
        <pt x="286" y="-192" on="1"/>
        <pt x="286" y="-130" on="1"/>
        <pt x="288" y="264" on="1"/>
        <pt x="312" y="264" on="1"/>
      </contour>
      <contour>
        <pt x="352" y="432" on="1"/>
        <pt x="352" y="403" on="0"/>
        <pt x="320" y="374" on="0"/>
        <pt x="300" y="374" on="1"/>
        <pt x="280" y="374" on="0"/>
        <pt x="248" y="403" on="0"/>
        <pt x="248" y="432" on="1"/>
        <pt x="248" y="461" on="0"/>
        <pt x="280" y="490" on="0"/>
        <pt x="300" y="490" on="1"/>
        <pt x="320" y="490" on="0"/>
        <pt x="352" y="461" on="0"/>
      </contour>
    </TTGlyph>
    <TTGlyph name="f" xMin="120" yMin="0" xMax="572" yMax="734">
      <contour>
        <pt x="560" y="680" on="1"/>
        <pt x="543" y="688" on="0"/>
        <pt x="514" y="698" on="0"/>
        <pt x="486" y="704" on="0"/>
        <pt x="457" y="706" on="0"/>
        <pt x="440" y="706" on="1"/>
        <pt x="400" y="706" on="0"/>
        <pt x="345" y="682" on="0"/>
        <pt x="310" y="640" on="0"/>
        <pt x="294" y="581" on="0"/>
        <pt x="294" y="546" on="1"/>
        <pt x="294" y="478" on="1"/>
        <pt x="524" y="478" on="1"/>
        <pt x="524" y="450" on="1"/>
        <pt x="294" y="450" on="1"/>
        <pt x="294" y="0" on="1"/>
        <pt x="266" y="0" on="1"/>
        <pt x="266" y="450" on="1"/>
        <pt x="120" y="450" on="1"/>
        <pt x="120" y="474" on="1"/>
        <pt x="266" y="478" on="1"/>
        <pt x="266" y="542" on="1"/>
        <pt x="266" y="634" on="0"/>
        <pt x="352" y="734" on="0"/>
        <pt x="440" y="734" on="1"/>
        <pt x="471" y="734" on="0"/>
        <pt x="534" y="722" on="0"/>
        <pt x="572" y="704" on="1"/>
      </contour>
    </TTGlyph>
    <TTGlyph name="f.sups" xMin="210" yMin="260" xMax="499" yMax="742">
      <contour>
        <pt x="490" y="701" on="1"/>
        <pt x="470" y="709" on="0"/>
        <pt x="437" y="715" on="0"/>
        <pt x="416" y="715" on="1"/>
        <pt x="365" y="715" on="0"/>
        <pt x="324" y="661" on="0"/>
        <pt x="324" y="617" on="1"/>
        <pt x="324" y="577" on="1"/>
        <pt x="466" y="577" on="1"/>
        <pt x="466" y="550" on="1"/>
        <pt x="324" y="550" on="1"/>
        <pt x="324" y="260" on="1"/>
        <pt x="293" y="260" on="1"/>
        <pt x="293" y="550" on="1"/>
        <pt x="210" y="550" on="1"/>
        <pt x="210" y="575" on="1"/>
        <pt x="293" y="577" on="1"/>
        <pt x="293" y="614" on="1"/>
        <pt x="293" y="674" on="0"/>
        <pt x="353" y="742" on="0"/>
        <pt x="414" y="742" on="1"/>
        <pt x="435" y="742" on="0"/>
        <pt x="476" y="735" on="0"/>
        <pt x="499" y="726" on="1"/>
      </contour>
    </TTGlyph>
    <TTGlyph name="fi" xMin="88" yMin="0" xMax="475" yMax="734">
      <contour>
        <pt x="154" y="596" on="1"/>
        <pt x="154" y="667" on="0"/>
        <pt x="213" y="734" on="0"/>
        <pt x="264" y="734" on="1"/>
        <pt x="295" y="734" on="0"/>
        <pt x="330" y="718" on="1"/>
        <pt x="320" y="692" on="1"/>
        <pt x="305" y="700" on="0"/>
        <pt x="276" y="706" on="0"/>
        <pt x="262" y="706" on="1"/>
        <pt x="221" y="706" on="0"/>
        <pt x="184" y="646" on="0"/>
        <pt x="184" y="592" on="1"/>
        <pt x="184" y="478" on="1"/>
        <pt x="298" y="478" on="1"/>
        <pt x="298" y="450" on="1"/>
        <pt x="184" y="450" on="1"/>
        <pt x="184" y="0" on="1"/>
        <pt x="154" y="0" on="1"/>
        <pt x="154" y="450" on="1"/>
        <pt x="88" y="450" on="1"/>
        <pt x="88" y="474" on="1"/>
        <pt x="154" y="478" on="1"/>
      </contour>
      <contour>
        <pt x="420" y="478" on="1"/>
        <pt x="450" y="478" on="1"/>
        <pt x="450" y="0" on="1"/>
        <pt x="420" y="0" on="1"/>
      </contour>
      <contour>
        <pt x="435" y="683" on="1"/>
        <pt x="451" y="683" on="0"/>
        <pt x="475" y="661" on="0"/>
        <pt x="475" y="641" on="1"/>
        <pt x="475" y="622" on="0"/>
        <pt x="451" y="600" on="0"/>
        <pt x="435" y="600" on="1"/>
        <pt x="419" y="600" on="0"/>
        <pt x="395" y="622" on="0"/>
        <pt x="395" y="641" on="1"/>
        <pt x="395" y="661" on="0"/>
        <pt x="419" y="683" on="0"/>
      </contour>
    </TTGlyph>
    <TTGlyph name="figuredash" xMin="80" yMin="230" xMax="520" yMax="270">
      <contour>
        <pt x="80" y="270" on="1"/>
        <pt x="520" y="270" on="1"/>
        <pt x="520" y="230" on="1"/>
        <pt x="80" y="230" on="1"/>
      </contour>
    </TTGlyph>
    <TTGlyph name="five" xMin="64" yMin="-12" xMax="514" yMax="640">
      <contour>
        <pt x="84" y="96" on="1"/>
        <pt x="100" y="81" on="0"/>
        <pt x="139" y="52" on="0"/>
        <pt x="188" y="30" on="0"/>
        <pt x="250" y="16" on="0"/>
        <pt x="290" y="16" on="1"/>
        <pt x="329" y="16" on="0"/>
        <pt x="398" y="42" on="0"/>
        <pt x="451" y="90" on="0"/>
        <pt x="482" y="157" on="0"/>
        <pt x="482" y="198" on="1"/>
        <pt x="482" y="279" on="0"/>
        <pt x="381" y="372" on="0"/>
        <pt x="292" y="372" on="1"/>
        <pt x="269" y="372" on="0"/>
        <pt x="230" y="366" on="0"/>
        <pt x="195" y="354" on="0"/>
        <pt x="162" y="338" on="0"/>
        <pt x="144" y="328" on="1"/>
        <pt x="118" y="344" on="1"/>
        <pt x="142" y="640" on="1"/>
        <pt x="480" y="640" on="1"/>
        <pt x="480" y="612" on="1"/>
        <pt x="170" y="612" on="1"/>
        <pt x="148" y="366" on="1"/>
        <pt x="180" y="382" on="0"/>
        <pt x="247" y="402" on="0"/>
        <pt x="294" y="402" on="1"/>
        <pt x="341" y="402" on="0"/>
        <pt x="422" y="378" on="0"/>
        <pt x="481" y="329" on="0"/>
        <pt x="514" y="252" on="0"/>
        <pt x="514" y="200" on="1"/>
        <pt x="514" y="149" on="0"/>
        <pt x="476" y="70" on="0"/>
        <pt x="413" y="16" on="0"/>
        <pt x="331" y="-12" on="0"/>
        <pt x="288" y="-12" on="1"/>
        <pt x="244" y="-12" on="0"/>
        <pt x="176" y="4" on="0"/>
        <pt x="123" y="28" on="0"/>
        <pt x="81" y="59" on="0"/>
        <pt x="64" y="74" on="1"/>
      </contour>
    </TTGlyph>
    <TTGlyph name="five.dnom" xMin="178" yMin="-12" xMax="416" yMax="300">
      <contour>
        <pt x="202" y="70" on="1"/>
        <pt x="220" y="46" on="0"/>
        <pt x="265" y="14" on="0"/>
        <pt x="302" y="14" on="1"/>
        <pt x="340" y="14" on="0"/>
        <pt x="386" y="55" on="0"/>
        <pt x="386" y="90" on="1"/>
        <pt x="386" y="126" on="0"/>
        <pt x="341" y="166" on="0"/>
        <pt x="300" y="166" on="1"/>
        <pt x="277" y="166" on="0"/>
        <pt x="243" y="150" on="0"/>
        <pt x="226" y="136" on="1"/>
        <pt x="206" y="150" on="1"/>
        <pt x="224" y="300" on="1"/>
        <pt x="394" y="300" on="1"/>
        <pt x="394" y="272" on="1"/>
        <pt x="250" y="272" on="1"/>
        <pt x="236" y="174" on="1"/>
        <pt x="266" y="192" on="0"/>
        <pt x="302" y="192" on="1"/>
        <pt x="352" y="192" on="0"/>
        <pt x="416" y="140" on="0"/>
        <pt x="416" y="90" on="1"/>
        <pt x="416" y="42" on="0"/>
        <pt x="350" y="-12" on="0"/>
        <pt x="300" y="-12" on="1"/>
        <pt x="253" y="-12" on="0"/>
        <pt x="197" y="27" on="0"/>
        <pt x="178" y="52" on="1"/>
      </contour>
    </TTGlyph>
    <TTGlyph name="five.numr" xMin="178" yMin="328" xMax="416" yMax="640">
      <component glyphName="five.dnom" x="0" y="340" flags="0x204"/>
    </TTGlyph>
    <TTGlyph name="five.onum" xMin="64" yMin="-82" xMax="514" yMax="570">
      <contour>
        <pt x="84" y="26" on="1"/>
        <pt x="100" y="11" on="0"/>
        <pt x="139" y="-18" on="0"/>
        <pt x="188" y="-40" on="0"/>
        <pt x="250" y="-54" on="0"/>
        <pt x="290" y="-54" on="1"/>
        <pt x="329" y="-54" on="0"/>
        <pt x="398" y="-28" on="0"/>
        <pt x="451" y="20" on="0"/>
        <pt x="482" y="87" on="0"/>
        <pt x="482" y="128" on="1"/>
        <pt x="482" y="209" on="0"/>
        <pt x="381" y="302" on="0"/>
        <pt x="292" y="302" on="1"/>
        <pt x="269" y="302" on="0"/>
        <pt x="230" y="296" on="0"/>
        <pt x="195" y="284" on="0"/>
        <pt x="162" y="268" on="0"/>
        <pt x="144" y="258" on="1"/>
        <pt x="118" y="274" on="1"/>
        <pt x="142" y="570" on="1"/>
        <pt x="480" y="570" on="1"/>
        <pt x="480" y="542" on="1"/>
        <pt x="170" y="542" on="1"/>
        <pt x="148" y="296" on="1"/>
        <pt x="180" y="312" on="0"/>
        <pt x="247" y="332" on="0"/>
        <pt x="294" y="332" on="1"/>
        <pt x="341" y="332" on="0"/>
        <pt x="422" y="308" on="0"/>
        <pt x="481" y="259" on="0"/>
        <pt x="514" y="182" on="0"/>
        <pt x="514" y="130" on="1"/>
        <pt x="514" y="79" on="0"/>
        <pt x="476" y="0" on="0"/>
        <pt x="413" y="-54" on="0"/>
        <pt x="331" y="-82" on="0"/>
        <pt x="288" y="-82" on="1"/>
        <pt x="244" y="-82" on="0"/>
        <pt x="176" y="-66" on="0"/>
        <pt x="123" y="-42" on="0"/>
        <pt x="81" y="-11" on="0"/>
        <pt x="64" y="4" on="1"/>
      </contour>
    </TTGlyph>
    <TTGlyph name="five.subs" xMin="178" yMin="-181" xMax="416" yMax="131">
      <component glyphName="five.dnom" x="0" y="-169" flags="0x204"/>
    </TTGlyph>
    <TTGlyph name="five.sups" xMin="178" yMin="428" xMax="416" yMax="740">
      <component glyphName="five.dnom" x="0" y="440" flags="0x204"/>
    </TTGlyph>
    <TTGlyph name="fiveeighths" xMin="38" yMin="-12" xMax="562" yMax="640">
      <component glyphName="five.dnom" x="-139" y="340" flags="0x204"/>
      <component glyphName="fraction" x="0" y="0" flags="0x4"/>
      <component glyphName="eight.dnom" x="140" y="0" flags="0x4"/>
    </TTGlyph>
    <TTGlyph name="fl" xMin="93" yMin="-12" xMax="481" yMax="734">
      <contour>
        <pt x="159" y="596" on="1"/>
        <pt x="159" y="667" on="0"/>
        <pt x="218" y="734" on="0"/>
        <pt x="269" y="734" on="1"/>
        <pt x="300" y="734" on="0"/>
        <pt x="335" y="718" on="1"/>
        <pt x="325" y="692" on="1"/>
        <pt x="310" y="700" on="0"/>
        <pt x="281" y="706" on="0"/>
        <pt x="267" y="706" on="1"/>
        <pt x="226" y="706" on="0"/>
        <pt x="189" y="646" on="0"/>
        <pt x="189" y="592" on="1"/>
        <pt x="189" y="478" on="1"/>
        <pt x="303" y="478" on="1"/>
        <pt x="303" y="450" on="1"/>
        <pt x="189" y="450" on="1"/>
        <pt x="189" y="0" on="1"/>
        <pt x="159" y="0" on="1"/>
        <pt x="159" y="450" on="1"/>
        <pt x="93" y="450" on="1"/>
        <pt x="93" y="474" on="1"/>
        <pt x="159" y="478" on="1"/>
      </contour>
      <contour>
        <pt x="481" y="-8" on="1"/>
        <pt x="475" y="-10" on="0"/>
        <pt x="464" y="-12" on="0"/>
        <pt x="455" y="-12" on="1"/>
        <pt x="432" y="-12" on="0"/>
        <pt x="407" y="17" on="0"/>
        <pt x="407" y="52" on="1"/>
        <pt x="407" y="722" on="1"/>
        <pt x="437" y="722" on="1"/>
        <pt x="437" y="46" on="1"/>
        <pt x="437" y="16" on="0"/>
        <pt x="457" y="16" on="1"/>
        <pt x="460" y="16" on="0"/>
        <pt x="467" y="16" on="0"/>
        <pt x="475" y="18" on="1"/>
      </contour>
    </TTGlyph>
    <TTGlyph name="four" xMin="43" yMin="0" xMax="535" yMax="641">
      <contour>
        <pt x="390" y="225" on="1"/>
        <pt x="390" y="496" on="1"/>
        <pt x="392" y="519" on="0"/>
        <pt x="393" y="564" on="0"/>
        <pt x="395" y="587" on="1"/>
        <pt x="389" y="587" on="1"/>
        <pt x="374" y="567" on="0"/>
        <pt x="343" y="526" on="0"/>
        <pt x="328" y="506" on="1"/>
        <pt x="92" y="225" on="1"/>
      </contour>
      <contour>
        <pt x="535" y="196" on="1"/>
        <pt x="420" y="196" on="1"/>
        <pt x="420" y="0" on="1"/>
        <pt x="390" y="0" on="1"/>
        <pt x="390" y="196" on="1"/>
        <pt x="43" y="196" on="1"/>
        <pt x="43" y="213" on="1"/>
        <pt x="405" y="641" on="1"/>
        <pt x="420" y="641" on="1"/>
        <pt x="420" y="225" on="1"/>
        <pt x="535" y="225" on="1"/>
      </contour>
    </TTGlyph>
    <TTGlyph name="four.dnom" xMin="180" yMin="0" xMax="421" yMax="300">
      <contour>
        <pt x="344" y="107" on="1"/>
        <pt x="344" y="190" on="1"/>
        <pt x="348" y="258" on="1"/>
        <pt x="344" y="258" on="1"/>
        <pt x="291" y="192" on="1"/>
        <pt x="220" y="107" on="1"/>
      </contour>
      <contour>
        <pt x="421" y="83" on="1"/>
        <pt x="372" y="83" on="1"/>
        <pt x="372" y="0" on="1"/>
        <pt x="344" y="0" on="1"/>
        <pt x="344" y="83" on="1"/>
        <pt x="180" y="83" on="1"/>
        <pt x="180" y="98" on="1"/>
        <pt x="352" y="300" on="1"/>
        <pt x="372" y="300" on="1"/>
        <pt x="372" y="107" on="1"/>
        <pt x="421" y="107" on="1"/>
      </contour>
    </TTGlyph>
    <TTGlyph name="four.numr" xMin="180" yMin="340" xMax="421" yMax="640">
      <component glyphName="four.dnom" x="0" y="340" flags="0x204"/>
    </TTGlyph>
    <TTGlyph name="four.onum" xMin="43" yMin="-70" xMax="535" yMax="571">
      <contour>
        <pt x="390" y="133" on="1"/>
        <pt x="390" y="426" on="1"/>
        <pt x="392" y="449" on="0"/>
        <pt x="393" y="494" on="0"/>
        <pt x="395" y="517" on="1"/>
        <pt x="389" y="517" on="1"/>
        <pt x="375" y="495" on="0"/>
        <pt x="343" y="450" on="0"/>
        <pt x="328" y="430" on="1"/>
        <pt x="90" y="133" on="1"/>
      </contour>
      <contour>
        <pt x="535" y="104" on="1"/>
        <pt x="420" y="104" on="1"/>
        <pt x="420" y="-70" on="1"/>
        <pt x="390" y="-70" on="1"/>
        <pt x="390" y="104" on="1"/>
        <pt x="43" y="104" on="1"/>
        <pt x="43" y="121" on="1"/>
        <pt x="405" y="571" on="1"/>
        <pt x="420" y="571" on="1"/>
        <pt x="420" y="133" on="1"/>
        <pt x="535" y="133" on="1"/>
      </contour>
    </TTGlyph>
    <TTGlyph name="four.subs" xMin="180" yMin="-169" xMax="421" yMax="131">
      <component glyphName="four.dnom" x="0" y="-169" flags="0x204"/>
    </TTGlyph>
    <TTGlyph name="four.sups" xMin="180" yMin="440" xMax="421" yMax="740">
      <component glyphName="four.dnom" x="0" y="440" flags="0x204"/>
    </TTGlyph>
    <TTGlyph name="fraction" xMin="38" yMin="36" xMax="562" yMax="624">
      <contour>
        <pt x="38" y="58" on="1"/>
        <pt x="218" y="258" on="1"/>
        <pt x="236" y="242" on="1"/>
        <pt x="64" y="36" on="1"/>
      </contour>
      <contour>
        <pt x="562" y="602" on="1"/>
        <pt x="382" y="402" on="1"/>
        <pt x="364" y="418" on="1"/>
        <pt x="536" y="624" on="1"/>
      </contour>
    </TTGlyph>
    <TTGlyph name="g" xMin="88" yMin="-234" xMax="560" yMax="490">
      <contour>
        <pt x="120" y="-97" on="1"/>
        <pt x="120" y="-143" on="0"/>
        <pt x="211" y="-206" on="0"/>
        <pt x="306" y="-206" on="1"/>
        <pt x="358" y="-206" on="0"/>
        <pt x="441" y="-183" on="0"/>
        <pt x="498" y="-145" on="0"/>
        <pt x="528" y="-98" on="0"/>
        <pt x="528" y="-74" on="1"/>
        <pt x="528" y="-31" on="0"/>
        <pt x="463" y="2" on="0"/>
        <pt x="397" y="2" on="1"/>
        <pt x="276" y="2" on="1"/>
        <pt x="259" y="2" on="0"/>
        <pt x="220" y="6" on="0"/>
        <pt x="203" y="11" on="1"/>
        <pt x="156" y="-14" on="0"/>
        <pt x="120" y="-69" on="0"/>
      </contour>
      <contour>
        <pt x="88" y="-93" on="1"/>
        <pt x="88" y="-65" on="0"/>
        <pt x="131" y="-3" on="0"/>
        <pt x="170" y="22" on="1"/>
        <pt x="170" y="26" on="1"/>
        <pt x="152" y="34" on="0"/>
        <pt x="120" y="72" on="0"/>
        <pt x="120" y="102" on="1"/>
        <pt x="120" y="125" on="0"/>
        <pt x="149" y="172" on="0"/>
        <pt x="178" y="192" on="1"/>
        <pt x="178" y="196" on="1"/>
        <pt x="155" y="216" on="0"/>
        <pt x="122" y="276" on="0"/>
        <pt x="122" y="320" on="1"/>
        <pt x="122" y="356" on="0"/>
        <pt x="149" y="418" on="0"/>
        <pt x="197" y="464" on="0"/>
        <pt x="260" y="490" on="0"/>
        <pt x="296" y="490" on="1"/>
        <pt x="333" y="490" on="0"/>
        <pt x="360" y="478" on="1"/>
        <pt x="560" y="478" on="1"/>
        <pt x="560" y="450" on="1"/>
        <pt x="408" y="450" on="1"/>
        <pt x="432" y="427" on="0"/>
        <pt x="470" y="362" on="0"/>
        <pt x="470" y="320" on="1"/>
        <pt x="470" y="284" on="0"/>
        <pt x="443" y="222" on="0"/>
        <pt x="395" y="177" on="0"/>
        <pt x="332" y="152" on="0"/>
        <pt x="296" y="152" on="1"/>
        <pt x="273" y="152" on="0"/>
        <pt x="225" y="164" on="0"/>
        <pt x="202" y="176" on="1"/>
        <pt x="179" y="162" on="0"/>
        <pt x="152" y="125" on="0"/>
        <pt x="152" y="105" on="1"/>
        <pt x="152" y="68" on="0"/>
        <pt x="215" y="34" on="0"/>
        <pt x="266" y="34" on="1"/>
        <pt x="389" y="34" on="1"/>
        <pt x="480" y="34" on="0"/>
        <pt x="560" y="-15" on="0"/>
        <pt x="560" y="-72" on="1"/>
        <pt x="560" y="-102" on="0"/>
        <pt x="525" y="-160" on="0"/>
        <pt x="461" y="-206" on="0"/>
        <pt x="369" y="-234" on="0"/>
        <pt x="312" y="-234" on="1"/>
        <pt x="198" y="-234" on="0"/>
        <pt x="88" y="-155" on="0"/>
      </contour>
      <contour>
        <pt x="296" y="180" on="1"/>
        <pt x="325" y="180" on="0"/>
        <pt x="377" y="201" on="0"/>
        <pt x="416" y="238" on="0"/>
        <pt x="438" y="289" on="0"/>
        <pt x="438" y="320" on="1"/>
        <pt x="438" y="351" on="0"/>
        <pt x="416" y="403" on="0"/>
        <pt x="377" y="441" on="0"/>
        <pt x="325" y="462" on="0"/>
        <pt x="296" y="462" on="1"/>
        <pt x="267" y="462" on="0"/>
        <pt x="215" y="441" on="0"/>
        <pt x="176" y="403" on="0"/>
        <pt x="154" y="351" on="0"/>
        <pt x="154" y="320" on="1"/>
        <pt x="154" y="289" on="0"/>
        <pt x="176" y="238" on="0"/>
        <pt x="215" y="201" on="0"/>
        <pt x="267" y="180" on="0"/>
      </contour>
    </TTGlyph>
    <TTGlyph name="g.a" xMin="70" yMin="-234" xMax="490" yMax="490">
      <component glyphName="uni0261" x="0" y="0" flags="0x204"/>
    </TTGlyph>
    <TTGlyph name="g.supa" xMin="144" yMin="110" xMax="426" yMax="585">
      <contour>
        <pt x="183" y="169" on="1"/>
        <pt x="209" y="152" on="0"/>
        <pt x="262" y="136" on="0"/>
        <pt x="288" y="136" on="1"/>
        <pt x="341" y="136" on="0"/>
        <pt x="394" y="190" on="0"/>
        <pt x="394" y="238" on="1"/>
        <pt x="394" y="309" on="1"/>
        <pt x="374" y="289" on="0"/>
        <pt x="317" y="260" on="0"/>
        <pt x="283" y="260" on="1"/>
        <pt x="220" y="260" on="0"/>
        <pt x="144" y="344" on="0"/>
        <pt x="144" y="422" on="1"/>
        <pt x="144" y="460" on="0"/>
        <pt x="168" y="520" on="0"/>
        <pt x="209" y="562" on="0"/>
        <pt x="263" y="585" on="0"/>
        <pt x="293" y="585" on="1"/>
        <pt x="323" y="585" on="0"/>
        <pt x="370" y="565" on="0"/>
        <pt x="393" y="548" on="1"/>
        <pt x="394" y="548" on="1"/>
        <pt x="398" y="577" on="1"/>
        <pt x="426" y="577" on="1"/>
        <pt x="426" y="234" on="1"/>
        <pt x="426" y="177" on="0"/>
        <pt x="354" y="110" on="0"/>
        <pt x="288" y="110" on="1"/>
        <pt x="254" y="110" on="0"/>
        <pt x="195" y="128" on="0"/>
        <pt x="169" y="144" on="1"/>
      </contour>
      <contour>
        <pt x="288" y="288" on="1"/>
        <pt x="316" y="288" on="0"/>
        <pt x="368" y="314" on="0"/>
        <pt x="394" y="340" on="1"/>
        <pt x="394" y="517" on="1"/>
        <pt x="367" y="539" on="0"/>
        <pt x="320" y="557" on="0"/>
        <pt x="295" y="557" on="1"/>
        <pt x="270" y="557" on="0"/>
        <pt x="227" y="536" on="0"/>
        <pt x="195" y="500" on="0"/>
        <pt x="177" y="451" on="0"/>
        <pt x="177" y="423" on="1"/>
        <pt x="177" y="362" on="0"/>
        <pt x="234" y="288" on="0"/>
      </contour>
    </TTGlyph>
    <TTGlyph name="g.sups" xMin="162" yMin="108" xMax="481" yMax="585">
      <contour>
        <pt x="192" y="200" on="1"/>
        <pt x="192" y="171" on="0"/>
        <pt x="248" y="133" on="0"/>
        <pt x="308" y="133" on="1"/>
        <pt x="341" y="133" on="0"/>
        <pt x="393" y="147" on="0"/>
        <pt x="430" y="170" on="0"/>
        <pt x="449" y="198" on="0"/>
        <pt x="449" y="213" on="1"/>
        <pt x="449" y="239" on="0"/>
        <pt x="407" y="259" on="0"/>
        <pt x="365" y="259" on="1"/>
        <pt x="290" y="259" on="1"/>
        <pt x="278" y="259" on="0"/>
        <pt x="254" y="261" on="0"/>
        <pt x="243" y="265" on="1"/>
        <pt x="214" y="250" on="0"/>
        <pt x="192" y="217" on="0"/>
      </contour>
      <contour>
        <pt x="162" y="200" on="1"/>
        <pt x="162" y="218" on="0"/>
        <pt x="190" y="258" on="0"/>
        <pt x="216" y="274" on="1"/>
        <pt x="216" y="276" on="1"/>
        <pt x="204" y="282" on="0"/>
        <pt x="183" y="307" on="0"/>
        <pt x="183" y="327" on="1"/>
        <pt x="183" y="360" on="0"/>
        <pt x="222" y="387" on="1"/>
        <pt x="222" y="390" on="1"/>
        <pt x="206" y="403" on="0"/>
        <pt x="183" y="443" on="0"/>
        <pt x="183" y="472" on="1"/>
        <pt x="183" y="497" on="0"/>
        <pt x="202" y="538" on="0"/>
        <pt x="234" y="568" on="0"/>
        <pt x="277" y="585" on="0"/>
        <pt x="302" y="585" on="1"/>
        <pt x="330" y="585" on="0"/>
        <pt x="346" y="577" on="1"/>
        <pt x="480" y="577" on="1"/>
        <pt x="480" y="551" on="1"/>
        <pt x="384" y="551" on="1"/>
        <pt x="398" y="537" on="0"/>
        <pt x="419" y="497" on="0"/>
        <pt x="419" y="472" on="1"/>
        <pt x="419" y="422" on="0"/>
        <pt x="352" y="361" on="0"/>
        <pt x="302" y="361" on="1"/>
        <pt x="274" y="361" on="0"/>
        <pt x="243" y="375" on="1"/>
        <pt x="229" y="367" on="0"/>
        <pt x="213" y="345" on="0"/>
        <pt x="213" y="332" on="1"/>
        <pt x="213" y="309" on="0"/>
        <pt x="250" y="289" on="0"/>
        <pt x="284" y="289" on="1"/>
        <pt x="363" y="289" on="1"/>
        <pt x="425" y="289" on="0"/>
        <pt x="481" y="255" on="0"/>
        <pt x="481" y="217" on="1"/>
        <pt x="481" y="196" on="0"/>
        <pt x="457" y="157" on="0"/>
        <pt x="413" y="126" on="0"/>
        <pt x="349" y="108" on="0"/>
        <pt x="310" y="108" on="1"/>
        <pt x="235" y="108" on="0"/>
        <pt x="162" y="158" on="0"/>
      </contour>
      <contour>
        <pt x="302" y="386" on="1"/>
        <pt x="338" y="386" on="0"/>
        <pt x="388" y="434" on="0"/>
        <pt x="388" y="472" on="1"/>
        <pt x="388" y="510" on="0"/>
        <pt x="338" y="560" on="0"/>
        <pt x="302" y="560" on="1"/>
        <pt x="265" y="560" on="0"/>
        <pt x="215" y="510" on="0"/>
        <pt x="215" y="472" on="1"/>
        <pt x="215" y="434" on="0"/>
        <pt x="265" y="386" on="0"/>
      </contour>
    </TTGlyph>
    <TTGlyph name="gbreve" xMin="88" yMin="-234" xMax="560" yMax="692">
      <component glyphName="g" x="0" y="0" flags="0x204"/>
      <component glyphName="uni0306" x="10" y="0" flags="0x4"/>
    </TTGlyph>
    <TTGlyph name="gbreve.a" xMin="70" yMin="-234" xMax="490" yMax="692">
      <component glyphName="uni0261" x="0" y="0" flags="0x204"/>
      <component glyphName="uni0306" x="6" y="0" flags="0x4"/>
    </TTGlyph>
    <TTGlyph name="gcaron" xMin="88" yMin="-234" xMax="560" yMax="706">
      <component glyphName="g" x="0" y="0" flags="0x204"/>
      <component glyphName="uni030C" x="10" y="0" flags="0x4"/>
    </TTGlyph>
    <TTGlyph name="gcaron.a" xMin="70" yMin="-234" xMax="490" yMax="706">
      <component glyphName="uni0261" x="0" y="0" flags="0x204"/>
      <component glyphName="uni030C" x="6" y="0" flags="0x4"/>
    </TTGlyph>
    <TTGlyph name="gcircumflex" xMin="88" yMin="-234" xMax="560" yMax="706">
      <component glyphName="g" x="0" y="0" flags="0x204"/>
      <component glyphName="uni0302" x="10" y="0" flags="0x4"/>
    </TTGlyph>
    <TTGlyph name="gcircumflex.a" xMin="70" yMin="-234" xMax="490" yMax="706">
      <component glyphName="uni0261" x="0" y="0" flags="0x204"/>
      <component glyphName="uni0302" x="6" y="0" flags="0x4"/>
    </TTGlyph>
    <TTGlyph name="gdotaccent" xMin="88" yMin="-234" xMax="560" yMax="684">
      <component glyphName="g" x="0" y="0" flags="0x204"/>
      <component glyphName="uni0307" x="10" y="0" flags="0x4"/>
    </TTGlyph>
    <TTGlyph name="gdotaccent.a" xMin="70" yMin="-234" xMax="490" yMax="684">
      <component glyphName="uni0261" x="0" y="0" flags="0x204"/>
      <component glyphName="uni0307" x="6" y="0" flags="0x4"/>
    </TTGlyph>
    <TTGlyph name="germandbls" xMin="110" yMin="-12" xMax="558" yMax="734">
      <contour>
        <pt x="110" y="538" on="1"/>
        <pt x="110" y="584" on="0"/>
        <pt x="137" y="656" on="0"/>
        <pt x="185" y="707" on="0"/>
        <pt x="251" y="734" on="0"/>
        <pt x="290" y="734" on="1"/>
        <pt x="323" y="734" on="0"/>
        <pt x="376" y="714" on="0"/>
        <pt x="413" y="678" on="0"/>
        <pt x="434" y="630" on="0"/>
        <pt x="434" y="602" on="1"/>
        <pt x="434" y="563" on="0"/>
        <pt x="398" y="507" on="0"/>
        <pt x="356" y="458" on="0"/>
        <pt x="320" y="409" on="0"/>
        <pt x="320" y="378" on="1"/>
        <pt x="320" y="348" on="0"/>
        <pt x="355" y="310" on="0"/>
        <pt x="408" y="282" on="0"/>
        <pt x="470" y="256" on="0"/>
        <pt x="523" y="220" on="0"/>
        <pt x="558" y="166" on="0"/>
        <pt x="558" y="124" on="1"/>
        <pt x="558" y="95" on="0"/>
        <pt x="534" y="45" on="0"/>
        <pt x="493" y="9" on="0"/>
        <pt x="437" y="-12" on="0"/>
        <pt x="404" y="-12" on="1"/>
        <pt x="361" y="-12" on="0"/>
        <pt x="286" y="16" on="0"/>
        <pt x="257" y="40" on="1"/>
        <pt x="276" y="64" on="1"/>
        <pt x="308" y="40" on="0"/>
        <pt x="368" y="16" on="0"/>
        <pt x="405" y="16" on="1"/>
        <pt x="435" y="16" on="0"/>
        <pt x="481" y="34" on="0"/>
        <pt x="511" y="64" on="0"/>
        <pt x="526" y="102" on="0"/>
        <pt x="526" y="122" on="1"/>
        <pt x="526" y="159" on="0"/>
        <pt x="491" y="205" on="0"/>
        <pt x="438" y="237" on="0"/>
        <pt x="376" y="262" on="0"/>
        <pt x="323" y="294" on="0"/>
        <pt x="288" y="339" on="0"/>
        <pt x="288" y="376" on="1"/>
        <pt x="288" y="413" on="0"/>
        <pt x="324" y="467" on="0"/>
        <pt x="366" y="515" on="0"/>
        <pt x="402" y="565" on="0"/>
        <pt x="402" y="600" on="1"/>
        <pt x="402" y="645" on="0"/>
        <pt x="344" y="706" on="0"/>
        <pt x="288" y="706" on="1"/>
        <pt x="223" y="706" on="0"/>
        <pt x="140" y="617" on="0"/>
        <pt x="140" y="524" on="1"/>
        <pt x="140" y="0" on="1"/>
        <pt x="110" y="0" on="1"/>
      </contour>
    </TTGlyph>
    <TTGlyph name="grave" xMin="220" yMin="572" xMax="352" yMax="706">
      <component glyphName="uni0300" x="0" y="0" flags="0x204"/>
    </TTGlyph>
    <TTGlyph name="greater" xMin="114" yMin="62" xMax="476" yMax="602">
      <contour>
        <pt x="476" y="316" on="1"/>
        <pt x="114" y="62" on="1"/>
        <pt x="114" y="98" on="1"/>
        <pt x="444" y="330" on="1"/>
        <pt x="444" y="334" on="1"/>
        <pt x="114" y="566" on="1"/>
        <pt x="114" y="602" on="1"/>
        <pt x="476" y="348" on="1"/>
      </contour>
    </TTGlyph>
    <TTGlyph name="greaterequal" xMin="98" yMin="0" xMax="502" yMax="512">
      <contour>
        <pt x="98" y="28" on="1"/>
        <pt x="502" y="28" on="1"/>
        <pt x="502" y="0" on="1"/>
        <pt x="98" y="0" on="1"/>
      </contour>
      <contour>
        <pt x="502" y="314" on="1"/>
        <pt x="98" y="152" on="1"/>
        <pt x="98" y="184" on="1"/>
        <pt x="338" y="278" on="1"/>
        <pt x="470" y="330" on="1"/>
        <pt x="470" y="334" on="1"/>
        <pt x="338" y="386" on="1"/>
        <pt x="98" y="480" on="1"/>
        <pt x="98" y="512" on="1"/>
        <pt x="502" y="350" on="1"/>
      </contour>
    </TTGlyph>
    <TTGlyph name="guillemotleft" xMin="116" yMin="74" xMax="473" yMax="430">
      <component glyphName="guilsinglleft" x="-99" y="0" flags="0x204"/>
      <component glyphName="guilsinglleft" x="100" y="0" flags="0x4"/>
    </TTGlyph>
    <TTGlyph name="guillemotright" xMin="128" yMin="74" xMax="485" yMax="430">
      <component glyphName="guilsinglright" x="-99" y="0" flags="0x204"/>
      <component glyphName="guilsinglright" x="100" y="0" flags="0x4"/>
    </TTGlyph>
    <TTGlyph name="guilsinglleft" xMin="215" yMin="74" xMax="373" yMax="430">
      <contour>
        <pt x="215" y="238" on="1"/>
        <pt x="215" y="266" on="1"/>
        <pt x="353" y="430" on="1"/>
        <pt x="373" y="412" on="1"/>
        <pt x="247" y="252" on="1"/>
        <pt x="373" y="90" on="1"/>
        <pt x="353" y="74" on="1"/>
      </contour>
    </TTGlyph>
    <TTGlyph name="guilsinglright" xMin="227" yMin="74" xMax="385" yMax="430">
      <contour>
        <pt x="353" y="252" on="1"/>
        <pt x="227" y="412" on="1"/>
        <pt x="247" y="430" on="1"/>
        <pt x="385" y="266" on="1"/>
        <pt x="385" y="238" on="1"/>
        <pt x="247" y="74" on="1"/>
        <pt x="227" y="90" on="1"/>
      </contour>
    </TTGlyph>
    <TTGlyph name="h" xMin="110" yMin="0" xMax="510" yMax="722">
      <contour>
        <pt x="110" y="722" on="1"/>
        <pt x="140" y="722" on="1"/>
        <pt x="140" y="508" on="1"/>
        <pt x="138" y="378" on="1"/>
        <pt x="186" y="428" on="0"/>
        <pt x="277" y="490" on="0"/>
        <pt x="336" y="490" on="1"/>
        <pt x="424" y="490" on="0"/>
        <pt x="510" y="397" on="0"/>
        <pt x="510" y="298" on="1"/>
        <pt x="510" y="0" on="1"/>
        <pt x="480" y="0" on="1"/>
        <pt x="480" y="294" on="1"/>
        <pt x="480" y="379" on="0"/>
        <pt x="412" y="462" on="0"/>
        <pt x="336" y="462" on="1"/>
        <pt x="309" y="462" on="0"/>
        <pt x="262" y="448" on="0"/>
        <pt x="216" y="419" on="0"/>
        <pt x="168" y="375" on="0"/>
        <pt x="140" y="346" on="1"/>
        <pt x="140" y="0" on="1"/>
        <pt x="110" y="0" on="1"/>
      </contour>
    </TTGlyph>
    <TTGlyph name="h.sups" xMin="190" yMin="260" xMax="453" yMax="734">
      <contour>
        <pt x="190" y="734" on="1"/>
        <pt x="222" y="734" on="1"/>
        <pt x="222" y="597" on="1"/>
        <pt x="220" y="521" on="1"/>
        <pt x="249" y="549" on="0"/>
        <pt x="306" y="585" on="0"/>
        <pt x="343" y="585" on="1"/>
        <pt x="453" y="585" on="0"/>
        <pt x="453" y="463" on="1"/>
        <pt x="453" y="260" on="1"/>
        <pt x="421" y="260" on="1"/>
        <pt x="421" y="459" on="1"/>
        <pt x="421" y="509" on="0"/>
        <pt x="382" y="557" on="0"/>
        <pt x="337" y="557" on="1"/>
        <pt x="305" y="557" on="0"/>
        <pt x="254" y="525" on="0"/>
        <pt x="222" y="493" on="1"/>
        <pt x="222" y="260" on="1"/>
        <pt x="190" y="260" on="1"/>
      </contour>
    </TTGlyph>
    <TTGlyph name="hbar" xMin="32" yMin="0" xMax="510" yMax="722">
      <contour>
        <pt x="138" y="358" on="1"/>
        <pt x="186" y="408" on="0"/>
        <pt x="277" y="470" on="0"/>
        <pt x="336" y="470" on="1"/>
        <pt x="424" y="470" on="0"/>
        <pt x="510" y="377" on="0"/>
        <pt x="510" y="278" on="1"/>
        <pt x="510" y="0" on="1"/>
        <pt x="480" y="0" on="1"/>
        <pt x="480" y="274" on="1"/>
        <pt x="480" y="359" on="0"/>
        <pt x="412" y="442" on="0"/>
        <pt x="336" y="442" on="1"/>
        <pt x="309" y="442" on="0"/>
        <pt x="262" y="428" on="0"/>
        <pt x="216" y="399" on="0"/>
        <pt x="168" y="355" on="0"/>
        <pt x="140" y="326" on="1"/>
        <pt x="140" y="0" on="1"/>
        <pt x="110" y="0" on="1"/>
        <pt x="110" y="584" on="1"/>
        <pt x="32" y="584" on="1"/>
        <pt x="32" y="608" on="1"/>
        <pt x="110" y="612" on="1"/>
        <pt x="110" y="722" on="1"/>
        <pt x="140" y="722" on="1"/>
        <pt x="140" y="612" on="1"/>
        <pt x="376" y="612" on="1"/>
        <pt x="376" y="584" on="1"/>
        <pt x="140" y="584" on="1"/>
        <pt x="140" y="488" on="1"/>
      </contour>
    </TTGlyph>
    <TTGlyph name="hcircumflex" xMin="33" yMin="0" xMax="510" yMax="852">
      <component glyphName="h" x="0" y="0" flags="0x204"/>
      <component glyphName="uni0302.cap" x="-157" y="38" flags="0x4"/>
    </TTGlyph>
    <TTGlyph name="hungarumlaut" xMin="224" yMin="570" xMax="460" yMax="706">
      <component glyphName="uni030B" x="0" y="0" flags="0x204"/>
    </TTGlyph>
    <TTGlyph name="hyphen" xMin="98" yMin="316" xMax="502" yMax="344">
      <component glyphName="minus" x="0" y="0" flags="0x204"/>
    </TTGlyph>
    <TTGlyph name="hyphen.a" xMin="142" yMin="230" xMax="458" yMax="270">
      <contour>
        <pt x="142" y="270" on="1"/>
        <pt x="458" y="270" on="1"/>
        <pt x="458" y="230" on="1"/>
        <pt x="142" y="230" on="1"/>
      </contour>
    </TTGlyph>
    <TTGlyph name="i" xMin="100" yMin="0" xMax="390" yMax="684">
      <contour>
        <pt x="100" y="478" on="1"/>
        <pt x="376" y="478" on="1"/>
        <pt x="376" y="0" on="1"/>
        <pt x="346" y="0" on="1"/>
        <pt x="346" y="450" on="1"/>
        <pt x="100" y="450" on="1"/>
      </contour>
      <contour>
        <pt x="350" y="600" on="1"/>
        <pt x="333" y="600" on="0"/>
        <pt x="310" y="622" on="0"/>
        <pt x="310" y="642" on="1"/>
        <pt x="310" y="662" on="0"/>
        <pt x="333" y="684" on="0"/>
        <pt x="350" y="684" on="1"/>
        <pt x="367" y="684" on="0"/>
        <pt x="390" y="662" on="0"/>
        <pt x="390" y="642" on="1"/>
        <pt x="390" y="622" on="0"/>
        <pt x="367" y="600" on="0"/>
      </contour>
    </TTGlyph>
    <TTGlyph name="i.sups" xMin="180" yMin="260" xMax="381" yMax="718">
      <contour>
        <pt x="180" y="577" on="1"/>
        <pt x="365" y="577" on="1"/>
        <pt x="365" y="260" on="1"/>
        <pt x="334" y="260" on="1"/>
        <pt x="334" y="550" on="1"/>
        <pt x="180" y="550" on="1"/>
      </contour>
      <contour>
        <pt x="349" y="653" on="1"/>
        <pt x="335" y="653" on="0"/>
        <pt x="316" y="670" on="0"/>
        <pt x="316" y="685" on="1"/>
        <pt x="316" y="700" on="0"/>
        <pt x="335" y="718" on="0"/>
        <pt x="349" y="718" on="1"/>
        <pt x="363" y="718" on="0"/>
        <pt x="381" y="700" on="0"/>
        <pt x="381" y="685" on="1"/>
        <pt x="381" y="670" on="0"/>
        <pt x="363" y="653" on="0"/>
      </contour>
    </TTGlyph>
    <TTGlyph name="iacute" xMin="100" yMin="0" xMax="430" yMax="706">
      <component glyphName="dotlessi" x="0" y="0" flags="0x204"/>
      <component glyphName="uni0301" x="50" y="0" flags="0x4"/>
    </TTGlyph>
    <TTGlyph name="icircumflex" xMin="100" yMin="0" xMax="458" yMax="706">
      <component glyphName="dotlessi" x="0" y="0" flags="0x204"/>
      <component glyphName="uni0302" x="50" y="0" flags="0x4"/>
    </TTGlyph>
    <TTGlyph name="idieresis" xMin="100" yMin="0" xMax="470" yMax="674">
      <component glyphName="dotlessi" x="0" y="0" flags="0x204"/>
      <component glyphName="uni0308" x="50" y="0" flags="0x4"/>
    </TTGlyph>
    <TTGlyph name="igrave" xMin="100" yMin="0" xMax="402" yMax="706">
      <component glyphName="dotlessi" x="0" y="0" flags="0x204"/>
      <component glyphName="uni0300" x="50" y="0" flags="0x4"/>
    </TTGlyph>
    <TTGlyph name="imacron" xMin="100" yMin="0" xMax="460" yMax="636">
      <component glyphName="dotlessi" x="0" y="0" flags="0x204"/>
      <component glyphName="uni0304" x="50" y="0" flags="0x4"/>
    </TTGlyph>
    <TTGlyph name="infinity" xMin="4" yMin="174" xMax="596" yMax="488">
      <contour>
        <pt x="130" y="188" on="1"/>
        <pt x="105" y="188" on="0"/>
        <pt x="59" y="209" on="0"/>
        <pt x="25" y="247" on="0"/>
        <pt x="4" y="299" on="0"/>
        <pt x="4" y="330" on="1"/>
        <pt x="4" y="362" on="0"/>
        <pt x="25" y="415" on="0"/>
        <pt x="61" y="452" on="0"/>
        <pt x="109" y="472" on="0"/>
        <pt x="136" y="472" on="1"/>
        <pt x="162" y="472" on="0"/>
        <pt x="205" y="452" on="0"/>
        <pt x="240" y="420" on="0"/>
        <pt x="269" y="379" on="0"/>
        <pt x="280" y="358" on="1"/>
        <pt x="284" y="358" on="1"/>
        <pt x="298" y="384" on="0"/>
        <pt x="333" y="431" on="0"/>
        <pt x="374" y="467" on="0"/>
        <pt x="422" y="488" on="0"/>
        <pt x="450" y="488" on="1"/>
        <pt x="483" y="488" on="0"/>
        <pt x="537" y="465" on="0"/>
        <pt x="575" y="424" on="0"/>
        <pt x="596" y="366" on="0"/>
        <pt x="596" y="332" on="1"/>
        <pt x="596" y="299" on="0"/>
        <pt x="576" y="241" on="0"/>
        <pt x="539" y="199" on="0"/>
        <pt x="486" y="174" on="0"/>
        <pt x="454" y="174" on="1"/>
        <pt x="398" y="174" on="0"/>
        <pt x="322" y="240" on="0"/>
        <pt x="284" y="300" on="1"/>
        <pt x="280" y="300" on="1"/>
        <pt x="269" y="283" on="0"/>
        <pt x="241" y="243" on="0"/>
        <pt x="204" y="210" on="0"/>
        <pt x="158" y="188" on="0"/>
      </contour>
      <contour>
        <pt x="300" y="332" on="1"/>
        <pt x="321" y="295" on="0"/>
        <pt x="360" y="247" on="0"/>
        <pt x="397" y="218" on="0"/>
        <pt x="435" y="206" on="0"/>
        <pt x="456" y="206" on="1"/>
        <pt x="482" y="206" on="0"/>
        <pt x="523" y="226" on="0"/>
        <pt x="551" y="259" on="0"/>
        <pt x="566" y="304" on="0"/>
        <pt x="566" y="330" on="1"/>
        <pt x="566" y="385" on="0"/>
        <pt x="505" y="460" on="0"/>
        <pt x="448" y="460" on="1"/>
        <pt x="406" y="460" on="0"/>
        <pt x="335" y="400" on="0"/>
      </contour>
      <contour>
        <pt x="134" y="216" on="1"/>
        <pt x="175" y="216" on="0"/>
        <pt x="239" y="275" on="0"/>
        <pt x="264" y="328" on="1"/>
        <pt x="232" y="387" on="0"/>
        <pt x="170" y="440" on="0"/>
        <pt x="134" y="440" on="1"/>
        <pt x="91" y="440" on="0"/>
        <pt x="34" y="385" on="0"/>
        <pt x="34" y="332" on="1"/>
        <pt x="34" y="279" on="0"/>
        <pt x="94" y="216" on="0"/>
      </contour>
    </TTGlyph>
</ttFont>
